<?xml version="1.0" encoding="utf-8"?>
<!-- Generator: Adobe Illustrator 19.0.0, SVG Export Plug-In . SVG Version: 6.00 Build 0)  -->
<svg version="1.1" id="Ebene_1" xmlns="http://www.w3.org/2000/svg" xmlns:xlink="http://www.w3.org/1999/xlink" x="0px" y="0px"
	 viewBox="0 17.5 100 67.5" style="enable-background:new 0 17.5 100 67.5;" xml:space="preserve">
<style type="text/css">
	.st0{display:none;}
	.st1{display:inline;}
	.st2{fill:none;}
</style>
<g id="Ebene_1_1_">
	<g>
		<path d="M56,45.4l-4.3-1.2l-7.1-1.8c-0.1,0-0.2,0-0.3,0c-5.7,1.1-10.3,4-12.7,7.9l-0.2,0.3c-0.1,0.1-0.1,0.3-0.1,0.4l0,0v22.9
			c0,0.4,0.3,0.7,0.7,0.7h43.1c0.4,0,0.7-0.3,0.7-0.7l-0.1-22.7l0,0c0-0.3-0.2-0.6-0.5-0.7l-19.1-5 M56.1,46.9l13.6,3.6H33.3
			c2.3-3.4,6.3-5.8,11.2-6.7l7.2,1.9L56.1,46.9 M74.3,73.4H32.7v-8.7c1.1,0.1,1.7,0.6,2.4,1.2c0.9,0.7,1.9,1.5,4,1.5
			c2,0,3-0.8,4-1.5c0.8-0.7,1.6-1.2,3.1-1.2s2.3,0.5,3.1,1.2c0.9,0.7,1.9,1.5,4,1.5c2,0,3-0.8,4-1.5c0.8-0.7,1.6-1.2,3.1-1.2
			s2.3,0.5,3.1,1.2c0.9,0.7,2,1.5,4,1.5s3-0.8,4-1.5c0.8-0.7,1.6-1.2,3.1-1.2C74.3,64.6,74.3,73.4,74.3,73.4z M74.3,63.3
			c-2,0-3,0.8-4,1.5c-0.8,0.7-1.6,1.2-3.1,1.2s-2.3-0.5-3.1-1.2c-0.9-0.7-2-1.5-4-1.5s-3,0.8-4,1.5C55.3,65.5,54.5,66,53,66
			s-2.3-0.5-3.1-1.2c-0.9-0.7-1.9-1.5-4-1.5c-2,0-3,0.8-4,1.5c-0.8,0.7-1.6,1.2-3.1,1.2s-2.3-0.5-3.1-1.2c-0.8-0.6-1.7-1.3-3.3-1.5
			v-4c1.1,0.1,1.7,0.6,2.4,1.2c0.9,0.7,1.9,1.5,4,1.5c2,0,3-0.8,4-1.5c0.8-0.7,1.6-1.2,3.1-1.2s2.3,0.5,3.1,1.2
			c0.9,0.7,1.9,1.5,4,1.5c2,0,3-0.8,4-1.5c0.8-0.7,1.6-1.2,3.1-1.2s2.3,0.5,3.1,1.2c0.9,0.7,2,1.5,4,1.5s3-0.8,4-1.5
			c0.8-0.7,1.6-1.2,3.1-1.2C74.3,59.3,74.3,63.3,74.3,63.3z M74.3,57.9c-2,0-3,0.8-4,1.5c-0.8,0.7-1.6,1.2-3.1,1.2s-2.3-0.5-3.1-1.2
			c-0.9-0.7-2-1.5-4-1.5s-3,0.8-4,1.5c-0.8,0.7-1.6,1.2-3.1,1.2s-2.3-0.5-3.1-1.2c-0.9-0.7-1.9-1.5-4-1.5c-2,0-3,0.8-4,1.5
			c-0.8,0.7-1.6,1.2-3.1,1.2s-2.3-0.5-3.1-1.2c-0.8-0.6-1.7-1.3-3.3-1.5v-6.1h41.7L74.3,57.9L74.3,57.9z"/>
	</g>
</g>
<g id="Ebene_2" class="st0">
	<path id="XMLID_8_" class="st1" d="M43,67.8L40.6,66l0,0v-4.4l0,0l-7.7-7.5l0,0H18.1v12l-2.4,1.8v9.5v0.5h0.5h1.9v7.6h22.4v-7.6
		h1.9H43v-0.5v-2.6V67.8z M24.6,73.8c0.1,0.2,0.2,0.3,0.3,0.5c0.1,0.1,0.2,0.2,0.4,0.3c0.2,0.1,0.3,0.1,0.5,0.1c0.1,0,0.2,0,0.3,0
		c0.1,0,0.2,0,0.2-0.1s0.1-0.1,0.2-0.1s0.1-0.1,0.2-0.1c0,0,0,0,0.1,0h0.1c0.1,0,0.1,0,0.1,0.1l0.4,0.4c-0.2,0.2-0.4,0.4-0.7,0.5
		c-0.3,0.1-0.6,0.2-0.9,0.2s-0.6-0.1-0.9-0.2s-0.5-0.3-0.7-0.5c-0.2-0.2-0.3-0.4-0.4-0.7c-0.1-0.3-0.1-0.6-0.1-0.9
		c0-0.2,0-0.4,0.1-0.6c0-0.2,0.1-0.4,0.2-0.5c0.1-0.2,0.2-0.3,0.3-0.5c0.1-0.1,0.3-0.2,0.4-0.3c0.2-0.1,0.3-0.2,0.5-0.2
		s0.4-0.1,0.6-0.1s0.3,0,0.5,0c0.1,0,0.3,0.1,0.4,0.1c0.1,0.1,0.2,0.1,0.3,0.2c0.1,0.1,0.2,0.2,0.3,0.2L27,71.9c0,0,0,0.1-0.1,0.1
		h-0.1c0,0-0.1,0-0.1-0.1s-0.1-0.1-0.2-0.1s-0.2-0.1-0.3-0.1c-0.1,0-0.2-0.1-0.4-0.1c-0.2,0-0.4,0-0.5,0.1c-0.2,0.1-0.3,0.2-0.4,0.3
		s-0.2,0.3-0.3,0.5c-0.1,0.2-0.1,0.4-0.1,0.6C24.5,73.4,24.6,73.6,24.6,73.8z M29.8,73.9c-0.1-0.1-0.1-0.1-0.2-0.2
		c-0.1,0-0.2-0.1-0.3-0.1c-0.2-0.1-0.3-0.1-0.4-0.1s-0.2-0.1-0.4-0.1c-0.1-0.1-0.2-0.1-0.3-0.2C28.1,73.1,28,73,28,72.9
		c-0.1-0.1-0.1-0.3-0.1-0.5c0-0.2,0-0.3,0.1-0.5c0.1-0.2,0.2-0.3,0.3-0.4c0.1-0.1,0.3-0.2,0.5-0.3s0.4-0.1,0.6-0.1
		c0.3,0,0.5,0,0.7,0.1s0.4,0.2,0.6,0.3l-0.2,0.4L30.4,72h-0.1h-0.1c-0.1,0-0.1-0.1-0.2-0.1s-0.1-0.1-0.2-0.1s-0.2,0-0.3,0
		c-0.2,0-0.4,0-0.5,0.1s-0.2,0.2-0.2,0.4c0,0.1,0,0.2,0.1,0.2c0.1,0.1,0.1,0.1,0.2,0.2c0.1,0,0.2,0.1,0.3,0.1c0.1,0,0.2,0.1,0.4,0.1
		s0.2,0.1,0.4,0.2c0.1,0.1,0.2,0.1,0.3,0.2c0.1,0.1,0.2,0.2,0.2,0.3c0.1,0.1,0.1,0.3,0.1,0.5c0,0.2,0,0.4-0.1,0.6
		c-0.1,0.2-0.2,0.3-0.3,0.5c-0.1,0.1-0.3,0.2-0.5,0.3s-0.4,0.1-0.7,0.1c-0.1,0-0.3,0-0.4,0s-0.3-0.1-0.4-0.1
		c-0.1-0.1-0.3-0.1-0.4-0.2c-0.1-0.1-0.2-0.2-0.3-0.2l0.3-0.4l0.1-0.1h0.1c0.1,0,0.1,0,0.2,0.1c0.1,0,0.1,0.1,0.2,0.1
		s0.2,0.1,0.3,0.1c0.1,0,0.2,0.1,0.4,0.1c0.2,0,0.4,0,0.5-0.1s0.2-0.2,0.2-0.4C29.9,74,29.9,73.9,29.8,73.9z M33.6,75.4h-0.8L31,71
		h0.7c0.1,0,0.1,0,0.2,0.1l0.1,0.1l1,2.6c0,0.1,0.1,0.2,0.1,0.3s0.1,0.2,0.1,0.4c0-0.1,0.1-0.2,0.1-0.4c0-0.1,0.1-0.2,0.1-0.3l1-2.6
		c0-0.1,0.1-0.1,0.1-0.1s0.1-0.1,0.2-0.1h0.7L33.6,75.4z M31.8,55.2v7.5h7.7v5.1H19.2V55.2H31.8z M39.5,84.5H19.2V78h20.3V84.5
		L39.5,84.5z"/>
	<path id="XMLID_16_" class="st1" d="M64.1,49.9v-4.2l0,0v-0.1l0,0c0,0,0,0,0-0.1l0,0c0,0,0,0,0-0.1l0,0c0,0,0,0-0.1-0.1l-6.4-6.4
		l0,0l0,0c0,0,0,0-0.1,0l0,0c0,0,0,0-0.1,0l0,0c0,0,0,0-0.1,0l0,0h-0.1l0,0h-14c-0.3,0-0.5,0.2-0.5,0.5v10.7h-1.5V61h1.5v4.9
		c0,0.3,0.2,0.5,0.5,0.5h20.4c0.3,0,0.5-0.2,0.5-0.5V61h1.5V49.9H64.1z M57.7,40.4l4.7,4.8h-4.7V40.4z M63.1,65.2H43.7v-4.5h19.4
		V65.2z M43.7,52.9H45l0.5,0.9c0.2,0.3,0.3,0.6,0.4,0.9l0,0c0.1-0.3,0.2-0.6,0.4-0.9l0.4-0.9H48l-1.5,2.5L48,58h-1.3l-0.5-0.9
		c-0.2-0.4-0.3-0.6-0.5-0.9l0,0c-0.1,0.3-0.2,0.6-0.4,0.9l-0.3,1h-1.3l1.5-2.6L43.7,52.9z M49,58.1l0.3-5.2h1.6l0.5,1.7
		c0.2,0.6,0.3,1.2,0.4,1.8l0,0c0.1-0.6,0.3-1.3,0.5-1.9l0.6-1.7h1.5l0.3,5.2h-1.1l-0.1-2c0-0.6,0-1.4,0-2.1l0,0
		c-0.2,0.7-0.4,1.4-0.6,2l-0.6,2h-0.9l-0.6-2c-0.2-0.6-0.3-1.3-0.5-2l0,0c0,0.7-0.1,1.5-0.1,2.1l-0.1,2L49,58.1L49,58.1z M59.2,57.1
		v1H56v-5.2h1.2v4.2H59.2z M63.1,49.9H43.7V39.7h13v6c0,0.3,0.2,0.5,0.5,0.5h5.9L63.1,49.9L63.1,49.9z"/>
	<g id="XMLID_47_" class="st1">
		<path id="XMLID_59_" d="M62.4,69.8c-8.4,0-15.4,2-15.5,5.1c0,0.1,0,19.1,0,24.3c0,0.8,0,1.2,0,1.2c0,2.8,7.4,4.8,15.5,4.8
			s15.5-1.9,15.5-4.8s0-25.4,0-25.5C78,71.9,70.8,69.8,62.4,69.8z M62.4,78.9c-8.6,0-14.5-2.2-14.5-4.1c0-2,5.8-4.1,14.5-4.1
			s14.5,2.2,14.5,4.1C76.9,76.8,71,78.9,62.4,78.9z M76.9,100.3c-0.5,2-6.2,3.8-14.5,3.8s-14-2-14.5-3.8l0,0v-7.6
			c0.7,0.8,2.1,1.6,3.9,2.2c2.7,0.8,6.4,1.3,10.5,1.3c6.9,0,12.7-1.4,14.5-3.4L76.9,100.3L76.9,100.3z M76.9,91.7
			c-0.6,2-6.2,3.8-14.5,3.8c-4.1,0-7.6-0.5-10.1-1.2c-2.5-0.8-4.1-1.7-4.3-2.6v-6.9c1.4,1.7,5.4,2.9,10.7,3.4
			c1.2,0.1,2.4,0.1,3.8,0.1c6.9,0,12.7-1.4,14.5-3.4L76.9,91.7L76.9,91.7z M76.9,83.6c-0.6,2-6.2,3.8-14.5,3.8c-1,0-2,0-2.9-0.1
			c-6.7-0.4-11.1-2.2-11.5-3.8v-7.3c1.7,1.8,7.5,3.5,14.5,3.5c3.7,0,7-0.4,9.6-1c2.3-0.6,4-1.4,4.9-2.3L76.9,83.6L76.9,83.6z"/>
		<path id="XMLID_56_" d="M71.5,82c0,0.9,0.8,1.7,1.7,1.7s1.7-0.8,1.7-1.7c0-0.9-0.8-1.7-1.7-1.7S71.5,81.1,71.5,82z M74.1,82
			c0,0.6-0.5,0.9-0.9,0.9c-0.6,0-0.9-0.5-0.9-0.9s0.5-0.9,0.9-0.9C73.8,81.1,74.1,81.4,74.1,82z"/>
		<path id="XMLID_53_" d="M73.2,92.2c0.9,0,1.7-0.8,1.7-1.7c0-0.9-0.8-1.7-1.7-1.7s-1.7,0.8-1.7,1.7C71.5,91.5,72.3,92.2,73.2,92.2z
			 M73.2,89.6c0.6,0,0.9,0.5,0.9,0.9c0,0.6-0.5,0.9-0.9,0.9c-0.6,0-0.9-0.5-0.9-0.9C72.3,90,72.6,89.6,73.2,89.6z"/>
		<path id="XMLID_50_" d="M73.2,100.7c0.9,0,1.7-0.8,1.7-1.7c0-0.9-0.8-1.7-1.7-1.7s-1.7,0.8-1.7,1.7
			C71.5,99.9,72.3,100.7,73.2,100.7z M73.2,98c0.6,0,0.9,0.5,0.9,0.9c0,0.6-0.5,0.9-0.9,0.9c-0.6,0-0.9-0.5-0.9-0.9
			C72.3,98.4,72.6,98,73.2,98z"/>
	</g>
</g>
<g id="Ebene_3" class="st0">
	<g id="XMLID_57_" class="st1">
		<path id="XMLID_58_" d="M60.5,80.1c2,0.2,3.7,0.6,3.7,0.6c-3.9-2.2-3.8-10-3.8-10c0.7-15.1-9.3-14.3-9.3-14.3l0,0l0,0
			c0,0-10-0.8-9.3,14.3c0,0,0.1,7.8-3.8,10c0,0,1.1-0.1,2.5-0.1c-4,1.8-6.8,5.8-6.8,10.5c0,6.4,5.2,5.2,11.5,5.2H57
			c6.4,0,11.5,1.1,11.5-5.2C68.6,85.9,65.2,81.6,60.5,80.1z M53.8,83.1l-2.7,4.4l-2.7-4.3c-1.9-0.4-3.4-1.3-4-2.5
			c1.6,0.1,2.9,0.4,3.2,1l-1.5-3.3c1.4,1.4,3.1,2.2,4.9,2.2c1.8,0,3.5-0.8,4.8-2.1l-1,2.1c0.3-0.6,1.6-0.7,3.1-0.7
			C57.8,81.4,56.1,82.6,53.8,83.1z M58.8,69.2c-0.2,2-0.7,3.8-1.4,5.4c-1.4,2.8-3.7,4.6-6.2,4.6c-3.9,0-7.1-4.2-7.6-9.7
			c0,0,3.1-0.5,4.9-1.2c0,0,3.3-1.1,7.4-4c0,0,0,0,0.1,0c0,0,0.1,0.1,0.2,0.3c0.4,0.6,1.1,2.4-0.3,3.2l2.6,0.3l0,0l0.5,0.1
			C58.8,68.5,58.8,68.9,58.8,69.2z"/>
	</g>
	<g id="XMLID_18_" class="st1">
		<path id="XMLID_19_" d="M85.1,79.3c1.5,0.2,2.9,0.4,2.9,0.4c-3.1-1.7-3-7.8-3-7.8c0.5-11.7-7.2-11.1-7.2-11.1l0,0l0,0
			c0,0-7.7-0.6-7.2,11.1c0,0,0.1,6.1-3,7.8c0,0,0.8-0.1,1.9-0.1c-3.1,1.4-5.3,4.5-5.3,8.2c0,5,4,4.1,9,4.1h9.2c5,0,9,0.9,9-4.1
			C91.3,83.8,88.7,80.4,85.1,79.3z M79.8,81.6L77.7,85l-2.1-3.4c-1.5-0.3-2.7-1-3.1-1.9c1.2,0.1,2.2,0.3,2.5,0.8l-1.1-2.6
			c1.1,1.1,2.4,1.7,3.8,1.7s2.7-0.6,3.8-1.7l-0.8,1.7c0.3-0.4,1.3-0.6,2.5-0.5C83,80.3,81.7,81.2,79.8,81.6z M83.7,70.8
			c-0.1,1.6-0.5,3-1.1,4.2c-1.1,2.2-2.9,3.6-4.8,3.6c-3,0-5.5-3.3-5.9-7.6c0,0,2.4-0.4,3.8-1c0,0,2.6-0.9,5.8-3.1l0,0
			c0,0,0.1,0.1,0.1,0.2c0.3,0.5,0.9,1.9-0.2,2.5l2,0.3l0,0l0.4,0.1C83.8,70.2,83.8,70.5,83.7,70.8z"/>
	</g>
	<g id="XMLID_23_" class="st1">
		<path id="XMLID_28_" class="st2" d="M22.8,77.4c-3.1,0-5.7-3.4-6.1-7.8c0.3,0.1,0.6,0.2,1,0.5c0,0-0.7-4.1,0.8-4.7c0,0,2,1,4.4,1
			c2.3-0.1,4.4-1,4.4-1c1.5,0.6,0.8,4.7,0.8,4.7c0.4-0.3,0.7-0.4,1-0.5C28.5,74,25.9,77.4,22.8,77.4z"/>
		<path id="XMLID_25_" d="M29.8,68.7c0-0.2,0-0.3,0-0.5c0-0.4,0-0.8-0.1-1.1c-0.5-3.6-3.4-6.3-7-6.3s-6.5,2.7-7,6.3
			c-0.1,0.4-0.1,0.7-0.1,1.1c0,0.2,0,0.3,0,0.5c0,0.2,0,0.4,0.1,0.7c0,0.1,0,0.1,0,0.2c0.4,5,3.4,8.9,7,8.9s6.5-3.9,7-8.9
			c0-0.1,0-0.1,0-0.2C29.8,69.2,29.8,68.9,29.8,68.7z M27.9,70.1c0.4-0.3,0.7-0.4,1-0.5c-0.4,4.4-3,7.8-6.1,7.8s-5.7-3.4-6.1-7.8
			c0.3,0.1,0.6,0.2,1,0.5c0,0-0.7-4.1,0.8-4.7c0,0,2,1,4.4,1c2.3-0.1,4.4-1,4.4-1C28.6,66,27.9,70.1,27.9,70.1z"/>
		<path id="XMLID_24_" d="M16.7,77.6L16.7,77.6c0.2,0,0.3,0,0.4-0.1l0,0v0.1c0,0.2,0.1,0.4,0.2,0.6c0.7,1.7,2.9,5,4.2,6.9l0.3-3.9
			c-0.4-0.2-0.7-0.5-0.9-0.9c-0.2-0.3-0.2-0.6-0.2-0.9c0,0,1,0.4,2,0.4c0.1,0,0.1,0,0.2,0s0.1,0,0.2,0c1,0,2-0.4,2-0.4
			c0,0.3-0.1,0.6-0.2,0.9c-0.2,0.4-0.5,0.7-0.9,0.9l0.3,3.9c1.3-1.9,3.5-5.1,4.2-6.9c0.1-0.2,0.2-0.4,0.2-0.6v-0.1l0,0
			c0.1,0,0.3,0,0.4,0l0,0c4.5,0.6,8,4.5,8,9.2c0,5.2-4.2,5.1-9.3,5.1H23h-5c-5.2,0-9.3,0-9.3-5.1C8.7,82.1,12.1,78.2,16.7,77.6z"/>
	</g>
</g>
<g id="Ebene_4" class="st0">
	<g id="XMLID_52_" class="st1">
		<path id="XMLID_49_" d="M69.8,45.9l-3.2,3.8l0.9,5.6c0.1,0.9-0.3,1.8-1.1,2.2l-5,2.5c2.3,1.9,4.3,3.7,4.3,3.7s4.4-10,5-17.2
			c-0.2-0.1-0.4-0.3-0.6-0.4C70,46,69.9,46,69.8,45.9z"/>
		<path id="XMLID_48_" d="M58.3,56.9l4.9-2.5l-0.5-3.1L62,50.9l-4.8,6c0.2,0.1,0.4,0.2,0.6,0.4C57.9,57.1,58.1,57,58.3,56.9z"/>
		<path id="XMLID_36_" d="M60.1,46.5l1.8-7.1c0-0.1,0-0.2,0-0.5C55.4,41.9,47,52.5,47,52.5s3.2,1.1,6.2,2.5L60.1,46.5
			C60.1,46.6,60.1,46.5,60.1,46.5z"/>
		<ellipse id="XMLID_35_" cx="69.5" cy="37" rx="3" ry="3"/>
		<path id="XMLID_34_" d="M76.5,41c-0.6-0.4-1.3-0.3-1.7,0.3c-0.9,1.2-1.6,2-2.1,2.4c-0.3,0.2-0.5,0.3-0.6,0.4
			c-0.1,0-0.1,0.1-0.2,0.1c0,0-0.1-0.1-0.1-0.2c-0.1-0.2-0.2-0.5-0.3-0.7c0-0.1,0-0.2-0.1-0.3v-0.1l0,0c-0.1-0.5-0.3-0.8-0.7-1
			c-0.1,0-0.1-0.1-0.2-0.1l-5.9-3c0.1-0.8,0.3-2.1,0.9-3.7c0.8-2.4,2.4-5.1,5.3-7.2c0.5-0.4,0.7-1.2,0.3-1.7
			c-0.4-0.5-1.2-0.7-1.7-0.3c-3.5,2.5-5.3,5.9-6.2,8.6c-0.9,2.6-1,4.6-1,4.9l-1.8,7.2l-0.1,0.1L50.1,59.3c-0.6,0.8-0.5,1.9,0.3,2.6
			c0.3,0.3,0.7,0.4,1.2,0.4s1.1-0.2,1.4-0.7l9-11l1,0.5l0.5,3.4l-5,2.6c-0.9,0.5-1.3,1.6-0.8,2.5c0.3,0.6,1,1,1.6,1
			c0.3,0,0.6-0.1,0.8-0.2l6.2-3.2c0.7-0.4,1.1-1.1,1-1.9l-0.9-5.7l3.5-4.1c0.1,0.2,0.2,0.3,0.4,0.5c0.4,0.4,1,0.7,1.7,0.7l0,0
			c0.4,0,0.8-0.1,1.2-0.3c0.6-0.3,1.1-0.7,1.7-1.3c0.6-0.6,1.2-1.4,1.9-2.4C77.2,42.2,77,41.4,76.5,41z"/>
		<path id="XMLID_33_" d="M53.1,65.2c-0.6-0.4-2.7,1.5-4.5,4.4c-5.7,8.9-10.9,18.1-15.7,27.5c-1.5,3.1-1.4,3.1,0.3,0.2
			c5.4-9,11.1-17.8,17.2-26.3C52.5,68.2,53.7,65.6,53.1,65.2z"/>
		<path id="XMLID_32_" d="M36.1,97.9c-0.7,0.2-0.9,1.1,0,0.9c1.2-0.3,2.3-0.1,3.2,0.8c0.8,0.8,1.1,1.9,1.2,3c0,1-0.2,2-0.9,2.7
			c-0.8,0.8-2.1,0.6-3.1,0.2c-0.4-0.2-1.2,0.1-1.1,0.7c0.3,1.5,0.3,3.3-0.9,4.3c-0.9,0.7-2.3,0.8-3.4,0.5c-1.2-0.2-2.4-0.9-3-1.9
			c-0.7-1.2-0.2-2.6,0.7-3.6c0.5-0.5-0.1-0.9-0.6-0.6c-1.1,0.5-2.3,0.8-3.3,0.3c-0.8-0.4-1.2-1.3-1.4-2.1c-0.1-0.8,0-1.7,0.5-2.4
			c0.5-0.7,1.4-0.7,2.2-0.5c0.4,0.1,1.4-0.7,0.8-0.9c-0.9-0.3-1.6-0.8-1.9-1.8c-0.2-0.8,0.1-1.6,0.6-2.2c1.4-1.8,3.8-1,5.2,0.3
			c0.4,0.4,1.6-0.3,1.1-0.7c-2-1.9-5.1-2.2-7.2-0.1c-0.7,0.8-1.2,1.8-1.1,2.9c0.1,0.6,0.4,1.2,0.8,1.6c-1.6,0.5-2.7,2.1-2.4,4
			c0.1,1.2,0.7,2.2,1.8,2.8c0.9,0.5,2,0.5,3.1,0.3c-0.5,0.9-0.8,2-0.3,3c0.5,1.3,1.9,2.1,3.1,2.5c3,1,6.7-0.3,7.1-3.7
			c0.1-0.5,0-0.9,0-1.4c1.1,0.2,2.3,0.1,3.3-0.7c1.1-0.8,1.7-2.2,1.7-3.5c0.1-1.3-0.4-2.7-1.4-3.7C39.3,97.8,37.6,97.6,36.1,97.9z"
			/>
		<path id="XMLID_31_" d="M29.5,100.8c0-0.6-1-0.3-1,0.2c0,2.3,3.2,2.6,4.7,1.5c0.5-0.4-0.1-1-0.6-0.6
			C31.7,102.6,29.5,102.3,29.5,100.8z"/>
	</g>
</g>
<path d="M51.4,42.2c-0.4-2-1.5-3.2-3.5-3.5c-1.2-0.2-3.1-0.6-3.2,1.1c-0.4-0.3-0.4-0.3-0.7-0.6c-0.9-1.1-1.4-2-1.7-3.6
	c-0.3-2.5,1.3-4.3,2.9-6.1l-1.6-1.4c-1.7,2-2.5,4.8-2.2,7.5c0.2,1.6,0.8,3,1.7,4.1c-0.8,0.2-1.5,0.7-1.7,0.8c-1.1,0.9-1.8,2.6-1.5,4
	c0.5,2.6,3.2,4,5.8,3.9C49,48.4,52.2,46.3,51.4,42.2z M50.1,43c-0.5-1.3-1.6-3.4-3.9-3.4C47.7,38.6,51.1,39.1,50.1,43z"/>
</svg>
