<?xml version="1.0" encoding="utf-8"?>
<!-- Generator: Adobe Illustrator 19.0.0, SVG Export Plug-In . SVG Version: 6.00 Build 0)  -->
<svg version="1.1" id="Ebene_1" xmlns="http://www.w3.org/2000/svg" xmlns:xlink="http://www.w3.org/1999/xlink" x="0px" y="0px"
	 viewBox="0 12.5 100 76.5" style="enable-background:new 0 12.5 100 76.5;" xml:space="preserve">
<style type="text/css">
	.st0{display:none;}
	.st1{display:inline;}
	.st2{fill:none;}
</style>
<g id="Ebene_1_1_" class="st0">
	<g class="st1">
		<path d="M75.7,60c0-0.3-0.2-0.6-0.5-0.7l-19.1-5v-8.4c0-0.4-0.3-0.7-0.7-0.7h-3c-0.4,0-0.7,0.3-0.7,0.7V53l-7.1-1.8
			c-0.1,0-0.2,0-0.3,0c-5.7,1.1-10.3,4-12.7,7.9l-0.2,0.3c-0.1,0.1-0.1,0.3-0.1,0.4l0,0v22.9c0,0.4,0.3,0.7,0.7,0.7h43.1
			c0.4,0,0.7-0.3,0.7-0.7L75.7,60L75.7,60z M53,46.7h1.6v9.8H53V46.7z M44.5,52.7l7.2,1.9v2.7c0,0.4,0.3,0.7,0.7,0.7h3
			c0.4,0,0.7-0.3,0.7-0.7v-1.5l13.6,3.6H33.3C35.6,56,39.6,53.6,44.5,52.7z M74.3,82.3H32.7v-8.7c1.1,0.1,1.7,0.6,2.4,1.2
			c0.9,0.7,1.9,1.5,4,1.5c2,0,3-0.8,4-1.5c0.8-0.7,1.6-1.2,3.1-1.2s2.3,0.5,3.1,1.2c0.9,0.7,1.9,1.5,4,1.5c2,0,3-0.8,4-1.5
			c0.8-0.7,1.6-1.2,3.1-1.2s2.3,0.5,3.1,1.2c0.9,0.7,2,1.5,4,1.5s3-0.8,4-1.5c0.8-0.7,1.6-1.2,3.1-1.2
			C74.3,73.5,74.3,82.3,74.3,82.3z M74.3,72.2c-2,0-3,0.8-4,1.5c-0.8,0.7-1.6,1.2-3.1,1.2s-2.3-0.5-3.1-1.2c-0.9-0.7-2-1.5-4-1.5
			s-3,0.8-4,1.5c-0.8,0.7-1.6,1.2-3.1,1.2s-2.3-0.5-3.1-1.2c-0.9-0.7-1.9-1.5-4-1.5c-2,0-3,0.8-4,1.5c-0.8,0.7-1.6,1.2-3.1,1.2
			s-2.3-0.5-3.1-1.2c-0.8-0.6-1.7-1.3-3.3-1.5v-4c1.1,0.1,1.7,0.6,2.4,1.2c0.9,0.7,1.9,1.5,4,1.5c2,0,3-0.8,4-1.5
			c0.8-0.7,1.6-1.2,3.1-1.2s2.3,0.5,3.1,1.2c0.9,0.7,1.9,1.5,4,1.5c2,0,3-0.8,4-1.5c0.8-0.7,1.6-1.2,3.1-1.2s2.3,0.5,3.1,1.2
			c0.9,0.7,2,1.5,4,1.5s3-0.8,4-1.5c0.8-0.7,1.6-1.2,3.1-1.2C74.3,68.2,74.3,72.2,74.3,72.2z M74.3,66.8c-2,0-3,0.8-4,1.5
			c-0.8,0.7-1.6,1.2-3.1,1.2s-2.3-0.5-3.1-1.2c-0.9-0.7-2-1.5-4-1.5s-3,0.8-4,1.5c-0.8,0.7-1.6,1.2-3.1,1.2s-2.3-0.5-3.1-1.2
			c-0.9-0.7-1.9-1.5-4-1.5c-2,0-3,0.8-4,1.5c-0.8,0.7-1.6,1.2-3.1,1.2s-2.3-0.5-3.1-1.2c-0.8-0.6-1.7-1.3-3.3-1.5v-6.1h41.7
			L74.3,66.8L74.3,66.8z"/>
		<path d="M52.8,43.9C53,44,53.3,44,53.6,44c1.2,0,2.5-1,3.1-2.3C57,41,57,40,57,39.9c0-3.5-2.7-5.1-2.7-5.1c-0.2-0.1-0.5-0.1-0.7,0
			c-0.2,0.1-0.3,0.3-0.3,0.6c0.1,2.3-0.6,3.5-0.9,3.8l0,0c-0.5,0.6-0.7,1-0.8,1.2c-0.4,0.9-0.3,1.6-0.1,2.1
			C51.6,43.2,52.1,43.6,52.8,43.9z M52.7,41L52.7,41c0.1-0.1,0.2-0.3,0.6-0.8c0.4-0.5,1-1.5,1.2-3.2c0.5,0.6,1.1,1.6,1.1,3.1
			c0,0.2-0.1,0.8-0.2,1.2c-0.5,1-1.6,1.6-2,1.4c-0.3-0.1-0.5-0.4-0.7-0.6C52.5,41.8,52.5,41.5,52.7,41z"/>
	</g>
</g>
<g id="Ebene_3" class="st0">
	<g id="XMLID_57_" class="st1">
		<path id="XMLID_58_" d="M60.5,75.1c2,0.2,3.7,0.6,3.7,0.6c-3.9-2.2-3.8-10-3.8-10c0.7-15.1-9.3-14.3-9.3-14.3l0,0l0,0
			c0,0-10-0.8-9.3,14.3c0,0,0.1,7.8-3.8,10c0,0,1.1-0.1,2.5-0.1c-4,1.8-6.8,5.8-6.8,10.5c0,6.4,5.2,5.2,11.5,5.2H57
			c6.4,0,11.5,1.1,11.5-5.2C68.6,80.9,65.2,76.6,60.5,75.1z M53.8,78.1l-2.7,4.4l-2.7-4.3c-1.9-0.4-3.4-1.3-4-2.5
			c1.6,0.1,2.9,0.4,3.2,1l-1.5-3.3c1.4,1.4,3.1,2.2,4.9,2.2c1.8,0,3.5-0.8,4.8-2.1l-1,2.1c0.3-0.6,1.6-0.7,3.1-0.7
			C57.8,76.4,56.1,77.6,53.8,78.1z M58.8,64.2c-0.2,2-0.7,3.8-1.4,5.4c-1.4,2.8-3.7,4.6-6.2,4.6c-3.9,0-7.1-4.2-7.6-9.7
			c0,0,3.1-0.5,4.9-1.2c0,0,3.3-1.1,7.4-4c0,0,0,0,0.1,0c0,0,0.1,0.1,0.2,0.3c0.4,0.6,1.1,2.4-0.3,3.2l2.6,0.3l0,0l0.5,0.1
			C58.8,63.5,58.8,63.9,58.8,64.2z"/>
	</g>
	<g id="XMLID_18_" class="st1">
		<path id="XMLID_19_" d="M85.1,74.3c1.5,0.2,2.9,0.4,2.9,0.4c-3.1-1.7-3-7.8-3-7.8c0.5-11.7-7.2-11.1-7.2-11.1l0,0l0,0
			c0,0-7.7-0.6-7.2,11.1c0,0,0.1,6.1-3,7.8c0,0,0.8-0.1,1.9-0.1c-3.1,1.4-5.3,4.5-5.3,8.2c0,5,4,4.1,9,4.1h9.2c5,0,9,0.9,9-4.1
			C91.3,78.8,88.7,75.4,85.1,74.3z M79.8,76.6L77.7,80l-2.1-3.4c-1.5-0.3-2.7-1-3.1-1.9c1.2,0.1,2.2,0.3,2.5,0.8l-1.1-2.6
			c1.1,1.1,2.4,1.7,3.8,1.7s2.7-0.6,3.8-1.7l-0.8,1.7c0.3-0.4,1.3-0.6,2.5-0.5C83,75.3,81.7,76.2,79.8,76.6z M83.7,65.8
			c-0.1,1.6-0.5,3-1.1,4.2c-1.1,2.2-2.9,3.6-4.8,3.6c-3,0-5.5-3.3-5.9-7.6c0,0,2.4-0.4,3.8-1c0,0,2.6-0.9,5.8-3.1l0,0
			c0,0,0.1,0.1,0.1,0.2c0.3,0.5,0.9,1.9-0.2,2.5l2,0.3l0,0l0.4,0.1C83.8,65.2,83.8,65.5,83.7,65.8z"/>
	</g>
	<g id="XMLID_23_" class="st1">
		<path id="XMLID_28_" class="st2" d="M22.8,72.4c-3.1,0-5.7-3.4-6.1-7.8c0.3,0.1,0.6,0.2,1,0.5c0,0-0.7-4.1,0.8-4.7c0,0,2,1,4.4,1
			c2.3-0.1,4.4-1,4.4-1c1.5,0.6,0.8,4.7,0.8,4.7c0.4-0.3,0.7-0.4,1-0.5C28.5,69,25.9,72.4,22.8,72.4z"/>
		<path id="XMLID_25_" d="M29.8,63.7c0-0.2,0-0.3,0-0.5c0-0.4,0-0.8-0.1-1.1c-0.5-3.6-3.4-6.3-7-6.3s-6.5,2.7-7,6.3
			c-0.1,0.4-0.1,0.7-0.1,1.1c0,0.2,0,0.3,0,0.5s0,0.4,0.1,0.7c0,0.1,0,0.1,0,0.2c0.4,5,3.4,8.9,7,8.9s6.5-3.9,7-8.9
			c0-0.1,0-0.1,0-0.2C29.8,64.2,29.8,63.9,29.8,63.7z M27.9,65.1c0.4-0.3,0.7-0.4,1-0.5c-0.4,4.4-3,7.8-6.1,7.8s-5.7-3.4-6.1-7.8
			c0.3,0.1,0.6,0.2,1,0.5c0,0-0.7-4.1,0.8-4.7c0,0,2,1,4.4,1c2.3-0.1,4.4-1,4.4-1C28.6,61,27.9,65.1,27.9,65.1z"/>
		<path id="XMLID_24_" d="M16.7,72.6L16.7,72.6c0.2,0,0.3,0,0.4-0.1l0,0v0.1c0,0.2,0.1,0.4,0.2,0.6c0.7,1.7,2.9,5,4.2,6.9l0.3-3.9
			c-0.4-0.2-0.7-0.5-0.9-0.9c-0.2-0.3-0.2-0.6-0.2-0.9c0,0,1,0.4,2,0.4c0.1,0,0.1,0,0.2,0s0.1,0,0.2,0c1,0,2-0.4,2-0.4
			c0,0.3-0.1,0.6-0.2,0.9c-0.2,0.4-0.5,0.7-0.9,0.9l0.3,3.9c1.3-1.9,3.5-5.1,4.2-6.9c0.1-0.2,0.2-0.4,0.2-0.6v-0.1l0,0
			c0.1,0,0.3,0,0.4,0l0,0c4.5,0.6,8,4.5,8,9.2c0,5.2-4.2,5.1-9.3,5.1H23h-5c-5.2,0-9.3,0-9.3-5.1C8.7,77.1,12.1,73.2,16.7,72.6z"/>
	</g>
</g>
<g id="Ebene_4" class="st0">
	<g id="XMLID_52_" class="st1">
		<path id="XMLID_49_" d="M69.8,40.9l-3.2,3.8l0.9,5.6c0.1,0.9-0.3,1.8-1.1,2.2l-5,2.5c2.3,1.9,4.3,3.7,4.3,3.7s4.4-10,5-17.2
			c-0.2-0.1-0.4-0.3-0.6-0.4C70,41,69.9,41,69.8,40.9z"/>
		<path id="XMLID_48_" d="M58.3,51.9l4.9-2.5l-0.5-3.1L62,45.9l-4.8,6c0.2,0.1,0.4,0.2,0.6,0.4C57.9,52.1,58.1,52,58.3,51.9z"/>
		<path id="XMLID_36_" d="M60.1,41.5l1.8-7.1c0-0.1,0-0.2,0-0.5C55.4,36.9,47,47.5,47,47.5s3.2,1.1,6.2,2.5L60.1,41.5
			C60.1,41.6,60.1,41.5,60.1,41.5z"/>
		<ellipse id="XMLID_35_" cx="69.5" cy="32" rx="3" ry="3"/>
		<path id="XMLID_34_" d="M76.5,36c-0.6-0.4-1.3-0.3-1.7,0.3c-0.9,1.2-1.6,2-2.1,2.4c-0.3,0.2-0.5,0.3-0.6,0.4
			c-0.1,0-0.1,0.1-0.2,0.1c0,0-0.1-0.1-0.1-0.2c-0.1-0.2-0.2-0.5-0.3-0.7c0-0.1,0-0.2-0.1-0.3v-0.1l0,0c-0.1-0.5-0.3-0.8-0.7-1
			c-0.1,0-0.1-0.1-0.2-0.1l-5.9-3c0.1-0.8,0.3-2.1,0.9-3.7c0.8-2.4,2.4-5.1,5.3-7.2c0.5-0.4,0.7-1.2,0.3-1.7
			c-0.4-0.5-1.2-0.7-1.7-0.3c-3.5,2.5-5.3,5.9-6.2,8.6c-0.9,2.6-1,4.6-1,4.9l-1.8,7.2l-0.1,0.1L50.1,54.3c-0.6,0.8-0.5,1.9,0.3,2.6
			c0.3,0.3,0.7,0.4,1.2,0.4s1.1-0.2,1.4-0.7l9-11l1,0.5l0.5,3.4l-5,2.6c-0.9,0.5-1.3,1.6-0.8,2.5c0.3,0.6,1,1,1.6,1
			c0.3,0,0.6-0.1,0.8-0.2l6.2-3.2c0.7-0.4,1.1-1.1,1-1.9l-0.9-5.7l3.5-4.1c0.1,0.2,0.2,0.3,0.4,0.5c0.4,0.4,1,0.7,1.7,0.7l0,0
			c0.4,0,0.8-0.1,1.2-0.3c0.6-0.3,1.1-0.7,1.7-1.3c0.6-0.6,1.2-1.4,1.9-2.4C77.2,37.2,77,36.4,76.5,36z"/>
		<path id="XMLID_33_" d="M53.1,60.2c-0.6-0.4-2.7,1.5-4.5,4.4c-5.7,8.9-10.9,18.1-15.7,27.5c-1.5,3.1-1.4,3.1,0.3,0.2
			c5.4-9,11.1-17.8,17.2-26.3C52.5,63.2,53.7,60.6,53.1,60.2z"/>
		<path id="XMLID_32_" d="M36.1,92.9c-0.7,0.2-0.9,1.1,0,0.9c1.2-0.3,2.3-0.1,3.2,0.8c0.8,0.8,1.1,1.9,1.2,3c0,1-0.2,2-0.9,2.7
			c-0.8,0.8-2.1,0.6-3.1,0.2c-0.4-0.2-1.2,0.1-1.1,0.7c0.3,1.5,0.3,3.3-0.9,4.3c-0.9,0.7-2.3,0.8-3.4,0.5c-1.2-0.2-2.4-0.9-3-1.9
			c-0.7-1.2-0.2-2.6,0.7-3.6c0.5-0.5-0.1-0.9-0.6-0.6c-1.1,0.5-2.3,0.8-3.3,0.3c-0.8-0.4-1.2-1.3-1.4-2.1c-0.1-0.8,0-1.7,0.5-2.4
			c0.5-0.7,1.4-0.7,2.2-0.5c0.4,0.1,1.4-0.7,0.8-0.9c-0.9-0.3-1.6-0.8-1.9-1.8c-0.2-0.8,0.1-1.6,0.6-2.2c1.4-1.8,3.8-1,5.2,0.3
			c0.4,0.4,1.6-0.3,1.1-0.7c-2-1.9-5.1-2.2-7.2-0.1c-0.7,0.8-1.2,1.8-1.1,2.9c0.1,0.6,0.4,1.2,0.8,1.6c-1.6,0.5-2.7,2.1-2.4,4
			c0.1,1.2,0.7,2.2,1.8,2.8c0.9,0.5,2,0.5,3.1,0.3c-0.5,0.9-0.8,2-0.3,3c0.5,1.3,1.9,2.1,3.1,2.5c3,1,6.7-0.3,7.1-3.7
			c0.1-0.5,0-0.9,0-1.4c1.1,0.2,2.3,0.1,3.3-0.7c1.1-0.8,1.7-2.2,1.7-3.5c0.1-1.3-0.4-2.7-1.4-3.7C39.3,92.8,37.6,92.6,36.1,92.9z"
			/>
		<path id="XMLID_31_" d="M29.5,95.8c0-0.6-1-0.3-1,0.2c0,2.3,3.2,2.6,4.7,1.5c0.5-0.4-0.1-1-0.6-0.6C31.7,97.6,29.5,97.3,29.5,95.8
			z"/>
	</g>
</g>
<g>
	<path d="M58.4,22.1H26.1v57.6h44.9V34.9L58.4,22.1z M59,25.6l9.1,9.1H59V25.6z M69.1,77.7H28.2V24.2H57v10.4v1v1h12.1V77.7z"/>
	<path d="M53.2,40H44h-0.9H33v6.4v0.9v5.6v0.7v5.6v0.9v6.4h10.1H44h9.2h0.9h10.1v-6.4v-0.9v-5.6v-0.7v-5.6v-0.9V40H54.2H53.2z
		 M44,53.8h9.2v5.4H44V53.8z M53.2,52.7H44v-5.4h9.2V52.7z M43.1,47.3v5.4h-9.2v-5.4H43.1z M34,53.8h9.1v5.4h-9.2L34,53.8L34,53.8z
		 M43.1,65.5h-9.2v-5.4h9.2V65.5z M53.2,65.5H44v-5.4h9.2V65.5z M63.3,65.5h-9.2v-5.4h9.2V65.5z M54.1,59.2v-5.4h9.2v5.4H54.1z
		 M63.3,52.7h-9.2v-5.4h9.2V52.7z"/>
</g>
</svg>
