
<svg width="148px" height="223px" viewBox="30 13 148 223" version="1.1" xmlns="http://www.w3.org/2000/svg" xmlns:xlink="http://www.w3.org/1999/xlink">
    <!-- Generator: Sketch 41.2 (35397) - http://www.bohemiancoding.com/sketch -->
    <desc>Created with Sketch.</desc>
    <defs></defs>
    <path d="M33.296,15.256 C32.7199971,15.256 32.432,15.0640019 32.432,14.68 C32.432,14.1039971 32.7199971,13.816 33.296,13.816 L50.576,13.816 C50.9600019,13.816 51.152,14.1039971 51.152,14.68 C51.152,15.0640019 50.9600019,15.256 50.576,15.256 L33.296,15.256 Z M33.296,30.232 C33.103999,30.232 32.912001,30.136001 32.72,29.944 C32.1439971,29.3679971 32.1439971,29.08 32.72,29.08 L50,14.104 C50.3840019,13.7199981 50.7679981,13.7199981 51.152,14.104 C51.7280029,14.6800029 51.7280029,14.968 51.152,14.968 L33.872,29.944 C33.679999,30.136001 33.488001,30.232 33.296,30.232 Z M33.008,30.232 C32.6239981,29.8479981 32.432,29.560001 32.432,29.368 L32.432,14.68 C32.432,14.1039971 32.7199971,13.816 33.296,13.816 C33.6800019,13.816 33.872,14.1039971 33.872,14.68 L33.872,29.368 C33.872,29.9440029 33.5840029,30.232 33.008,30.232 Z M78.224,25.624 L77.936,25.624 L50.288,15.256 C49.9039981,14.8719981 49.807999,14.584001 50,14.392 C50,14.0079981 50.2879971,13.816 50.864,13.816 L78.512,24.184 C78.8960019,24.184 79.088,24.4719971 79.088,25.048 C78.7039981,25.4320019 78.416001,25.624 78.224,25.624 Z M78.224,25.624 C78.416001,25.624 78.607999,25.528001 78.8,25.336 L86.288,15.256 C86.480001,14.8719981 86.3840019,14.4880019 86,14.104 C85.6159981,13.7199981 85.328001,13.8159971 85.136,14.392 L77.648,24.472 C77.648,25.0480029 77.743999,25.336 77.936,25.336 C77.936,25.528001 78.031999,25.624 78.224,25.624 Z M85.712,15.544 L50.576,15.256 C49.9999971,15.256 49.712,15.0640019 49.712,14.68 C49.712,14.1039971 49.9999971,13.816 50.576,13.816 L85.712,14.104 C86.0960019,14.104 86.288,14.2959981 86.288,14.68 C86.288,15.2560029 86.0960019,15.544 85.712,15.544 Z M96.656,39.448 C96.2719981,39.448 96.08,39.2560019 96.08,38.872 L84.848,14.968 C84.848,14.3919971 85.0399981,14.104 85.424,14.104 C85.616001,13.911999 85.9039981,14.0079981 86.288,14.392 L97.52,38.296 C97.52,38.8720029 97.3280019,39.255999 96.944,39.448 L96.656,39.448 Z M96.656,39.448 C96.463999,39.448 96.368,39.352001 96.368,39.16 L77.936,25.336 C77.743999,25.336 77.648,25.0480029 77.648,24.472 C77.840001,24.279999 78.2239971,24.184 78.8,24.184 L97.232,38.008 C97.6160019,38.3920019 97.6160019,38.7759981 97.232,39.16 C97.232,39.352001 97.0400019,39.448 96.656,39.448 Z M45.968,39.736 C45.775999,39.736 45.584001,39.640001 45.392,39.448 L32.72,29.944 C32.1439971,29.944 32.1439971,29.6560029 32.72,29.08 C32.912001,28.887999 33.1999981,28.792 33.584,28.792 L46.256,38.296 C46.6400019,38.8720029 46.736001,39.255999 46.544,39.448 L45.968,39.736 Z M45.968,39.736 L45.68,39.736 C45.2959981,39.736 45.104,39.4480029 45.104,38.872 L49.712,14.392 C50.0960019,14.0079981 50.383999,13.816 50.576,13.816 C51.5360048,13.816 51.7280029,14.1039971 51.152,14.68 L46.544,39.16 C46.544,39.5440019 46.3520019,39.736 45.968,39.736 Z M45.968,39.736 C45.775999,39.736 45.4880019,39.5440019 45.104,39.16 C45.104,38.5839971 45.2959981,38.296 45.68,38.296 L59.504,33.688 C60.0800029,33.1119971 60.368,33.2079962 60.368,33.976 C60.368,34.5520029 60.1760019,34.84 59.792,34.84 L46.256,39.736 L45.968,39.736 Z M59.792,34.84 C59.4079981,34.84 59.120001,34.744001 58.928,34.552 L50,14.968 C49.807999,14.5839981 49.9039981,14.2000019 50.288,13.816 C50.8640029,13.816 51.152,13.911999 51.152,14.104 L60.368,33.976 C60.9440029,34.5520029 60.8480038,34.84 60.08,34.84 L59.792,34.84 Z M59.792,34.84 C59.4079981,34.84 59.120001,34.744001 58.928,34.552 C58.928,33.9759971 59.1199981,33.688 59.504,33.688 L77.936,24.184 C78.128001,23.991999 78.5119971,24.0879981 79.088,24.472 C79.088,25.0480029 78.8960019,25.431999 78.512,25.624 L60.08,34.84 L59.792,34.84 Z M59.504,53.272 C59.1199981,52.8879981 58.928,52.600001 58.928,52.408 L58.928,34.264 C58.928,33.6879971 59.2159971,33.4 59.792,33.4 C60.1760019,33.4 60.368,33.6879971 60.368,34.264 L60.368,52.408 C60.368,52.9840029 60.0800029,53.272 59.504,53.272 Z M59.504,53.272 L59.216,52.984 C59.023999,52.791999 58.928,52.5040019 58.928,52.12 L77.648,24.472 C78.0320019,24.0879981 78.4159981,23.991999 78.8,24.184 C79.1840019,24.5680019 79.1840019,24.9519981 78.8,25.336 L60.368,52.696 C59.9839981,53.0800019 59.696001,53.272 59.504,53.272 Z M59.504,53.272 C59.696001,53.272 59.887999,53.176001 60.08,52.984 C60.4640019,52.5999981 60.4640019,52.2160019 60.08,51.832 L46.256,38.584 C45.8719981,38.391999 45.584001,38.391999 45.392,38.584 C45.0079981,38.9680019 45.0079981,39.255999 45.392,39.448 L59.216,52.984 L59.504,53.272 Z M33.008,65.08 L32.72,65.08 C32.527999,65.08 32.432,64.7920029 32.432,64.216 L45.104,38.584 C45.4880019,38.1999981 45.8719981,38.103999 46.256,38.296 C46.6400019,38.6800019 46.736001,38.967999 46.544,39.16 L33.872,64.792 C33.679999,64.984001 33.3920019,65.08 33.008,65.08 Z M33.008,65.08 C32.6239981,65.08 32.432,64.8880019 32.432,64.504 L32.432,26.776 C32.432,26.3919981 32.7199971,26.2 33.296,26.2 C33.6800019,26.2 33.872,26.3919981 33.872,26.776 L33.872,64.504 C33.872,64.8880019 33.5840029,65.08 33.008,65.08 Z M46.544,75.16 L46.256,75.16 L32.72,65.08 C32.527999,64.887999 32.432,64.5040029 32.432,63.928 C32.8160019,63.5439981 33.1999981,63.5439981 33.584,63.928 L47.12,74.008 C47.6960029,74.008 47.6960029,74.2959971 47.12,74.872 C47.12,75.064001 46.9280019,75.16 46.544,75.16 Z M46.544,75.16 C46.1599981,75.16 45.968,74.9680019 45.968,74.584 L45.104,38.872 C45.104,38.4879981 45.3919971,38.296 45.968,38.296 C46.3520019,38.296 46.544,38.4879981 46.544,38.872 L47.408,74.584 C47.408,74.9680019 47.1200029,75.16 46.544,75.16 Z M46.544,75.16 L46.256,75.16 C46.063999,74.967999 45.968,74.5840029 45.968,74.008 L58.928,52.12 C59.3120019,51.7359981 59.6959981,51.639999 60.08,51.832 C60.272001,52.024001 60.368,52.3119981 60.368,52.696 L47.408,74.872 C47.215999,75.064001 46.9280019,75.16 46.544,75.16 Z M59.504,53.272 C59.696001,53.272 59.792,53.176001 59.792,52.984 L96.944,39.448 C97.3280019,39.0639981 97.52,38.776001 97.52,38.584 C97.327999,38.1999981 96.9440029,38.008 96.368,38.008 L59.504,51.832 C59.1199981,51.832 58.928,52.1199971 58.928,52.696 C58.928,53.0800019 59.1199981,53.272 59.504,53.272 Z M33.296,102.232 C33.488001,102.232 33.679999,102.136001 33.872,101.944 L47.408,74.872 C47.408,74.2959971 47.312001,73.912001 47.12,73.72 C46.5439971,73.72 46.160001,73.9119981 45.968,74.296 L32.72,101.08 C32.527999,101.464002 32.6239981,101.847998 33.008,102.232 L33.296,102.232 Z M33.296,102.232 C32.7199971,102.232 32.432,102.040002 32.432,101.656 L32.432,64.504 C32.432,63.9279971 32.6239981,63.64 33.008,63.64 C33.5840029,63.64 33.872,63.9279971 33.872,64.504 L33.872,101.368 C33.872,101.944003 33.6800019,102.232 33.296,102.232 Z M57.488,100.216 C57.1039981,100.216 56.912,100.024002 56.912,99.64 L45.968,74.872 C45.968,74.2959971 46.063999,73.912001 46.256,73.72 C46.8320029,73.72 47.215999,73.9119981 47.408,74.296 L58.064,99.064 C58.256001,99.4480019 58.1600019,99.8319981 57.776,100.216 L57.488,100.216 Z M33.296,102.232 C33.103999,102.232 32.8160019,102.040002 32.432,101.656 C32.432,101.079997 32.7199971,100.792 33.296,100.792 L57.488,98.776 C58.0640029,98.776 58.352,98.9679981 58.352,99.352 C58.352,99.9280029 58.0640029,100.216 57.488,100.216 L33.296,102.232 Z M46.544,75.16 C46.1599981,75.16 45.968,74.9680019 45.968,74.584 C45.968,74.0079971 46.1599981,73.72 46.544,73.72 L65.264,72.856 C65.6480019,72.856 65.84,73.0479981 65.84,73.432 C65.84,74.0080029 65.6480019,74.296 65.264,74.296 L46.832,75.16 L46.544,75.16 Z M65.264,74.296 C65.071999,74.296 64.7840019,74.1040019 64.4,73.72 L58.928,52.696 C58.928,52.1199971 59.1199981,51.832 59.504,51.832 C60.0800029,51.2559971 60.368,51.3519962 60.368,52.12 L65.84,73.432 C66.032001,73.624001 65.8400029,73.9119981 65.264,74.296 Z M57.488,100.216 L57.2,100.216 C56.8159981,99.8319981 56.719999,99.544001 56.912,99.352 L64.4,73.432 C64.592001,73.0479981 64.9759971,72.856 65.552,72.856 C66.3200038,72.856 66.4160029,73.1439971 65.84,73.72 L58.352,99.64 C57.9679981,100.024002 57.680001,100.216 57.488,100.216 Z M79.088,87.544 C78.895999,87.544 78.8,87.448001 78.8,87.256 L64.688,74.008 C64.3039981,73.815999 64.3039981,73.5280019 64.688,73.144 C64.880001,72.951999 65.2639971,72.856 65.84,72.856 L79.664,86.104 C80.0480019,86.4880019 80.0480019,86.8719981 79.664,87.256 C79.664,87.448001 79.4720019,87.544 79.088,87.544 Z M57.488,100.216 C57.295999,100.216 57.2,100.168 57.2,100.072 C57.2,99.9759995 57.104001,99.928 56.912,99.928 C56.719999,99.5439981 56.8159981,99.1600019 57.2,98.776 L78.8,86.104 C79.3760029,85.5279971 79.664,85.6239962 79.664,86.392 C80.2400029,86.9680029 80.2400029,87.256 79.664,87.256 L57.776,100.216 L57.488,100.216 Z M79.664,111.16 C79.2799981,111.16 79.088,110.968002 79.088,110.584 L78.512,86.68 C78.512,86.2959981 78.7039981,86.104 79.088,86.104 C79.6640029,86.104 79.952,86.2959981 79.952,86.68 L80.528,110.584 C80.528,110.968002 80.2400029,111.16 79.664,111.16 Z M79.664,111.16 C80.0480019,111.16 80.24,111.064001 80.24,110.872 C80.8160029,110.295997 80.7200038,110.008 79.952,110.008 L57.776,98.776 C57.3919981,98.776 57.104001,98.871999 56.912,99.064 C56.719999,99.4480019 56.8159981,99.8319981 57.2,100.216 L79.376,111.16 L79.664,111.16 Z M65.264,74.296 C65.071999,74.296 64.880001,74.200001 64.688,74.008 C64.3039981,73.815999 64.3039981,73.5280019 64.688,73.144 L79.088,53.56 C79.4720019,53.1759981 79.8559981,53.1759981 80.24,53.56 C80.432001,53.9440019 80.432001,54.231999 80.24,54.424 L65.84,74.008 C65.647999,74.008 65.552,74.0559995 65.552,74.152 C65.552,74.2480005 65.456001,74.296 65.264,74.296 Z M79.088,87.544 C78.7039981,87.544 78.512,87.2560029 78.512,86.68 L79.088,54.136 C79.088,53.5599971 79.2799981,53.272 79.664,53.272 C80.2400029,53.272 80.528,53.5599971 80.528,54.136 L79.952,86.68 C79.952,87.2560029 79.6640029,87.544 79.088,87.544 Z M79.664,54.712 L59.504,53.272 C59.1199981,52.8879981 58.928,52.600001 58.928,52.408 C58.928,51.8319971 59.2159971,51.639999 59.792,51.832 L79.664,53.272 C80.2400029,53.272 80.528,53.5599971 80.528,54.136 C80.528,54.5200019 80.2400029,54.712 79.664,54.712 Z M79.664,54.712 C79.471999,54.712 79.280001,54.616001 79.088,54.424 C78.895999,54.231999 78.9919981,53.9440019 79.376,53.56 L96.368,38.296 C96.560001,38.103999 96.8479981,38.103999 97.232,38.296 C97.424001,38.6800019 97.424001,38.967999 97.232,39.16 L80.24,54.712 L79.664,54.712 Z M104.72,55.576 C104.335998,55.576 104.144,55.480001 104.144,55.288 L96.08,39.16 C95.887999,38.7759981 95.9839981,38.3920019 96.368,38.008 C96.9440029,38.008 97.232,38.103999 97.232,38.296 L105.296,54.712 C105.680002,55.0960019 105.584003,55.383999 105.008,55.576 L104.72,55.576 Z M104.72,55.576 L79.664,54.712 C79.2799981,54.712 79.088,54.5200019 79.088,54.136 C79.088,53.5599971 79.2799981,53.272 79.664,53.272 L104.72,54.136 C105.296003,54.136 105.584,54.4239971 105.584,55 C105.584,55.3840019 105.296003,55.576 104.72,55.576 Z M121.424,63.64 L120.848,63.64 L104.432,55.576 C103.663996,55.576 103.567997,55.2880029 104.144,54.712 C104.528002,54.3279981 104.815999,54.231999 105.008,54.424 L121.712,62.2 C121.904001,62.392001 122,62.7759971 122,63.352 L121.424,63.64 Z M127.184,82.36 C126.991999,82.36 126.704002,82.1680019 126.32,81.784 L120.56,63.064 C120.56,62.6799981 120.751998,62.392001 121.136,62.2 C121.712003,62.2 122,62.3919981 122,62.776 L127.76,81.496 C127.952001,81.688001 127.856002,81.9759981 127.472,82.36 L127.184,82.36 Z M121.424,100.504 L121.136,100.504 C120.751998,100.311999 120.56,100.024002 120.56,99.64 L126.32,81.496 C126.512001,81.1119981 126.895997,80.92 127.472,80.92 C127.856002,81.3040019 127.952001,81.591999 127.76,81.784 L122,99.928 C122,100.312002 121.808002,100.504 121.424,100.504 Z M107.888,109.72 L108.176,109.432 L121.712,100.504 C121.904001,100.311999 122,99.9280029 122,99.352 C121.807999,99.159999 121.424003,99.064 120.848,99.064 L107.6,108.28 C107.023997,108.664002 106.927998,109.047998 107.312,109.432 L107.888,109.72 Z M92.912,112.312 C92.5279981,112.312 92.336,112.120002 92.336,111.736 C92.336,111.159997 92.5279981,110.872 92.912,110.872 L107.888,108.28 C108.272002,108.28 108.464,108.471998 108.464,108.856 C109.040003,109.432003 108.848005,109.72 107.888,109.72 L93.2,112.312 L92.912,112.312 Z M92.912,112.312 L79.664,111.16 C79.2799981,111.16 79.088,110.968002 79.088,110.584 C79.088,110.007997 79.2799981,109.72 79.664,109.72 L92.912,110.872 C93.4880029,110.872 93.776,111.063998 93.776,111.448 C93.776,112.024003 93.4880029,112.312 92.912,112.312 Z M96.656,39.448 C96.463999,39.448 96.272001,39.352001 96.08,39.16 C95.5039971,38.5839971 95.5999962,38.296 96.368,38.296 L107.312,27.928 C107.504001,27.735999 107.887997,27.8319981 108.464,28.216 C108.656001,28.6000019 108.656001,28.887999 108.464,29.08 L97.232,39.16 C97.039999,39.352001 96.848001,39.448 96.656,39.448 Z M107.888,29.368 C107.695999,29.368 107.6,29.272001 107.6,29.08 L85.136,15.256 C84.7519981,15.063999 84.7519981,14.7760019 85.136,14.392 C85.136,13.6239962 85.4239971,13.5279971 86,14.104 L108.176,27.928 C108.560002,28.3120019 108.656001,28.6959981 108.464,29.08 C108.271999,29.272001 108.080001,29.368 107.888,29.368 Z M85.712,15.544 C85.1359971,15.544 84.848,15.2560029 84.848,14.68 C84.848,14.2959981 85.1359971,14.104 85.712,14.104 L108.752,13.816 C109.136002,13.816 109.328,14.0079981 109.328,14.392 C109.328,14.9680029 109.136002,15.256 108.752,15.256 L85.712,15.544 Z M107.888,29.368 C107.311997,29.368 107.024,29.0800029 107.024,28.504 L107.888,14.392 C107.888,14.0079981 108.175997,13.816 108.752,13.816 C109.136002,13.816 109.328,14.0079981 109.328,14.392 L108.464,28.504 C108.464,29.0800029 108.272002,29.368 107.888,29.368 Z M104.72,55.576 C104.335998,55.576 104.144,55.480001 104.144,55.288 C103.951999,54.9039981 104.143997,54.5200019 104.72,54.136 L136.688,45.208 C137.264003,45.015999 137.552,45.1119981 137.552,45.496 C137.744001,45.8800019 137.648002,46.2639981 137.264,46.648 L105.008,55.576 L104.72,55.576 Z M136.976,46.648 L96.656,39.448 C96.2719981,39.448 96.08,39.1600029 96.08,38.584 C96.08,38.1999981 96.3679971,38.008 96.944,38.008 L137.264,45.208 C137.648002,45.208 137.84,45.4959971 137.84,46.072 C137.455998,46.4560019 137.168001,46.648 136.976,46.648 Z M136.976,46.648 C137.360002,46.648 137.552,46.4560019 137.552,46.072 C137.936002,45.6879981 137.840003,45.400001 137.264,45.208 L108.176,27.928 C107.983999,27.735999 107.696002,27.8319981 107.312,28.216 C106.735997,28.7920029 106.831996,29.08 107.6,29.08 L136.688,46.36 C136.688,46.552001 136.783999,46.648 136.976,46.648 Z M130.928,17.848 L108.464,15.256 C108.079998,14.8719981 107.888,14.584001 107.888,14.392 C107.888,13.4319952 108.175997,13.2399971 108.752,13.816 L131.216,16.408 C131.600002,16.7920019 131.792,17.079999 131.792,17.272 C131.792,17.6560019 131.504003,17.848 130.928,17.848 Z M107.888,29.368 L108.176,29.08 L131.216,17.848 C131.984004,17.848 132.080003,17.5600029 131.504,16.984 C131.504,16.2159962 131.216003,16.1199971 130.64,16.696 L107.6,27.928 C107.215998,28.3120019 107.119999,28.599999 107.312,28.792 C107.312,29.1760019 107.503998,29.368 107.888,29.368 Z M151.088,27.352 C151.472002,27.352 151.759999,27.256001 151.952,27.064 C151.952,26.4879971 151.760002,26.2 151.376,26.2 L131.216,16.696 C131.023999,16.503999 130.736002,16.5999981 130.352,16.984 C129.775997,17.5600029 129.871996,17.848 130.64,17.848 L150.8,27.352 L151.088,27.352 Z M121.424,63.64 L121.712,63.352 L137.552,46.36 C137.936002,45.9759981 137.936002,45.5920019 137.552,45.208 C137.167998,44.8239981 136.784002,44.8239981 136.4,45.208 L120.848,62.488 C120.463998,62.8720019 120.463998,63.2559981 120.848,63.64 L121.424,63.64 Z M136.976,46.648 C136.591998,46.648 136.4,46.4560019 136.4,46.072 L130.352,17.272 C130.352,16.8879981 130.543998,16.600001 130.928,16.408 C131.120001,16.408 131.407998,16.5999981 131.792,16.984 L137.84,45.784 C137.84,45.976001 137.648002,46.2639981 137.264,46.648 L136.976,46.648 Z M136.976,46.648 C137.168001,46.648 137.359999,46.552001 137.552,46.36 L151.664,27.064 C151.856001,26.871999 151.856001,26.5840019 151.664,26.2 C151.279998,25.8159981 150.896002,25.8159981 150.512,26.2 L136.4,45.496 C136.015998,45.8800019 136.111997,46.167999 136.688,46.36 L136.976,46.648 Z M141.008,80.92 C140.623998,80.92 140.432,80.7280019 140.432,80.344 L136.4,45.784 C136.015998,45.3999981 136.207996,45.208 136.976,45.208 C137.168001,45.015999 137.455998,45.2079971 137.84,45.784 L141.872,80.056 C141.872,80.6320029 141.680002,80.92 141.296,80.92 L141.008,80.92 Z M127.184,82.36 C126.607997,82.36 126.32,82.1680019 126.32,81.784 C126.32,81.2079971 126.607997,80.92 127.184,80.92 L141.008,79.48 C141.584003,79.48 141.872,79.6719981 141.872,80.056 C141.872,80.6320029 141.680002,80.92 141.296,80.92 L127.184,82.36 Z M127.184,82.36 L126.896,82.36 C126.511998,82.36 126.32,82.0720029 126.32,81.496 L136.4,45.496 C136.4,45.1119981 136.687997,45.015999 137.264,45.208 C137.648002,45.208 137.744001,45.4959971 137.552,46.072 L127.76,81.784 C127.76,82.1680019 127.568002,82.36 127.184,82.36 Z M163.76,39.736 C163.567999,39.736 163.472,39.640001 163.472,39.448 L150.8,27.352 C150.415998,26.9679981 150.415998,26.5840019 150.8,26.2 C150.992001,26.007999 151.279998,26.007999 151.664,26.2 L164.336,38.584 C164.528001,38.9680019 164.528001,39.255999 164.336,39.448 C164.336,39.640001 164.144002,39.736 163.76,39.736 Z M159.44,64.216 C159.055998,64.023999 158.864,63.7360019 158.864,63.352 L163.184,38.872 C163.184,38.4879981 163.471997,38.296 164.048,38.296 C164.432002,38.296 164.624,38.5839971 164.624,39.16 L160.304,63.64 C159.919998,64.0240019 159.632001,64.216 159.44,64.216 Z M159.44,64.216 L159.152,63.928 L136.688,46.36 C136.111997,46.167999 136.015998,45.8800019 136.4,45.496 C136.784002,45.1119981 137.167998,45.015999 137.552,45.208 L160.016,62.776 C160.400002,63.1600019 160.400002,63.5439981 160.016,63.928 C159.823999,64.120001 159.632001,64.216 159.44,64.216 Z M159.44,64.216 C159.055998,64.216 158.864,64.0240019 158.864,63.64 L150.512,27.064 C150.512,26.4879971 150.703998,26.2 151.088,26.2 C151.664003,25.6239971 151.952,25.7199962 151.952,26.488 L160.304,63.352 C160.304,63.544001 160.112002,63.8319981 159.728,64.216 L159.44,64.216 Z M141.008,80.92 C141.392002,80.92 141.584,80.824001 141.584,80.632 L160.016,63.928 C160.400002,63.5439981 160.400002,63.1600019 160.016,62.776 C159.631998,62.583999 159.344001,62.583999 159.152,62.776 L140.72,79.768 C140.527999,79.960001 140.432,80.2479981 140.432,80.632 C140.624001,80.824001 140.815999,80.92 141.008,80.92 Z M121.424,100.504 L121.712,100.216 L141.584,80.632 C141.776001,80.439999 141.776001,80.1520019 141.584,79.768 C141.199998,79.575999 140.912001,79.575999 140.72,79.768 L120.848,99.352 C120.463998,99.7360019 120.463998,100.023999 120.848,100.216 C120.848,100.408001 121.039998,100.504 121.424,100.504 Z M176.432,66.808 L176.144,66.808 L159.44,64.216 C159.055998,64.023999 158.864,63.7360019 158.864,63.352 C158.864,62.7759971 159.151997,62.583999 159.728,62.776 L176.432,65.368 C176.816002,65.560001 177.008,65.8479981 177.008,66.232 C177.008,66.6160019 176.816002,66.808 176.432,66.808 Z M171.824,53.56 L171.248,53.272 L163.184,39.448 C163.184,38.8719971 163.279999,38.488001 163.472,38.296 C164.048003,38.296 164.431999,38.391999 164.624,38.584 L172.4,52.408 C172.592001,52.7920019 172.496002,53.1759981 172.112,53.56 L171.824,53.56 Z M176.432,66.808 C176.047998,66.808 175.760001,66.712001 175.568,66.52 L170.96,52.984 C170.96,52.791999 171.151998,52.5040019 171.536,52.12 C172.112003,52.12 172.4,52.3119981 172.4,52.696 L177.008,65.944 C177.584003,66.5200029 177.488004,66.808 176.72,66.808 L176.432,66.808 Z M159.44,64.216 C159.632001,64.216 159.728,64.1680005 159.728,64.072 C159.728,63.9759995 159.823999,63.928 160.016,63.928 L172.112,53.272 C172.496002,52.8879981 172.592001,52.600001 172.4,52.408 C172.015998,52.0239981 171.632002,52.0239981 171.248,52.408 L159.152,62.776 C158.575997,63.3520029 158.479998,63.735999 158.864,63.928 C159.056001,63.928 159.247999,64.023999 159.44,64.216 Z M176.144,85.816 C175.567997,85.816 175.28,85.6240019 175.28,85.24 L175.568,66.232 C175.568,65.6559971 175.855997,65.368 176.432,65.368 C176.816002,65.368 177.008,65.6559971 177.008,66.232 L176.72,85.24 C176.72,85.6240019 176.528002,85.816 176.144,85.816 Z M176.144,85.816 C175.759998,85.816 175.568,85.720001 175.568,85.528 L158.864,63.928 C158.671999,63.5439981 158.767998,63.1600019 159.152,62.776 C159.536002,62.3919981 159.823999,62.4879971 160.016,63.064 L176.72,84.664 C176.912001,85.0480019 176.816002,85.4319981 176.432,85.816 L176.144,85.816 Z M169.232,111.16 C168.847998,111.16 168.656,110.872003 168.656,110.296 L175.28,84.952 C175.664002,84.5679981 175.951999,84.376 176.144,84.376 C176.720003,84.7600019 176.912001,85.047999 176.72,85.24 L170.096,110.584 C169.903999,110.968002 169.616002,111.16 169.232,111.16 Z M169.232,111.16 C169.039999,111.16 168.848001,111.064001 168.656,110.872 L158.576,92.728 C157.999997,92.1519971 158.095996,91.864 158.864,91.864 C159.440003,91.2879971 159.728,91.3839962 159.728,92.152 L170.096,110.296 C170.096,110.680002 170.000001,110.967999 169.808,111.16 L169.232,111.16 Z M159.152,93.016 C158.767998,93.016 158.576,92.920001 158.576,92.728 C157.999997,92.1519971 158.095996,91.864 158.864,91.864 L175.856,84.664 C176.432003,84.0879971 176.72,84.1839962 176.72,84.952 C177.296003,85.5280029 177.200004,85.816 176.432,85.816 L159.44,93.016 L159.152,93.016 Z M159.152,93.016 C158.767998,93.016 158.576,92.8240019 158.576,92.44 L158.864,63.352 C158.864,62.5839962 159.055998,62.3919981 159.44,62.776 C160.016003,62.776 160.304,62.9679981 160.304,63.352 L160.016,92.44 C160.016,92.8240019 159.728003,93.016 159.152,93.016 Z M159.152,93.016 C159.536002,93.016 159.728,92.920001 159.728,92.728 C159.920001,92.535999 159.920001,92.2480019 159.728,91.864 L141.584,79.768 C141.199998,79.3839981 140.816002,79.3839981 140.432,79.768 C140.047998,80.1520019 140.143997,80.5359981 140.72,80.92 L158.864,93.016 L159.152,93.016 Z M158.288,127.864 C157.903998,127.864 157.712,127.576003 157.712,127 L158.576,92.44 C158.576,91.8639971 158.767998,91.576 159.152,91.576 C159.728003,91.576 160.016,91.8639971 160.016,92.44 L159.152,127.288 C159.152,127.672002 158.864003,127.864 158.288,127.864 Z M158.288,127.864 C158.095999,127.864 158,127.768001 158,127.576 C157.231996,127.576 157.135997,127.288003 157.712,126.712 L168.656,110.008 C169.040002,109.623998 169.423998,109.623998 169.808,110.008 C170.000001,110.392002 170.000001,110.679999 169.808,110.872 L158.864,127.576 C158.671999,127.768001 158.480001,127.864 158.288,127.864 Z M139.856,109.72 L139.28,109.72 L120.848,100.504 C120.655999,100.311999 120.56,99.9280029 120.56,99.352 C120.752001,99.159999 121.135997,99.064 121.712,99.064 L140.144,108.28 C140.336001,108.472001 140.432,108.855997 140.432,109.432 L139.856,109.72 Z M139.856,109.72 L139.568,109.72 C139.183998,109.72 138.992,109.432003 138.992,108.856 L140.432,80.344 C140.432,79.7679971 140.623998,79.48 141.008,79.48 C141.584003,79.48 141.872,79.7679971 141.872,80.344 L140.432,109.144 C140.432,109.528002 140.240002,109.72 139.856,109.72 Z M139.856,109.72 L140.144,109.432 L159.728,93.016 C160.112002,92.6319981 160.112002,92.2480019 159.728,91.864 C159.343998,91.671999 159.056001,91.671999 158.864,91.864 L139.28,108.568 C138.703997,108.568 138.703997,108.855997 139.28,109.432 C139.28,109.624001 139.471998,109.72 139.856,109.72 Z M142.16,141.4 C141.967999,141.4 141.776001,141.304001 141.584,141.112 C141.199998,140.919999 141.199998,140.632002 141.584,140.248 L158,126.424 C158.384002,126.424 158.671999,126.519999 158.864,126.712 C159.056001,127.096002 159.056001,127.383999 158.864,127.576 L142.736,141.4 L142.16,141.4 Z M142.16,141.4 C141.775998,141.4 141.584,141.208002 141.584,140.824 L138.992,109.144 C138.992,108.567997 139.183998,108.28 139.568,108.28 C140.144003,108.28 140.432,108.471998 140.432,108.856 L143.024,140.536 C143.024,141.112003 142.736003,141.4 142.16,141.4 Z M142.16,141.4 C142.544002,141.4 142.736,141.208002 142.736,140.824 L160.016,92.728 C160.016,92.1519971 159.824002,91.864 159.44,91.864 C158.863997,91.2879971 158.576,91.3839962 158.576,92.152 L141.584,140.536 C141.007997,141.112003 141.103996,141.4 141.872,141.4 L142.16,141.4 Z M120.272,126.712 C120.464001,126.712 120.655999,126.616001 120.848,126.424 C121.040001,126.231999 121.040001,125.944002 120.848,125.56 L108.464,108.568 C108.079998,108.183998 107.696002,108.087999 107.312,108.28 C106.927998,108.664002 106.927998,109.047998 107.312,109.432 L119.696,126.424 C119.888001,126.424 120.079999,126.519999 120.272,126.712 Z M120.272,126.712 C119.887998,126.712 119.696,126.424003 119.696,125.848 L120.56,99.64 C120.56,99.2559981 120.847997,99.064 121.424,99.064 C121.808002,99.064 122,99.3519971 122,99.928 L121.136,125.848 C121.136,126.424003 120.848003,126.712 120.272,126.712 Z M120.272,126.712 C120.464001,126.712 120.655999,126.616001 120.848,126.424 L140.144,109.432 C140.336001,109.239999 140.336001,108.952002 140.144,108.568 C140.144,107.991997 139.856003,107.991997 139.28,108.568 L119.984,125.272 C119.407997,125.848003 119.311998,126.231999 119.696,126.424 C119.888001,126.616001 120.079999,126.712 120.272,126.712 Z M142.16,141.4 C142.544002,141.4 142.736,141.304001 142.736,141.112 C143.312003,140.535997 143.216004,140.248 142.448,140.248 L120.848,125.272 C120.463998,125.079999 120.080002,125.175998 119.696,125.56 C119.119997,126.136003 119.215996,126.424 119.984,126.424 L141.872,141.4 L142.16,141.4 Z M96.368,132.76 C96.175999,132.76 95.8880019,132.568002 95.504,132.184 L92.336,111.448 C92.336,111.063998 92.5279981,110.872 92.912,110.872 C93.104001,110.679999 93.3919981,110.871997 93.776,111.448 L96.944,131.896 C97.5200029,132.472003 97.3280048,132.76 96.368,132.76 Z M96.368,132.76 L96.08,132.76 C95.6959981,132.375998 95.599999,131.992002 95.792,131.608 L107.312,108.568 C107.312,107.799996 107.599997,107.703997 108.176,108.28 C108.560002,108.664002 108.656001,108.951999 108.464,109.144 L96.944,132.472 C96.751999,132.664001 96.560001,132.76 96.368,132.76 Z M96.368,132.76 C96.175999,132.76 95.8880019,132.568002 95.504,132.184 C95.504,131.607997 95.6959981,131.32 96.08,131.32 L120.272,125.272 C120.656002,125.272 120.943999,125.463998 121.136,125.848 C121.136,126.040001 120.944002,126.327998 120.56,126.712 L96.368,132.76 Z M112.496,149.752 L111.344,149.752 L95.792,132.472 C95.4079981,132.279999 95.4079981,131.992002 95.792,131.608 C96.1760019,131.223998 96.5599981,131.223998 96.944,131.608 L112.496,148.6 C112.880002,148.984002 112.880002,149.367998 112.496,149.752 Z M111.92,149.752 C111.535998,149.752 111.344,149.656001 111.344,149.464 C110.959998,148.887997 111.151996,148.6 111.92,148.6 L141.872,139.96 C142.448003,139.96 142.736,140.151998 142.736,140.536 C143.312003,141.112003 143.216004,141.4 142.448,141.4 L112.208,149.752 L111.92,149.752 Z M111.92,150.04 L111.92,149.752 C111.535998,149.752 111.344,149.464003 111.344,148.888 L119.696,125.56 C119.696,124.791996 119.983997,124.695997 120.56,125.272 C120.944002,125.272 121.136,125.559997 121.136,126.136 L112.784,149.464 C112.399998,149.848002 112.112001,150.04 111.92,150.04 Z M80.816,150.328 L79.952,150.328 C79.5679981,149.943998 79.5679981,149.560002 79.952,149.176 L95.792,131.608 C96.1760019,131.223998 96.5599981,131.223998 96.944,131.608 C97.136001,131.992002 97.136001,132.279999 96.944,132.472 L80.816,150.328 Z M80.528,150.328 C79.9519971,150.328 79.664,150.136002 79.664,149.752 C79.664,149.175997 79.9519971,148.888 80.528,148.888 L111.92,148.312 C112.496003,148.312 112.784,148.599997 112.784,149.176 C112.784,149.560002 112.496003,149.752 111.92,149.752 L80.528,150.328 Z M31.28,132.472 C30.7039971,132.472 30.416,132.280002 30.416,131.896 L32.432,101.368 C32.8160019,100.983998 33.103999,100.792 33.296,100.792 C33.8720029,100.792 34.064001,101.079997 33.872,101.656 L31.856,131.896 C31.856,132.280002 31.6640019,132.472 31.28,132.472 Z M31.28,132.472 C30.7039971,132.472 30.416,132.280002 30.416,131.896 C30.416,131.319997 30.7039971,131.032 31.28,131.032 L55.184,131.032 C55.5680019,131.032 55.76,131.319997 55.76,131.896 C55.76,132.280002 55.5680019,132.472 55.184,132.472 L31.28,132.472 Z M55.184,132.472 C54.7999981,132.472 54.608,132.376001 54.608,132.184 L32.72,101.944 C32.3359981,101.559998 32.3359981,101.176002 32.72,100.792 C33.2960029,100.792 33.679999,100.887999 33.872,101.08 L55.76,131.32 C56.1440019,131.704002 56.0480029,132.087998 55.472,132.472 L55.184,132.472 Z M72.752,131.032 C72.3679981,131.032 72.176,130.936001 72.176,130.744 L56.912,99.928 C56.719999,99.5439981 56.8159981,99.1600019 57.2,98.776 C57.7760029,98.776 58.064,98.871999 58.064,99.064 L73.328,130.168 C73.9040029,130.744003 73.8080038,131.032 73.04,131.032 L72.752,131.032 Z M72.752,131.032 C73.1360019,131.032 73.328,130.936001 73.328,130.744 L80.528,110.872 C80.528,110.487998 80.3360019,110.104002 79.952,109.72 C79.3759971,109.72 79.088,109.911998 79.088,110.296 L72.176,130.168 C71.5999971,130.744003 71.6959962,131.032 72.464,131.032 L72.752,131.032 Z M55.184,132.472 C54.6079971,132.472 54.32,132.184003 54.32,131.608 L56.912,99.352 C56.912,98.9679981 57.1039981,98.776 57.488,98.776 C58.0640029,98.776 58.352,99.0639971 58.352,99.64 L55.76,131.896 C55.76,132.280002 55.5680019,132.472 55.184,132.472 Z M65.264,153.208 C64.8799981,153.208 64.592001,153.112001 64.4,152.92 L54.608,132.184 C54.415999,131.799998 54.5119981,131.416002 54.896,131.032 C55.4720029,131.032 55.76,131.127999 55.76,131.32 L65.84,152.344 C66.032001,152.536001 65.9360019,152.823998 65.552,153.208 L65.264,153.208 Z M65.264,153.208 C65.6480019,153.208 65.84,153.112001 65.84,152.92 L73.328,130.744 C73.520001,130.167997 73.4240019,129.88 73.04,129.88 C72.4639971,129.303997 72.176,129.399996 72.176,130.168 L64.4,152.344 C64.4,152.920003 64.5919981,153.208 64.976,153.208 L65.264,153.208 Z M73.328,131.032 L72.176,131.032 C71.7919981,130.647998 71.7919981,130.264002 72.176,129.88 L92.624,110.872 C92.816001,110.679999 93.1039981,110.679999 93.488,110.872 C93.8720019,111.256002 93.8720019,111.639998 93.488,112.024 L73.328,131.032 Z M96.368,132.76 L72.752,131.032 C71.9839962,131.032 71.7919981,130.840002 72.176,130.456 C72.176,129.879997 72.3679981,129.592 72.752,129.592 L96.368,131.32 C96.7520019,131.32 96.944,131.607997 96.944,132.184 C96.944,132.568002 96.7520019,132.76 96.368,132.76 Z M80.24,177.688 C79.8559981,177.303998 79.664,177.016001 79.664,176.824 L79.664,149.752 C79.664,149.175997 79.9519971,148.888 80.528,148.888 C80.9120019,148.888 81.104,149.175997 81.104,149.752 L81.104,176.824 C81.104,177.400003 80.8160029,177.688 80.24,177.688 Z M80.24,177.688 L79.664,177.112 L64.688,152.92 C64.1119971,152.343997 64.1119971,152.056 64.688,152.056 C65.2640029,151.863999 65.647999,151.863999 65.84,152.056 L81.104,176.536 C81.104,176.920002 81.008001,177.207999 80.816,177.4 C80.623999,177.4 80.528,177.448 80.528,177.544 C80.528,177.64 80.432001,177.688 80.24,177.688 Z M65.264,153.208 C64.6879971,153.208 64.4,153.016002 64.4,152.632 C64.4,152.439999 64.5919981,152.152002 64.976,151.768 L80.24,148.888 C80.8160029,148.888 81.104,149.079998 81.104,149.464 C81.104,150.040003 80.9120019,150.328 80.528,150.328 L65.264,153.208 Z M80.528,150.328 C80.1439981,150.328 79.856001,150.232001 79.664,150.04 L72.176,130.744 C71.5999971,130.167997 71.6959962,129.88 72.464,129.88 C73.0400029,129.303997 73.328,129.399996 73.328,130.168 L81.104,149.464 C81.104,150.040003 80.9120019,150.328 80.528,150.328 Z M33.296,156.088 C32.7199971,156.088 32.432,155.800003 32.432,155.224 L30.416,131.896 C30.416,131.319997 30.7039971,131.032 31.28,131.032 C31.6640019,131.032 31.856,131.319997 31.856,131.896 L33.872,155.224 C33.872,155.800003 33.6800019,156.088 33.296,156.088 Z M33.296,156.088 C33.103999,156.088 33.008,156.04 33.008,155.944 C33.008,155.848 32.912001,155.8 32.72,155.8 C32.3359981,155.415998 32.3359981,155.032002 32.72,154.648 L54.608,131.32 C54.9920019,130.935998 55.3759981,130.935998 55.76,131.32 C55.952001,131.704002 55.952001,131.991999 55.76,132.184 L33.872,155.8 L33.296,156.088 Z M50.576,167.896 C50.383999,167.896 50.192001,167.800001 50,167.608 C49.6159981,167.415999 49.6159981,167.128002 50,166.744 L64.688,152.056 C64.880001,151.863999 65.1679981,151.863999 65.552,152.056 C65.9360019,152.440002 65.9360019,152.823998 65.552,153.208 L51.152,167.608 C50.959999,167.800001 50.768001,167.896 50.576,167.896 Z M50.576,167.896 C49.9999971,167.896 49.712,167.608003 49.712,167.032 L54.32,131.608 C54.7040019,131.223998 54.991999,131.032 55.184,131.032 C56.1440048,131.032 56.3360029,131.319997 55.76,131.896 L51.152,167.32 C51.152,167.704002 50.9600019,167.896 50.576,167.896 Z M50.576,167.896 C50.768001,167.896 50.959999,167.800001 51.152,167.608 C51.5360019,167.223998 51.4400029,166.840002 50.864,166.456 L33.584,154.648 C33.391999,154.455999 33.1040019,154.551998 32.72,154.936 C32.3359981,155.320002 32.3359981,155.607999 32.72,155.8 L50.288,167.608 C50.288,167.800001 50.383999,167.896 50.576,167.896 Z M33.008,177.112 C32.6239981,176.727998 32.432,176.440001 32.432,176.248 L32.432,155.224 C32.432,154.839998 32.7199971,154.648 33.296,154.648 C33.6800019,154.648 33.872,154.839998 33.872,155.224 L33.872,176.248 C33.872,176.824003 33.5840029,177.112 33.008,177.112 Z M33.008,177.112 L32.432,176.536 C32.432,175.959997 32.527999,175.672 32.72,175.672 L50.288,166.456 C50.8640029,165.879997 51.152,165.975996 51.152,166.744 C51.344001,167.128002 51.2480019,167.511998 50.864,167.896 L33.584,176.824 C33.391999,176.824 33.296,176.872 33.296,176.968 C33.296,177.064 33.200001,177.112 33.008,177.112 Z M57.488,183.16 C57.1039981,183.16 56.912,182.968002 56.912,182.584 L50,167.32 C49.807999,167.127999 49.9039981,166.840002 50.288,166.456 C50.8640029,165.879997 51.152,165.975996 51.152,166.744 L58.352,182.008 C58.352,182.584003 58.1600019,182.872 57.776,182.872 C57.776,183.064001 57.680001,183.16 57.488,183.16 Z M57.488,183.16 L57.488,182.872 C56.7199962,182.872 56.5279981,182.584003 56.912,182.008 L64.4,152.344 C64.7840019,151.959998 65.071999,151.768 65.264,151.768 C65.6480019,151.960001 65.84,152.247998 65.84,152.632 L58.352,182.584 C57.9679981,182.968002 57.680001,183.16 57.488,183.16 Z M57.488,183.16 C57.1039981,183.16 56.912,182.968002 56.912,182.584 C56.912,182.007997 57.1039981,181.72 57.488,181.72 L80.24,176.248 C80.8160029,175.671997 81.104,175.767996 81.104,176.536 C81.104,177.112003 80.9120019,177.4 80.528,177.4 L57.776,182.872 L57.488,183.16 Z M33.296,204.472 C32.7199971,204.472 32.432,204.280002 32.432,203.896 L32.432,176.248 C32.432,175.863998 32.6239981,175.672 33.008,175.672 C33.5840029,175.672 33.872,175.863998 33.872,176.248 L33.872,203.896 C33.872,204.280002 33.6800019,204.472 33.296,204.472 Z M33.296,204.472 C33.6800019,204.472 33.872,204.376001 33.872,204.184 L51.152,167.32 C51.344001,167.127999 51.2480019,166.840002 50.864,166.456 C50.2879971,165.879997 50,165.975996 50,166.744 L32.72,203.608 C32.1439971,204.184003 32.2399962,204.472 33.008,204.472 L33.296,204.472 Z M33.872,204.472 L32.72,204.472 C32.3359981,204.087998 32.3359981,203.704002 32.72,203.32 L57.2,181.72 C57.392001,181.527999 57.6799981,181.527999 58.064,181.72 C58.4480019,182.104002 58.4480019,182.487998 58.064,182.872 L33.872,204.472 Z M80.528,199.864 L79.952,199.864 L57.2,182.872 C56.8159981,182.487998 56.719999,182.200001 56.912,182.008 C57.2960019,181.431997 57.6799981,181.335998 58.064,181.72 L80.816,198.712 C81.008001,198.904001 81.104,199.191998 81.104,199.576 L80.528,199.864 Z M80.528,199.864 C79.9519971,199.864 79.664,199.672002 79.664,199.288 L79.664,176.824 C79.664,176.439998 79.8559981,176.248 80.24,176.248 C80.8160029,176.248 81.104,176.439998 81.104,176.824 L81.104,199.288 C81.104,199.672002 80.9120019,199.864 80.528,199.864 Z M45.968,215.416 L45.68,215.416 C45.2959981,215.416 45.104,215.128003 45.104,214.552 L56.912,182.008 C56.912,181.239996 57.1999971,181.143997 57.776,181.72 C58.1600019,181.72 58.352,182.007997 58.352,182.584 L46.544,214.84 C46.544,215.224002 46.3520019,215.416 45.968,215.416 Z M45.968,215.416 L45.392,215.416 L32.72,204.472 C32.3359981,204.087998 32.3359981,203.704002 32.72,203.32 C33.1040019,202.935998 33.4879981,202.935998 33.872,203.32 L46.256,214.264 C46.6400019,214.648002 46.736001,214.935999 46.544,215.128 L45.968,215.416 Z M45.968,215.416 C45.775999,215.416 45.4880019,215.224002 45.104,214.84 C45.104,214.647999 45.2959981,214.360002 45.68,213.976 L63.536,208.792 C63.9200019,208.792 64.3039981,208.983998 64.688,209.368 C64.688,209.944003 64.4960019,210.232 64.112,210.232 L45.968,215.416 Z M63.824,210.232 C63.4399981,210.232 63.248,210.040002 63.248,209.656 L56.912,182.584 C56.912,182.007997 57.1039981,181.72 57.488,181.72 C57.680001,181.527999 57.9679981,181.623998 58.352,182.008 L64.688,209.368 C64.688,209.944003 64.4960019,210.232 64.112,210.232 L63.824,210.232 Z M63.824,210.232 C63.631999,210.232 63.440001,210.136001 63.248,209.944 C62.6719971,209.367997 62.7679962,209.08 63.536,209.08 L79.952,198.712 C80.3360019,198.327998 80.7199981,198.423997 81.104,199 C81.104,199.384002 81.008001,199.671999 80.816,199.864 L64.112,210.232 L63.824,210.232 Z M80.24,224.632 C79.8559981,224.247998 79.664,223.960001 79.664,223.768 L79.664,199.288 C79.664,198.711997 79.9519971,198.424 80.528,198.424 C80.9120019,198.424 81.104,198.711997 81.104,199.288 L81.104,223.768 C81.104,224.344003 80.8160029,224.632 80.24,224.632 Z M80.24,224.632 L79.952,224.344 L63.536,210.232 C62.9599971,209.847998 62.8639981,209.464002 63.248,209.08 C63.6320019,208.695998 64.0159981,208.695998 64.4,209.08 L80.816,223.192 C81.2000019,223.576002 81.2000019,223.959998 80.816,224.344 C80.623999,224.536001 80.432001,224.632 80.24,224.632 Z M80.528,235.864 C79.9519971,235.864 79.664,235.576003 79.664,235 L79.664,223.768 C79.664,223.383998 79.8559981,223.192 80.24,223.192 C80.8160029,223.192 81.104,223.383998 81.104,223.768 L81.104,235 C81.104,235.576003 80.9120019,235.864 80.528,235.864 Z M64.976,235.864 C64.3999971,235.864 64.112,235.576003 64.112,235 C64.112,234.615998 64.3999971,234.424 64.976,234.424 L80.528,234.424 C80.9120019,234.424 81.104,234.615998 81.104,235 C81.104,235.576003 80.9120019,235.864 80.528,235.864 L64.976,235.864 Z M64.976,235.864 L64.4,235.576 C64.0159981,235.191998 64.0159981,234.808002 64.4,234.424 L79.952,223.192 C80.5280029,222.615997 80.816,222.711996 80.816,223.48 C81.008001,223.864002 81.008001,224.151999 80.816,224.344 L65.264,235.576 L64.976,235.864 Z M64.976,235.864 C64.3999971,235.864 64.112,235.576003 64.112,235 L63.248,209.656 C63.248,209.079997 63.4399981,208.792 63.824,208.792 C64.4000029,208.792 64.688,209.079997 64.688,209.656 L65.552,235 C65.552,235.576003 65.3600019,235.864 64.976,235.864 Z M33.296,235.864 C32.7199971,235.864 32.432,235.576003 32.432,235 L32.432,203.896 C32.432,203.319997 32.7199971,203.032 33.296,203.032 C33.6800019,203.032 33.872,203.319997 33.872,203.896 L33.872,235 C33.872,235.576003 33.6800019,235.864 33.296,235.864 Z M33.296,235.864 C33.103999,235.864 32.912001,235.768001 32.72,235.576 C32.1439971,235.576 32.1439971,235.288003 32.72,234.712 L45.392,214.264 C45.392,213.687997 45.6799971,213.687997 46.256,214.264 C47.0240038,214.264 47.1200029,214.551997 46.544,215.128 L33.872,235.576 L33.296,235.864 Z M64.976,235.864 L33.296,235.864 C32.7199971,235.864 32.432,235.576003 32.432,235 C32.432,234.615998 32.7199971,234.424 33.296,234.424 L64.976,234.424 C65.3600019,234.424 65.552,234.615998 65.552,235 C65.552,235.576003 65.3600019,235.864 64.976,235.864 Z M64.976,235.864 L64.4,235.576 L45.392,215.128 C45.0079981,214.935999 45.0079981,214.648002 45.392,214.264 C45.7760019,213.879998 46.1599981,213.879998 46.544,214.264 L65.264,234.424 C65.6480019,234.808002 65.6480019,235.191998 65.264,235.576 L64.976,235.864 Z M55.184,132.472 C54.991999,132.472 54.7040019,132.280002 54.32,131.896 C54.32,131.319997 54.6079971,131.032 55.184,131.032 L72.752,129.592 C72.944001,129.592 73.2319981,129.879997 73.616,130.456 C73.616,130.840002 73.3280029,131.032 72.752,131.032 L55.184,132.472 Z" id="P" stroke="none" fill="#D0011B" fill-rule="evenodd"></path>
</svg>