<?xml version="1.0" encoding="utf-8"?>
<!-- Generator: Adobe Illustrator 19.0.0, SVG Export Plug-In . SVG Version: 6.00 Build 0)  -->
<svg version="1.1" id="Ebene_1" xmlns="http://www.w3.org/2000/svg" xmlns:xlink="http://www.w3.org/1999/xlink" x="0px" y="0px"
	 viewBox="0 0 50 50" style="enable-background:new 0 0 50 50;" xml:space="preserve">
<style type="text/css">
	.st0{fill:#DD222D;}
	.st1{fill:#FFFFFF;}
</style>
<circle id="XMLID_3504_" class="st0" cx="25" cy="25" r="25"/>
<g id="XMLID_2944_">
	<path id="XMLID_2945_" class="st1" d="M17.1,26.6c-0.1,0-0.1,0-0.1-0.1l0.3-4.2c0.1-0.1,0.1-0.1,0.1-0.1c0.1,0,0.1,0,0.1,0.1
		L17.1,26.6C17.2,26.6,17.2,26.6,17.1,26.6z M17.1,26.6c-0.1,0-0.1,0-0.1-0.1c0-0.1,0-0.1,0.1-0.1h3.3c0.1,0,0.1,0,0.1,0.1
		c0,0.1,0,0.1-0.1,0.1H17.1z M17.4,29.9c-0.1,0-0.1,0-0.1-0.1L17,26.5c0-0.1,0-0.1,0.1-0.1c0.1,0,0.1,0,0.1,0.1l0.3,3.2
		C17.5,29.9,17.5,29.9,17.4,29.9z M17.4,12.4C17.4,12.4,17.4,12.4,17.4,12.4c-0.2-0.1-0.2-0.2-0.1-0.2l2.4-2.1
		c0.1-0.1,0.1-0.1,0.2,0c0.1,0.1,0.1,0.1,0,0.1L17.4,12.4C17.5,12.4,17.4,12.4,17.4,12.4z M19.1,13.7l-1.8-1.3c-0.1,0-0.1,0,0-0.1
		c0,0,0.1,0,0.1,0l1.8,1.3c0.1,0.1,0.1,0.1,0,0.2H19.1C19.1,13.7,19.1,13.7,19.1,13.7z M17.3,40.9c-0.1,0-0.1,0,0-0.1l1.8-2.8
		c0-0.1,0-0.1,0.1,0c0.1,0,0.1,0,0,0.1l-1.8,2.8H17.3C17.4,41,17.4,41,17.3,40.9z M17.4,36.6L17.4,36.6c-0.1,0-0.2,0-0.1-0.1
		l2.4-5.1c0-0.1,0-0.1,0.1,0c0.1,0.1,0.1,0.1,0,0.1L17.4,36.6C17.5,36.6,17.5,36.6,17.4,36.6z M17.4,10.3c-0.1,0-0.1,0-0.1-0.1
		c0-0.1,0-0.1,0.1-0.1h2.4c0.1,0,0.1,0,0.1,0.1c0,0.1,0,0.1-0.1,0.1H17.4z M17.4,12.4c-0.1-0.1-0.1-0.1-0.1-0.1v-2
		c0-0.1,0-0.1,0.1-0.1c0.1,0,0.1,0,0.1,0.1v2C17.5,12.3,17.5,12.4,17.4,12.4z M17.4,17.2C17.3,17.2,17.3,17.2,17.4,17.2l-0.1-5.3
		c0-0.1,0-0.1,0.1-0.1c0.1,0,0.1,0,0.1,0.1v5.2C17.5,17.2,17.5,17.2,17.4,17.2z M17.4,17.2L17.4,17.2c-0.1,0-0.1,0-0.1-0.1l1.8-3.6
		c0.1-0.1,0.1-0.1,0.2,0c0.1,0.1,0.1,0.1,0,0.1l-1.8,3.6C17.5,17.2,17.4,17.2,17.4,17.2z M17.4,22.4c-0.1,0-0.1,0-0.1-0.1v-5.2
		c0-0.1,0-0.1,0.1-0.1c0.1,0,0.1,0,0.1,0.1v5.1C17.5,22.4,17.5,22.4,17.4,22.4z M19.3,18.6L19.3,18.6l-1.9-1.4c0,0,0-0.1,0-0.2
		c0.1-0.1,0.1-0.1,0.2,0l1.9,1.4C19.4,18.5,19.4,18.5,19.3,18.6C19.3,18.6,19.3,18.6,19.3,18.6z M17.4,22.4c0,0-0.1,0-0.1-0.1
		c0-0.1,0-0.1,0.1-0.1l3.4-0.3c0.1,0,0.1,0,0.1,0.1c0,0.1,0,0.1-0.1,0.1L17.4,22.4z M17.4,32.8c-0.1-0.1-0.1-0.1-0.1-0.1v-2.9
		c0-0.1,0-0.1,0.1-0.1c0.1,0,0.1,0,0.1,0.1v2.9C17.5,32.8,17.5,32.8,17.4,32.8z M17.4,32.8L17.4,32.8c-0.1-0.2-0.1-0.2,0-0.2
		l2.4-1.3c0.1-0.1,0.1-0.1,0.1,0c0,0.1,0,0.1,0,0.2L17.4,32.8C17.4,32.8,17.4,32.8,17.4,32.8C17.4,32.8,17.4,32.8,17.4,32.8z
		 M17.4,36.6c-0.1,0-0.1,0-0.1-0.1v-3.8c0-0.1,0-0.1,0.1-0.1c0.1,0,0.1,0,0.1,0.1L17.4,36.6C17.5,36.6,17.5,36.6,17.4,36.6z
		 M17.4,41c-0.1,0-0.1,0-0.1-0.1v-4.3c0-0.1,0-0.1,0.1-0.1c0.1,0,0.1,0,0.1,0.1v4.3C17.5,40.9,17.5,41,17.4,41z M21.8,41h-4.4
		c-0.1,0-0.1,0-0.1-0.1c0-0.1,0-0.1,0.1-0.1h4.4c0.1,0,0.1,0,0.1,0.1C21.9,40.9,21.9,41,21.8,41z M20.5,26.6
		C20.4,26.6,20.4,26.6,20.5,26.6l-3.1-4.2c-0.1-0.1-0.1-0.1,0-0.2c0.1,0,0.1,0,0.2,0l3,4.2C20.6,26.5,20.6,26.6,20.5,26.6L20.5,26.6
		z M17.4,29.9C17.4,29.9,17.4,29.9,17.4,29.9c-0.1-0.1-0.1-0.1,0-0.2l3-3.2c0.1-0.1,0.1-0.1,0.2,0c0,0.1,0,0.1,0,0.1l-3,3.3
		L17.4,29.9C17.4,29.9,17.4,29.9,17.4,29.9z M19.8,31.5C19.8,31.5,19.8,31.5,19.8,31.5l-2.5-1.7c-0.1,0-0.1-0.1,0-0.1s0.1-0.1,0.1,0
		l2.4,1.6C19.9,31.4,20,31.4,19.8,31.5C19.9,31.5,19.8,31.5,19.8,31.5z M17.4,36.6L17.4,36.6c-0.1-0.1-0.1-0.1-0.1-0.2l3.4-3
		c0,0,0.1,0,0.1,0c0.1,0.1,0.1,0.1,0,0.2L17.4,36.6L17.4,36.6z M19.1,38.1l-1.8-1.5c-0.1-0.1-0.1-0.1,0-0.2c0.1-0.1,0.1-0.1,0.2,0
		l1.7,1.5c0.1,0.1,0.1,0.1,0,0.1L19.1,38.1L19.1,38.1z M17.4,22.4L17.4,22.4c-0.1-0.1-0.1-0.1-0.1-0.2l1.8-3.7
		c0-0.1,0.1-0.1,0.2-0.1c0,0,0,0.1,0,0.2L17.4,22.4C17.5,22.4,17.4,22.4,17.4,22.4z M21.1,15.6L21.1,15.6l-2-1.9
		c-0.1,0-0.1-0.1,0-0.1c0,0,0.1,0,0.1,0l1.9,1.8C21.2,15.4,21.2,15.5,21.1,15.6C21.1,15.6,21.1,15.6,21.1,15.6z M21.8,41L21.8,41
		l-2.7-2.9c-0.1,0-0.1-0.1,0-0.1s0.1-0.1,0.2,0l2.6,2.8C21.9,40.8,21.9,40.9,21.8,41L21.8,41z M19.2,13.7L19.2,13.7
		c-0.1,0-0.1,0-0.1-0.1l0.6-3.4c0.1-0.1,0.1-0.1,0.1-0.1c0.1,0,0.2,0,0.1,0.1L19.2,13.7C19.3,13.7,19.2,13.7,19.2,13.7z M19.2,13.7
		c0,0-0.1,0-0.1-0.1c0-0.1,0-0.1,0.1-0.1l1.9-0.6c0.1-0.1,0.1-0.1,0.1,0c0,0.1,0,0.1-0.1,0.1L19.2,13.7L19.2,13.7z M19.3,18.6
		C19.2,18.6,19.2,18.6,19.3,18.6l-0.2-5c0-0.1,0-0.1,0.1-0.1c0.1,0,0.1,0,0.1,0.1l0.1,5C19.4,18.6,19.3,18.6,19.3,18.6z M19.2,38.1
		L19.2,38.1c-0.1,0-0.1,0-0.1-0.1l1.6-4.5c0-0.1,0-0.1,0.1,0c0.1,0,0.1,0,0.1,0.1L19.2,38.1C19.3,38.1,19.2,38.1,19.2,38.1z
		 M19.2,38.1c0,0-0.1,0-0.1-0.1c0,0,0-0.1,0.1-0.1l2.5-0.7c0.1,0,0.1,0,0.2,0.1c0,0.1,0,0.1-0.1,0.1L19.2,38.1z M19.3,18.6
		L19.3,18.6c-0.1,0-0.1-0.1-0.1-0.2l1.8-3c0.1-0.1,0.1-0.1,0.2,0c0,0,0,0.1,0,0.1l-1.8,3.1C19.3,18.6,19.3,18.6,19.3,18.6z
		 M19.3,18.6C19.2,18.6,19.2,18.6,19.3,18.6c-0.1-0.2-0.1-0.2,0-0.2l2.6-0.1c0.1,0,0.1,0,0.1,0.1c0,0.1,0,0.1-0.1,0.1L19.3,18.6
		L19.3,18.6z M20.8,22.1C20.7,22.1,20.7,22.1,20.8,22.1l-1.6-3.5c0-0.1,0-0.1,0-0.2c0.1,0,0.1,0,0.2,0.1l1.5,3.4
		C20.9,22,20.9,22.1,20.8,22.1L20.8,22.1z M24.7,10.3l-4.9,0c-0.1,0-0.1,0-0.1-0.1c0-0.1,0-0.1,0.1-0.1l4.9,0c0.1,0,0.1,0,0.1,0.1
		C24.8,10.3,24.8,10.3,24.7,10.3z M19.8,31.5c-0.1,0-0.1,0-0.1-0.1l0.6-4.9c0.1-0.1,0.1-0.1,0.1-0.1c0.1,0,0.2,0,0.1,0.1L19.8,31.5
		C19.9,31.5,19.9,31.5,19.8,31.5z M19.8,31.5C19.8,31.5,19.8,31.5,19.8,31.5c-0.1-0.1-0.1-0.1-0.1-0.2l2-2c0,0,0.1,0,0.1,0
		c0.1,0.1,0.1,0.1,0,0.2L19.8,31.5C19.9,31.5,19.8,31.5,19.8,31.5z M23.7,11.7L23.7,11.7l-3.9-1.4c-0.1-0.1-0.1-0.1,0-0.1
		c0-0.1,0-0.1,0.1-0.1l3.8,1.4c0.1,0,0.1,0,0.1,0.1C23.7,11.7,23.7,11.7,23.7,11.7z M21.1,13C21,13,21,13,21,13l-1.2-2.7
		c0-0.1,0-0.1,0-0.2c0.1,0,0.1,0,0.1,0l1.3,2.8C21.3,13,21.2,13,21.1,13L21.1,13z M20.8,33.7C20.7,33.7,20.7,33.6,20.8,33.7l-1-2.2
		c0,0,0-0.1,0-0.1c0.1-0.1,0.1-0.1,0.1,0l1,2.1C20.9,33.6,20.9,33.6,20.8,33.7C20.8,33.6,20.8,33.7,20.8,33.7z M20.5,26.6
		c-0.1,0-0.1,0-0.1-0.1l0.4-4.5c0-0.1,0-0.1,0.1-0.1c0.1,0,0.1,0,0.1,0.1L20.5,26.6C20.5,26.6,20.5,26.6,20.5,26.6z M20.5,26.6
		c0,0-0.1,0-0.1-0.1c0-0.1,0-0.1,0.1-0.1l2.4-0.2c0,0,0.1,0,0.1,0.1c0,0.1,0,0.1-0.1,0.1L20.5,26.6z M21.9,29.5c-0.1,0-0.1,0-0.1,0
		l-1.4-2.9c0-0.1,0-0.1,0-0.2c0.1,0,0.1,0,0.1,0l1.4,2.9C22,29.4,22,29.4,21.9,29.5L21.9,29.5z M20.8,33.7L20.8,33.7
		c-0.1,0-0.1-0.1-0.1-0.2l1-4.1c0.1-0.1,0.1-0.1,0.1-0.1c0.1,0,0.1,0.1,0.1,0.1l-1,4.2C20.8,33.6,20.8,33.7,20.8,33.7z M20.8,22.1
		C20.8,22.1,20.7,22.1,20.8,22.1C20.7,22.1,20.7,22.1,20.8,22.1c-0.1-0.1-0.1-0.1,0-0.2l3-1.8c0.1-0.1,0.1-0.1,0.1,0
		c0.1,0.1,0.1,0.1,0,0.1L20.8,22.1L20.8,22.1z M22.9,26.4C22.8,26.4,22.8,26.4,22.9,26.4l-2.2-4.3c0-0.1,0-0.1,0-0.2
		c0.1,0,0.1,0,0.1,0l2.1,4.3C23.1,26.4,23,26.4,22.9,26.4L22.9,26.4z M20.8,22.1L20.8,22.1c-0.1-0.1-0.1-0.1-0.1-0.1l1-3.6
		c0-0.1,0.1-0.1,0.2-0.1c0.1,0,0.1,0,0,0.1l-1,3.6C20.8,22.1,20.8,22.1,20.8,22.1z M23.9,23.6L23.9,23.6l-3.1-1.5
		c-0.1-0.1-0.1-0.1,0-0.2c0,0,0.1,0,0.1,0l3.1,1.6C24,23.5,24,23.5,23.9,23.6C23.9,23.6,23.9,23.6,23.9,23.6z M23.9,36l-3.2-2.4
		c-0.1-0.1-0.1-0.1,0-0.1c0.1-0.1,0.1-0.1,0.2,0l3.2,2.4c0,0,0,0.1,0,0.1L23.9,36L23.9,36z M20.7,33.6c0-0.1,0-0.1,0.1-0.1l3.2-0.8
		c0.1-0.1,0.1-0.1,0.1,0c0,0.1,0,0.1-0.1,0.1l-3.2,0.8L20.7,33.6C20.7,33.7,20.7,33.6,20.7,33.6z M21.7,37.4
		C21.6,37.4,21.6,37.4,21.7,37.4l-1-3.8c0-0.1,0-0.1,0.1-0.1c0,0,0.1,0,0.1,0l0.9,3.8C21.8,37.4,21.8,37.4,21.7,37.4L21.7,37.4z
		 M21.1,13C21,13,21,13,21,13c0-0.1,0-0.1,0.1-0.1l2.6-1.3c0,0,0.1,0,0.2,0c0,0.1,0,0.1-0.1,0.2L21.1,13L21.1,13z M21.1,15.6
		L21.1,15.6C21,15.5,21,15.5,21,15.4l2.6-3.8c0.1-0.1,0.1-0.1,0.2,0c0.1,0.1,0.1,0.1,0,0.2l-2.6,3.8C21.1,15.6,21.1,15.6,21.1,15.6z
		 M21.1,15.6C21,15.5,21,15.5,21,15.5v-2.5c0-0.1,0-0.1,0.1-0.1c0.1,0,0.1,0,0.1,0.1v2.5C21.2,15.6,21.1,15.6,21.1,15.6z M21.1,15.6
		C21,15.6,21,15.6,21.1,15.6c-0.1-0.2-0.1-0.2,0-0.2l5.1-1.9c0.1,0,0.1,0,0.2,0.1c0,0,0,0.1-0.1,0.1L21.1,15.6
		C21.1,15.6,21.1,15.6,21.1,15.6z M21.9,18.5c0,0-0.1,0-0.1-0.1L21,15.5c0-0.1,0-0.1,0.1-0.1c0.1-0.1,0.1-0.1,0.1,0l0.8,3
		C22,18.4,21.9,18.5,21.9,18.5z M23.9,15.8l-2.8-0.2C21,15.5,21,15.5,21,15.5c0-0.1,0-0.1,0.1-0.1l2.8,0.2c0.1,0,0.1,0,0.1,0.1
		C24,15.8,23.9,15.8,23.9,15.8z M21.7,37.4C21.6,37.4,21.6,37.4,21.7,37.4c-0.2-0.1-0.1-0.2,0-0.2l2.3-1.4c0.1-0.1,0.1,0,0.2,0
		c0,0.1,0,0.1,0,0.1L21.7,37.4L21.7,37.4z M23.9,39.4L23.9,39.4l-2.3-2c-0.1-0.1-0.1-0.1,0-0.2c0.1-0.1,0.1-0.1,0.2,0l2.3,2
		C24.1,39.3,24.1,39.3,23.9,39.4C24,39.4,24,39.4,23.9,39.4z M21.8,41c-0.1,0-0.1,0-0.1-0.1l-0.1-3.5c0-0.1,0-0.1,0.1-0.1
		c0.1,0,0.1,0,0.1,0.1l0.1,3.5C21.9,40.9,21.9,41,21.8,41z M21.7,40.9c-0.1-0.1-0.1-0.1,0-0.2l2.2-1.6c0.1-0.1,0.1-0.1,0.1,0
		c0,0.1,0,0.1,0,0.1l-2.2,1.6H21.7L21.7,40.9z M21.8,41c-0.1,0-0.1,0-0.1-0.1c0-0.1,0-0.1,0.1-0.1H24c0.1,0,0.1,0,0.1,0.1
		c0,0.1,0,0.1-0.1,0.1H21.8z M23.9,32.9L23.9,32.9l-2.2-3.4c-0.1-0.1-0.1-0.1,0-0.1c0.1,0,0.1,0,0.2,0l2.1,3.4
		C24.1,32.8,24,32.8,23.9,32.9C24,32.9,24,32.9,23.9,32.9C24,32.9,24,32.9,23.9,32.9z M21.9,29.5L21.9,29.5c-0.1,0-0.1,0-0.1-0.1
		l1.1-3.1c0-0.1,0-0.1,0.1,0c0.1,0,0.1,0,0,0.1L21.9,29.5C21.9,29.5,21.9,29.5,21.9,29.5z M21.9,29.5c-0.1,0-0.1,0-0.1-0.1
		c0,0,0-0.1,0.1-0.1l2.1-0.4c0.1,0,0.1,0,0.1,0.1c0,0.1,0,0.1-0.1,0.1L21.9,29.5z M21.9,18.5C21.8,18.5,21.8,18.5,21.9,18.5
		c-0.1-0.1-0.1-0.1-0.1-0.2l2-2.7c0.1-0.1,0.1-0.1,0.2,0c0,0.1,0,0.1,0,0.1L21.9,18.5C21.9,18.5,21.9,18.5,21.9,18.5
		C21.9,18.5,21.9,18.5,21.9,18.5z M23.8,20.4C23.8,20.4,23.7,20.3,23.8,20.4l-2-1.9c-0.1,0-0.1-0.1,0-0.1c0,0,0.1,0,0.2,0l1.9,1.8
		C23.9,20.2,23.9,20.3,23.8,20.4C23.9,20.3,23.8,20.4,23.8,20.4z M24,29.1c-0.1,0-0.1,0-0.1,0l-1-2.7c-0.1-0.1-0.1-0.1,0-0.1
		c0.1-0.1,0.1-0.1,0.1,0l1.1,2.7C24.1,29,24,29.1,24,29.1z M22.9,26.4L22.9,26.4c-0.1,0-0.2,0-0.1-0.1l1-2.8c0-0.1,0-0.1,0.1-0.1
		c0.1,0.1,0.1,0.1,0.1,0.2L22.9,26.4C23,26.4,23,26.4,22.9,26.4z M22.9,26.4L22.9,26.4c-0.1-0.1-0.1-0.1-0.1-0.2l2.8-2.6
		c0,0,0.1,0,0.1,0c0.1,0.1,0.1,0.1,0,0.2L22.9,26.4L22.9,26.4z M26.2,26.6l-3.3-0.2c-0.1,0-0.1,0-0.1-0.1c0-0.1,0-0.1,0.1-0.1
		l3.3,0.2C26.2,26.4,26.3,26.5,26.2,26.6C26.3,26.6,26.2,26.6,26.2,26.6z M23.7,11.7C23.6,11.7,23.6,11.7,23.7,11.7
		c-0.1,0-0.1-0.1-0.1-0.2l1-1.4c0-0.1,0.1-0.1,0.1,0c0.1,0.1,0.1,0.1,0,0.2L23.7,11.7C23.7,11.7,23.7,11.7,23.7,11.7z M26.2,13.7
		C26.2,13.7,26.2,13.7,26.2,13.7l-2.6-2c0,0,0,0,0-0.1c0,0,0.1,0,0.2,0l2.6,1.9C26.4,13.5,26.4,13.6,26.2,13.7
		C26.3,13.7,26.3,13.7,26.2,13.7z M23.8,20.4c-0.1,0-0.1,0-0.1-0.1l0.1-4.5c0-0.1,0-0.1,0.1-0.1c0.1,0,0.1,0,0.1,0.1l-0.1,4.5
		C23.9,20.3,23.9,20.4,23.8,20.4z M23.9,23.6C23.8,23.6,23.8,23.6,23.9,23.6l-0.2-3.4c0-0.1,0-0.1,0.1-0.1c0.1,0,0.1,0,0.1,0.1
		l0.1,3.3C24,23.6,23.9,23.6,23.9,23.6z M23.9,15.8C23.8,15.8,23.8,15.8,23.9,15.8c-0.1-0.1-0.1-0.1,0-0.2l2.4-2.1c0,0,0.1,0,0.1,0
		c0,0.1,0,0.1,0,0.1L23.9,15.8L23.9,15.8z M27.3,15.9l-3.5-0.1c-0.1,0-0.1,0-0.1-0.1c0-0.1,0-0.1,0.1-0.1l3.5,0.1
		c0.1,0,0.1,0,0.1,0.1C27.5,15.9,27.4,15.9,27.3,15.9z M25.7,23.8l-1.8-0.2c-0.1,0-0.1,0-0.1-0.1c0-0.1,0-0.1,0.1-0.1l1.8,0.2
		c0.1,0,0.1,0,0.1,0.1C25.8,23.8,25.8,23.8,25.7,23.8z M24,29.1L24,29.1c-0.1-0.1-0.1-0.1-0.1-0.2l2.2-2.4c0.1-0.1,0.1-0.1,0.2,0
		c0,0.1,0,0.1,0,0.1L24,29.1L24,29.1z M24,29.1c-0.1,0-0.1,0-0.1-0.1c0-0.1,0-0.1,0.1-0.1l4.4-0.1c0.1,0,0.1,0,0.1,0.1
		c0,0.1,0,0.1-0.1,0.1L24,29.1z M23.9,32.9c-0.1-0.1-0.1-0.1-0.1-0.1V29c0-0.1,0-0.1,0.1-0.1c0.1,0,0.1,0,0.1,0.1v3.8
		C24.1,32.9,24,32.9,23.9,32.9z M24,36c-0.1,0-0.1,0-0.1-0.1v-3.1c0-0.1,0-0.1,0.1-0.1c0.1,0,0.1,0,0.1,0.1L24,36
		C24.1,36,24,36,24,36z M23.9,39.4c-0.1-0.1-0.1-0.1-0.1-0.1v-3.4c0-0.1,0-0.1,0.1-0.1c0.1,0,0.1,0,0.1,0.1v3.4
		C24.1,39.4,24,39.4,23.9,39.4z M24,41c-0.1,0-0.1,0-0.1-0.1v-1.6c0-0.1,0-0.1,0.1-0.1c0.1,0,0.1,0,0.1,0.1v1.6
		C24.1,40.9,24,41,24,41z M24.7,10.3c-0.1,0-0.1,0-0.1-0.1c0-0.1,0-0.1,0.1-0.1l3.2,0c0.1,0,0.1,0,0.1,0.1c0,0.1,0,0.1-0.1,0.1
		L24.7,10.3z M26.2,13.7C26.2,13.7,26.1,13.6,26.2,13.7l-1.6-3.4c0-0.1,0-0.1,0.1-0.1c0,0,0.1,0,0.1,0l1.6,3.3
		C26.3,13.6,26.3,13.6,26.2,13.7L26.2,13.7z M27.8,12.3C27.8,12.3,27.7,12.3,27.8,12.3l-3.2-2c-0.1,0-0.1-0.1,0-0.1
		c0-0.1,0-0.1,0.1,0l3.1,1.9C27.9,12.1,27.9,12.2,27.8,12.3C27.8,12.3,27.8,12.3,27.8,12.3z M25.7,23.8
		C25.6,23.8,25.6,23.8,25.7,23.8c-0.1-0.2-0.1-0.2,0-0.2l2.1-0.4c0.1,0,0.1,0,0.1,0.1c0.1,0.1,0.1,0.1-0.1,0.1L25.7,23.8L25.7,23.8z
		 M26.2,26.6c0,0-0.1,0-0.1-0.1l-0.4-2.9c0-0.1,0-0.1,0.1-0.1c0,0,0.1,0,0.1,0.1l0.4,2.8C26.3,26.6,26.3,26.6,26.2,26.6z M28.3,29
		L28.3,29l-2.2-2.4c-0.1,0-0.1-0.1,0-0.1c0.1-0.1,0.1-0.1,0.2,0l2.2,2.4C28.5,28.9,28.5,29,28.3,29L28.3,29z M26.2,26.6
		c0,0-0.1,0-0.1-0.1c0-0.1,0-0.1,0.1-0.1l3.4-0.8c0.1,0,0.1,0,0.1,0.1c0,0,0,0.1-0.1,0.1L26.2,26.6z M26.2,26.6L26.2,26.6
		c-0.1-0.1-0.1-0.1-0.1-0.2l1.6-3.2c0-0.1,0-0.1,0.1,0c0.1,0.1,0.1,0.1,0,0.1L26.2,26.6C26.2,26.6,26.2,26.6,26.2,26.6z M26.2,13.7
		C26.2,13.7,26.2,13.7,26.2,13.7c-0.2-0.1-0.1-0.2,0-0.2l1.5-1.4c0,0,0.1,0,0.2,0c0,0.1,0,0.1,0,0.1L26.2,13.7
		C26.3,13.7,26.3,13.7,26.2,13.7z M27.3,15.9C27.3,15.9,27.3,15.9,27.3,15.9l-1.2-2.3c0-0.1,0-0.1,0-0.2c0.1,0,0.1,0,0.1,0l1.1,2.3
		C27.5,15.8,27.5,15.9,27.3,15.9L27.3,15.9z M31.8,14.7l-5.6-1c-0.1,0-0.1,0-0.1-0.1c0-0.1,0-0.1,0.1-0.1l5.6,1c0.1,0,0.1,0,0.1,0.1
		C31.9,14.6,31.9,14.7,31.8,14.7z M29.6,17l-2.3-1.1c-0.1,0-0.1,0,0-0.1c0.1-0.1,0.1-0.1,0.1,0l2.3,1.1c0,0,0,0.1,0,0.2L29.6,17
		L29.6,17z M27.3,15.9C27.3,15.9,27.3,15.9,27.3,15.9c-0.1-0.1-0.1-0.1,0-0.2l4.4-1.2c0.1,0,0.1,0,0.1,0c0,0.1,0,0.1,0,0.2
		L27.3,15.9L27.3,15.9z M31.8,14.7C31.8,14.7,31.8,14.7,31.8,14.7l-4.1-2.4c-0.1,0-0.1,0,0-0.1c0.1-0.1,0.1-0.1,0.1,0l4,2.4
		C32,14.5,32,14.5,31.8,14.7C31.9,14.6,31.9,14.7,31.8,14.7z M29.5,25.8C29.5,25.8,29.5,25.8,29.5,25.8l-1.8-2.4
		c-0.1-0.1-0.1-0.1,0-0.2c0.1,0,0.1,0,0.2,0l1.7,2.4C29.6,25.7,29.6,25.7,29.5,25.8C29.6,25.8,29.5,25.8,29.5,25.8z M27.8,12.3
		c-0.1,0-0.1,0-0.1-0.1l0.1-2c0-0.1,0-0.1,0.1-0.1c0.1,0,0.1,0,0.1,0.1l-0.1,2C27.9,12.2,27.8,12.3,27.8,12.3z M27.7,23.4
		c-0.1-0.1,0-0.1,0-0.2l1.8-1.3c0.1,0,0.1,0,0.2,0c0,0.1,0,0.1,0,0.2l-1.9,1.2H27.7L27.7,23.4z M27.7,12.2c0,0,0-0.1,0-0.1l3.2-1.6
		c0.1-0.1,0.1-0.1,0.1,0c0.1,0.1,0.1,0.1,0,0.1l-3.2,1.6L27.7,12.2C27.7,12.3,27.7,12.2,27.7,12.2z M31,10.7l-3.1-0.4
		c-0.1-0.1-0.1-0.1-0.1-0.1c0-0.1,0-0.2,0.1-0.1l3.1,0.4c0.1,0.1,0.1,0.1,0.1,0.1C31.1,10.6,31.1,10.7,31,10.7z M28.3,29
		C28.3,29,28.3,29,28.3,29c-0.1-0.1-0.1-0.2,0-0.2l4.2-1.2c0.1,0,0.1,0,0.1,0.1c0.1,0.1,0.1,0.1,0,0.1L28.3,29L28.3,29z M28.3,29
		L28.3,29c-0.1,0-0.1-0.1-0.1-0.2l1.2-3.2c0-0.1,0-0.1,0.1,0c0.1,0,0.1,0,0.1,0.1L28.5,29C28.4,29,28.4,29,28.3,29z M32.6,27.8
		L32.6,27.8l-3.1-2.1c-0.1,0-0.1,0,0-0.1c0.1-0.1,0.1-0.1,0.2,0l3,2.1C32.7,27.7,32.7,27.7,32.6,27.8C32.6,27.8,32.6,27.8,32.6,27.8
		z M29.5,25.8C29.5,25.8,29.5,25.8,29.5,25.8c-0.1-0.1-0.1-0.1,0-0.2l2.7-2.3c0.1-0.1,0.1-0.1,0.1,0c0,0.1,0,0.1,0,0.1L29.5,25.8
		C29.6,25.8,29.5,25.8,29.5,25.8z M29.5,25.8c-0.1,0-0.1,0-0.1-0.1l0.1-3.6c0-0.1,0-0.1,0.1-0.1c0.1,0,0.1,0,0.1,0.1l-0.1,3.6
		C29.6,25.8,29.6,25.8,29.5,25.8z M29.6,17c-0.1-0.1-0.1-0.1,0-0.2l2.2-2.4c0.1-0.1,0.1-0.1,0.2,0c0.1,0.1,0.1,0.1,0,0.2L29.7,17
		L29.6,17L29.6,17z M29.6,22.1c-0.1,0-0.1-0.1,0-0.1l2.8-2.7c0,0,0.1,0,0.1,0c0,0.1,0,0.1,0,0.1l-2.8,2.7H29.6
		C29.6,22.2,29.6,22.1,29.6,22.1z M30.5,19.6c0,0-0.1,0-0.1-0.1L29.5,17c0-0.1,0-0.1,0.1-0.1c0.1,0,0.1,0,0.1,0.1l0.8,2.6
		C30.6,19.5,30.6,19.6,30.5,19.6L30.5,19.6z M29.7,22.2L29.7,22.2c-0.1,0-0.1-0.1-0.1-0.1l0.8-2.5c0-0.1,0.1-0.1,0.2-0.1
		c0.1,0.1,0.1,0.1,0,0.1L29.7,22.2C29.7,22.1,29.7,22.2,29.7,22.2z M32.2,23.4l-2.6-1.3c0,0,0-0.1,0-0.2c0,0,0.1,0,0.2,0l2.6,1.3
		c0,0,0,0.1,0,0.2L32.2,23.4L32.2,23.4z M30.5,19.6L30.5,19.6c-0.1,0-0.1,0-0.1-0.1l1.4-5c0-0.1,0-0.1,0.1,0c0.1,0,0.1,0,0,0.1
		L30.5,19.6C30.5,19.6,30.5,19.6,30.5,19.6z M30.5,19.6c-0.1,0-0.1,0-0.1-0.1c0-0.1,0-0.1,0.1-0.1l1.9-0.2c0.1,0,0.1,0,0.1,0.1
		c0,0.1,0,0.1-0.1,0.1L30.5,19.6z M33.8,12L33.8,12L31,10.7c-0.1,0-0.1,0,0-0.1c0.1-0.1,0.1-0.1,0.1,0l2.8,1.3c0.1,0,0.1,0,0.1,0.1
		C33.9,12,33.8,12,33.8,12z M31.8,14.7C31.8,14.7,31.8,14.6,31.8,14.7l-0.9-4.1c0-0.1,0-0.1,0.1-0.1c0,0,0.1,0,0.1,0.1l0.8,4
		C32,14.6,31.9,14.6,31.8,14.7L31.8,14.7z M31.8,14.7L31.8,14.7c-0.1-0.1-0.1-0.1-0.1-0.2l2-2.7c0.1-0.1,0.1-0.1,0.2,0
		c0,0.1,0,0.1,0,0.1L31.8,14.7C31.9,14.7,31.9,14.7,31.8,14.7z M35,17.1L35,17.1l-3.2-2.5c-0.1,0-0.1-0.1,0-0.1
		c0.1-0.1,0.1-0.1,0.2,0l3.1,2.4C35.1,17,35.1,17,35,17.1C35,17.1,35,17.1,35,17.1z M32.4,19.4C32.3,19.4,32.3,19.4,32.4,19.4
		l-0.6-4.9c-0.1-0.1,0-0.1,0.1-0.1c0,0,0.1,0,0.1,0.1l0.6,4.8C32.5,19.4,32.5,19.4,32.4,19.4L32.4,19.4z M32.2,23.4
		c-0.1-0.1-0.1-0.1,0-0.1l2.7-2.3c0,0,0.1,0,0.1,0c0.1,0.1,0.1,0.1,0,0.2l-2.7,2.3H32.2C32.2,23.4,32.2,23.4,32.2,23.4z M32.2,23.4
		L32.2,23.4c-0.1,0-0.1,0-0.1-0.1l0.2-4c0-0.1,0-0.1,0.1-0.1c0.1,0,0.1,0,0.1,0.1L32.2,23.4C32.3,23.4,32.3,23.4,32.2,23.4z
		 M32.6,27.8C32.5,27.8,32.5,27.8,32.6,27.8l-0.4-4.5c0-0.1,0-0.1,0.1-0.1c0.1,0,0.1,0,0.1,0.1l0.4,4.4
		C32.7,27.8,32.6,27.8,32.6,27.8z M34.9,21.1L34.9,21.1l-2.6-1.7c-0.1-0.1-0.1-0.1,0-0.2c0.1-0.1,0.1-0.1,0.2,0L35,21
		C35,21,35,21.1,34.9,21.1C35,21.1,35,21.1,34.9,21.1z M32.4,19.4C32.4,19.4,32.3,19.4,32.4,19.4c-0.1-0.1-0.1-0.1,0-0.2l2.6-2.4
		c0,0,0.1,0,0.1,0c0.1,0.1,0.1,0.1,0,0.2L32.4,19.4C32.5,19.4,32.4,19.4,32.4,19.4z M32.6,27.8L32.6,27.8c-0.1,0-0.2,0-0.1-0.1
		l2.4-6.7c0-0.1,0-0.1,0.1,0c0.1,0,0.1,0,0.1,0.1L32.6,27.8C32.6,27.8,32.6,27.8,32.6,27.8z M32.6,27.8
		C32.5,27.8,32.5,27.8,32.6,27.8c-0.1-0.1-0.1-0.1-0.1-0.2l2.3-1.9c0.1,0,0.1,0,0.1,0c0,0.1,0,0.1,0,0.1L32.6,27.8L32.6,27.8z
		 M35.6,13.7C35.5,13.7,35.5,13.7,35.6,13.7L33.8,12c-0.1-0.1-0.1-0.1,0-0.2c0,0,0.1,0,0.1,0l1.8,1.7C35.7,13.6,35.7,13.6,35.6,13.7
		C35.6,13.7,35.6,13.7,35.6,13.7z M35,17.1C34.9,17.1,34.9,17.1,35,17.1l-1.2-5.2c0-0.1,0-0.1,0.1-0.1c0.1-0.1,0.1-0.1,0.1,0
		l1.2,5.1C35.1,17,35,17.1,35,17.1L35,17.1z M34.8,26C34.8,26,34.8,26,34.8,26c-0.1,0-0.2-0.1-0.1-0.2l1.5-2.3
		c0.1-0.1,0.1-0.1,0.2,0c0,0.1,0,0.1,0,0.1L34.8,26C34.8,26,34.8,26,34.8,26z M34.8,26c-0.1,0-0.1,0-0.1-0.1l0.1-4.8
		c0-0.1,0-0.1,0.1-0.1c0.1,0,0.1,0,0.1,0.1l-0.1,4.8C34.9,25.9,34.9,26,34.8,26z M34.9,21.1C34.9,21.1,34.8,21.1,34.9,21.1
		c-0.2-0.1-0.1-0.2,0-0.2l2.4-1c0.1-0.1,0.1-0.1,0.1,0c0.1,0.1,0.1,0.1,0,0.1L34.9,21.1L34.9,21.1z M36.3,23.6
		C36.3,23.6,36.3,23.6,36.3,23.6l-1.5-2.6c-0.1-0.1-0.1-0.1,0-0.1c0.1-0.1,0.1-0.1,0.1,0l1.4,2.5C36.4,23.6,36.4,23.6,36.3,23.6
		L36.3,23.6z M34.9,21.1C34.9,21.1,34.8,21.1,34.9,21.1l0-4.1c0-0.1,0-0.1,0.1-0.1c0.1,0,0.1,0,0.1,0.1l0,4
		C35,21.1,35,21.1,34.9,21.1z M35,17.1C34.9,17.1,34.9,17.1,35,17.1c-0.1-0.1-0.1-0.1,0-0.2l1.7-1.4c0.1-0.1,0.1-0.1,0.2,0
		c0,0,0,0.1,0,0.1L35,17.1C35,17.1,35,17.1,35,17.1C35,17.1,35,17.1,35,17.1z M37.3,20.1C37.2,20.1,37.2,20.1,37.3,20.1l-2.4-3
		c0-0.1,0-0.1,0-0.2c0.1-0.1,0.1,0,0.1,0l2.3,3C37.4,20,37.4,20.1,37.3,20.1L37.3,20.1z M35,17.1c-0.1,0-0.1-0.1-0.1-0.1l0.6-3.4
		c0-0.1,0-0.1,0.1-0.1c0.1,0,0.1,0,0.1,0.1L35.1,17C35,17.1,35,17.1,35,17.1z M37.3,17.5L37.3,17.5L35,17.1c-0.1,0-0.1-0.1-0.1-0.1
		c0-0.1,0-0.1,0.1-0.1l2.3,0.4C37.4,17.3,37.4,17.3,37.3,17.5C37.4,17.4,37.4,17.5,37.3,17.5z M36.7,15.6L36.7,15.6l-1.2-2
		c0-0.1,0-0.1,0-0.2c0.1,0,0.1,0,0.2,0l1.1,1.9C36.8,15.5,36.8,15.6,36.7,15.6L36.7,15.6z M36.3,23.6c-0.1,0-0.1,0-0.1-0.1l0.9-3.5
		c0.1-0.1,0.1-0.1,0.1-0.1c0.1,0.1,0.1,0.1,0.1,0.1l-0.9,3.5C36.4,23.6,36.4,23.6,36.3,23.6z M37.3,17.5c-0.1,0-0.1,0-0.1,0
		l-0.6-1.9c0,0,0-0.1,0.1-0.1c0.1,0,0.1,0,0.1,0.1l0.6,1.8C37.5,17.4,37.5,17.5,37.3,17.5L37.3,17.5z M37.3,20.1
		c-0.1,0-0.1,0-0.1-0.1l0-2.6c0-0.1,0-0.1,0.1-0.1c0.1,0,0.1,0,0.1,0.1L37.3,20.1C37.4,20.1,37.3,20.1,37.3,20.1z"/>
</g>
<g id="XMLID_1_">
	<path id="XMLID_2_" class="st1" d="M17.1,26.5c-0.1,0-0.1,0-0.1-0.1l0.3-4.2c0.1-0.1,0.1-0.1,0.1-0.1c0.1,0,0.1,0,0.1,0.1
		L17.1,26.5C17.2,26.5,17.2,26.5,17.1,26.5z M17.1,26.5c-0.1,0-0.1,0-0.1-0.1c0-0.1,0-0.1,0.1-0.1h3.3c0.1,0,0.1,0,0.1,0.1
		c0,0.1,0,0.1-0.1,0.1H17.1z M17.4,29.8c-0.1,0-0.1,0-0.1-0.1L17,26.5c0-0.1,0-0.1,0.1-0.1c0.1,0,0.1,0,0.1,0.1l0.3,3.2
		C17.5,29.8,17.5,29.8,17.4,29.8z M17.4,12.3C17.4,12.3,17.4,12.3,17.4,12.3c-0.2-0.1-0.2-0.2-0.1-0.2l2.4-2.1
		c0.1-0.1,0.1-0.1,0.2,0c0.1,0.1,0.1,0.1,0,0.1L17.4,12.3C17.5,12.3,17.4,12.3,17.4,12.3z M19.1,13.6l-1.8-1.3c-0.1,0-0.1,0,0-0.1
		c0,0,0.1,0,0.1,0l1.8,1.3c0.1,0.1,0.1,0.1,0,0.2H19.1C19.1,13.6,19.1,13.6,19.1,13.6z M17.3,40.9c-0.1,0-0.1,0,0-0.1l1.8-2.8
		c0-0.1,0-0.1,0.1,0c0.1,0,0.1,0,0,0.1l-1.8,2.8H17.3C17.4,40.9,17.4,40.9,17.3,40.9z M17.4,36.6L17.4,36.6c-0.1,0-0.2,0-0.1-0.1
		l2.4-5.1c0-0.1,0-0.1,0.1,0c0.1,0.1,0.1,0.1,0,0.1L17.4,36.6C17.5,36.5,17.5,36.6,17.4,36.6z M17.4,10.2c-0.1,0-0.1,0-0.1-0.1
		c0-0.1,0-0.1,0.1-0.1h2.4c0.1,0,0.1,0,0.1,0.1c0,0.1,0,0.1-0.1,0.1H17.4z M17.4,12.3c-0.1-0.1-0.1-0.1-0.1-0.1v-2
		c0-0.1,0-0.1,0.1-0.1c0.1,0,0.1,0,0.1,0.1v2C17.5,12.3,17.5,12.3,17.4,12.3z M17.4,17.2C17.3,17.2,17.3,17.1,17.4,17.2l-0.1-5.3
		c0-0.1,0-0.1,0.1-0.1c0.1,0,0.1,0,0.1,0.1v5.2C17.5,17.1,17.5,17.2,17.4,17.2z M17.4,17.2L17.4,17.2c-0.1,0-0.1,0-0.1-0.1l1.8-3.6
		c0.1-0.1,0.1-0.1,0.2,0c0.1,0.1,0.1,0.1,0,0.1l-1.8,3.6C17.5,17.2,17.4,17.2,17.4,17.2z M17.4,22.3c-0.1,0-0.1,0-0.1-0.1v-5.2
		c0-0.1,0-0.1,0.1-0.1c0.1,0,0.1,0,0.1,0.1v5.1C17.5,22.3,17.5,22.3,17.4,22.3z M19.3,18.6L19.3,18.6l-1.9-1.4c0,0,0-0.1,0-0.2
		c0.1-0.1,0.1-0.1,0.2,0l1.9,1.4C19.4,18.4,19.4,18.5,19.3,18.6C19.3,18.6,19.3,18.6,19.3,18.6z M17.4,22.3c0,0-0.1,0-0.1-0.1
		c0-0.1,0-0.1,0.1-0.1l3.4-0.3c0.1,0,0.1,0,0.1,0.1c0,0.1,0,0.1-0.1,0.1L17.4,22.3z M17.4,32.8c-0.1-0.1-0.1-0.1-0.1-0.1v-2.9
		c0-0.1,0-0.1,0.1-0.1c0.1,0,0.1,0,0.1,0.1v2.9C17.5,32.7,17.5,32.8,17.4,32.8z M17.4,32.8L17.4,32.8c-0.1-0.2-0.1-0.2,0-0.2
		l2.4-1.3c0.1-0.1,0.1-0.1,0.1,0c0,0.1,0,0.1,0,0.2L17.4,32.8C17.4,32.7,17.4,32.7,17.4,32.8C17.4,32.7,17.4,32.8,17.4,32.8z
		 M17.4,36.6c-0.1,0-0.1,0-0.1-0.1v-3.8c0-0.1,0-0.1,0.1-0.1c0.1,0,0.1,0,0.1,0.1L17.4,36.6C17.5,36.5,17.5,36.6,17.4,36.6z
		 M17.4,40.9c-0.1,0-0.1,0-0.1-0.1v-4.3c0-0.1,0-0.1,0.1-0.1c0.1,0,0.1,0,0.1,0.1v4.3C17.5,40.9,17.5,40.9,17.4,40.9z M21.8,40.9
		h-4.4c-0.1,0-0.1,0-0.1-0.1c0-0.1,0-0.1,0.1-0.1h4.4c0.1,0,0.1,0,0.1,0.1C21.9,40.9,21.9,40.9,21.8,40.9z M20.5,26.5
		C20.4,26.5,20.4,26.5,20.5,26.5l-3.1-4.2c-0.1-0.1-0.1-0.1,0-0.2c0.1,0,0.1,0,0.2,0l3,4.2C20.6,26.4,20.6,26.5,20.5,26.5L20.5,26.5
		z M17.4,29.8C17.4,29.8,17.4,29.8,17.4,29.8c-0.1-0.1-0.1-0.1,0-0.2l3-3.2c0.1-0.1,0.1-0.1,0.2,0c0,0.1,0,0.1,0,0.1l-3,3.3
		L17.4,29.8C17.4,29.8,17.4,29.8,17.4,29.8z M19.8,31.5C19.8,31.5,19.8,31.5,19.8,31.5l-2.5-1.7c-0.1,0-0.1-0.1,0-0.1s0.1-0.1,0.1,0
		l2.4,1.6C19.9,31.3,20,31.4,19.8,31.5C19.9,31.5,19.8,31.5,19.8,31.5z M17.4,36.6L17.4,36.6c-0.1-0.1-0.1-0.1-0.1-0.2l3.4-3
		c0,0,0.1,0,0.1,0c0.1,0.1,0.1,0.1,0,0.2L17.4,36.6L17.4,36.6z M19.1,38.1l-1.8-1.5c-0.1-0.1-0.1-0.1,0-0.2s0.1-0.1,0.2,0l1.7,1.5
		c0.1,0.1,0.1,0.1,0,0.1L19.1,38.1L19.1,38.1z M17.4,22.3L17.4,22.3c-0.1-0.1-0.1-0.1-0.1-0.2l1.8-3.7c0-0.1,0.1-0.1,0.2-0.1
		c0,0,0,0.1,0,0.2L17.4,22.3C17.5,22.3,17.4,22.3,17.4,22.3z M21.1,15.5L21.1,15.5l-2-1.9c-0.1,0-0.1-0.1,0-0.1c0,0,0.1,0,0.1,0
		l1.9,1.8C21.2,15.4,21.2,15.4,21.1,15.5C21.1,15.5,21.1,15.5,21.1,15.5z M21.8,40.9L21.8,40.9L19.1,38c-0.1,0-0.1-0.1,0-0.1
		s0.1-0.1,0.2,0l2.6,2.8C21.9,40.8,21.9,40.8,21.8,40.9L21.8,40.9z M19.2,13.6L19.2,13.6c-0.1,0-0.1,0-0.1-0.1l0.6-3.4
		c0.1-0.1,0.1-0.1,0.1-0.1c0.1,0,0.2,0,0.1,0.1L19.2,13.6C19.3,13.6,19.2,13.6,19.2,13.6z M19.2,13.6c0,0-0.1,0-0.1-0.1
		c0-0.1,0-0.1,0.1-0.1l1.9-0.6c0.1-0.1,0.1-0.1,0.1,0c0,0.1,0,0.1-0.1,0.1L19.2,13.6L19.2,13.6z M19.3,18.6
		C19.2,18.6,19.2,18.5,19.3,18.6l-0.2-5c0-0.1,0-0.1,0.1-0.1c0.1,0,0.1,0,0.1,0.1l0.1,5C19.4,18.5,19.3,18.6,19.3,18.6z M19.2,38.1
		L19.2,38.1c-0.1,0-0.1,0-0.1-0.1l1.6-4.5c0-0.1,0-0.1,0.1,0c0.1,0,0.1,0,0.1,0.1L19.2,38.1C19.3,38.1,19.2,38.1,19.2,38.1z
		 M19.2,38.1c0,0-0.1,0-0.1-0.1c0,0,0-0.1,0.1-0.1l2.5-0.7c0.1,0,0.1,0,0.2,0.1c0,0.1,0,0.1-0.1,0.1L19.2,38.1z M19.3,18.6
		L19.3,18.6c-0.1,0-0.1-0.1-0.1-0.2l1.8-3c0.1-0.1,0.1-0.1,0.2,0c0,0,0,0.1,0,0.1l-1.8,3.1C19.3,18.6,19.3,18.6,19.3,18.6z
		 M19.3,18.6C19.2,18.6,19.2,18.5,19.3,18.6c-0.1-0.2-0.1-0.2,0-0.2l2.6-0.1c0.1,0,0.1,0,0.1,0.1c0,0.1,0,0.1-0.1,0.1L19.3,18.6
		L19.3,18.6z M20.8,22.1C20.7,22.1,20.7,22,20.8,22.1l-1.6-3.5c0-0.1,0-0.1,0-0.2c0.1,0,0.1,0,0.2,0.1l1.5,3.4
		C20.9,22,20.9,22,20.8,22.1L20.8,22.1z M24.7,10.3l-4.9,0c-0.1,0-0.1,0-0.1-0.1c0-0.1,0-0.1,0.1-0.1l4.9,0c0.1,0,0.1,0,0.1,0.1
		C24.8,10.2,24.8,10.3,24.7,10.3z M19.8,31.5c-0.1,0-0.1,0-0.1-0.1l0.6-4.9c0.1-0.1,0.1-0.1,0.1-0.1c0.1,0,0.2,0,0.1,0.1L19.8,31.5
		C19.9,31.4,19.9,31.5,19.8,31.5z M19.8,31.5C19.8,31.5,19.8,31.5,19.8,31.5c-0.1-0.1-0.1-0.1-0.1-0.2l2-2c0,0,0.1,0,0.1,0
		c0.1,0.1,0.1,0.1,0,0.2L19.8,31.5C19.9,31.5,19.8,31.5,19.8,31.5z M23.7,11.7L23.7,11.7l-3.9-1.4c-0.1-0.1-0.1-0.1,0-0.1
		c0-0.1,0-0.1,0.1-0.1l3.8,1.4c0.1,0,0.1,0,0.1,0.1C23.7,11.7,23.7,11.7,23.7,11.7z M21.1,13c-0.1,0-0.1,0-0.1,0l-1.2-2.7
		c0-0.1,0-0.1,0-0.2c0.1,0,0.1,0,0.1,0l1.3,2.8C21.3,12.9,21.2,13,21.1,13L21.1,13z M20.8,33.6C20.7,33.6,20.7,33.6,20.8,33.6
		l-1-2.2c0,0,0-0.1,0-0.1c0.1-0.1,0.1-0.1,0.1,0l1,2.1C20.9,33.5,20.9,33.6,20.8,33.6C20.8,33.6,20.8,33.6,20.8,33.6z M20.5,26.5
		c-0.1,0-0.1,0-0.1-0.1l0.4-4.5c0-0.1,0-0.1,0.1-0.1c0.1,0,0.1,0,0.1,0.1L20.5,26.5C20.5,26.5,20.5,26.5,20.5,26.5z M20.5,26.5
		c0,0-0.1,0-0.1-0.1c0-0.1,0-0.1,0.1-0.1l2.4-0.2c0,0,0.1,0,0.1,0.1c0,0.1,0,0.1-0.1,0.1L20.5,26.5z M21.9,29.4c-0.1,0-0.1,0-0.1,0
		l-1.4-2.9c0-0.1,0-0.1,0-0.2c0.1,0,0.1,0,0.1,0l1.4,2.9C22,29.3,22,29.4,21.9,29.4L21.9,29.4z M20.8,33.6L20.8,33.6
		c-0.1,0-0.1-0.1-0.1-0.2l1-4.1c0.1-0.1,0.1-0.1,0.1-0.1c0.1,0,0.1,0.1,0.1,0.1l-1,4.2C20.8,33.6,20.8,33.6,20.8,33.6z M20.8,22.1
		C20.8,22.1,20.7,22.1,20.8,22.1C20.7,22,20.7,22,20.8,22.1c-0.1-0.1-0.1-0.1,0-0.2l3-1.8c0.1-0.1,0.1-0.1,0.1,0
		c0.1,0.1,0.1,0.1,0,0.1L20.8,22.1L20.8,22.1z M22.9,26.3C22.8,26.3,22.8,26.3,22.9,26.3L20.7,22c0-0.1,0-0.1,0-0.2
		c0.1,0,0.1,0,0.1,0l2.1,4.3C23.1,26.3,23,26.3,22.9,26.3L22.9,26.3z M20.8,22.1L20.8,22.1c-0.1-0.1-0.1-0.1-0.1-0.1l1-3.6
		c0-0.1,0.1-0.1,0.2-0.1c0.1,0,0.1,0,0,0.1l-1,3.6C20.8,22,20.8,22.1,20.8,22.1z M23.9,23.6L23.9,23.6l-3.1-1.5
		c-0.1-0.1-0.1-0.1,0-0.2c0,0,0.1,0,0.1,0l3.1,1.6C24,23.4,24,23.5,23.9,23.6C23.9,23.6,23.9,23.6,23.9,23.6z M23.9,35.9l-3.2-2.4
		c-0.1-0.1-0.1-0.1,0-0.1c0.1-0.1,0.1-0.1,0.2,0l3.2,2.4c0,0,0,0.1,0,0.1L23.9,35.9L23.9,35.9z M20.7,33.5c0-0.1,0-0.1,0.1-0.1
		l3.2-0.8c0.1-0.1,0.1-0.1,0.1,0c0,0.1,0,0.1-0.1,0.1l-3.2,0.8L20.7,33.5C20.7,33.6,20.7,33.6,20.7,33.5z M21.7,37.4
		C21.6,37.4,21.6,37.3,21.7,37.4l-1-3.8c0-0.1,0-0.1,0.1-0.1c0,0,0.1,0,0.1,0l0.9,3.8C21.8,37.3,21.8,37.4,21.7,37.4L21.7,37.4z
		 M21.1,13c-0.1,0-0.1,0-0.1,0c0-0.1,0-0.1,0.1-0.1l2.6-1.3c0,0,0.1,0,0.2,0c0,0.1,0,0.1-0.1,0.2L21.1,13L21.1,13z M21.1,15.5
		L21.1,15.5C21,15.5,21,15.4,21,15.4l2.6-3.8c0.1-0.1,0.1-0.1,0.2,0c0.1,0.1,0.1,0.1,0,0.2l-2.6,3.8C21.1,15.5,21.1,15.5,21.1,15.5z
		 M21.1,15.5C21,15.5,21,15.4,21,15.4v-2.5c0-0.1,0-0.1,0.1-0.1c0.1,0,0.1,0,0.1,0.1v2.5C21.2,15.5,21.1,15.5,21.1,15.5z M21.1,15.5
		C21,15.5,21,15.5,21.1,15.5c-0.1-0.2-0.1-0.2,0-0.2l5.1-1.9c0.1,0,0.1,0,0.2,0.1c0,0,0,0.1-0.1,0.1L21.1,15.5
		C21.1,15.5,21.1,15.5,21.1,15.5z M21.9,18.5c0,0-0.1,0-0.1-0.1L21,15.5c0-0.1,0-0.1,0.1-0.1c0.1-0.1,0.1-0.1,0.1,0l0.8,3
		C22,18.4,21.9,18.4,21.9,18.5z M23.9,15.7l-2.8-0.2C21,15.5,21,15.4,21,15.4c0-0.1,0-0.1,0.1-0.1l2.8,0.2c0.1,0,0.1,0,0.1,0.1
		C24,15.7,23.9,15.7,23.9,15.7z M21.7,37.4C21.6,37.4,21.6,37.3,21.7,37.4c-0.2-0.1-0.1-0.2,0-0.2l2.3-1.4c0.1-0.1,0.1,0,0.2,0
		c0,0.1,0,0.1,0,0.1L21.7,37.4L21.7,37.4z M23.9,39.4L23.9,39.4l-2.3-2c-0.1-0.1-0.1-0.1,0-0.2c0.1-0.1,0.1-0.1,0.2,0l2.3,2
		C24.1,39.2,24.1,39.3,23.9,39.4C24,39.3,24,39.4,23.9,39.4z M21.8,40.9c-0.1,0-0.1,0-0.1-0.1l-0.1-3.5c0-0.1,0-0.1,0.1-0.1
		c0.1,0,0.1,0,0.1,0.1l0.1,3.5C21.9,40.9,21.9,40.9,21.8,40.9z M21.7,40.9c-0.1-0.1-0.1-0.1,0-0.2l2.2-1.6c0.1-0.1,0.1-0.1,0.1,0
		c0,0.1,0,0.1,0,0.1l-2.2,1.6H21.7L21.7,40.9z M21.8,40.9c-0.1,0-0.1,0-0.1-0.1c0-0.1,0-0.1,0.1-0.1H24c0.1,0,0.1,0,0.1,0.1
		c0,0.1,0,0.1-0.1,0.1H21.8z M23.9,32.8L23.9,32.8l-2.2-3.4c-0.1-0.1-0.1-0.1,0-0.1c0.1,0,0.1,0,0.2,0l2.1,3.4
		C24.1,32.7,24,32.8,23.9,32.8C24,32.8,24,32.8,23.9,32.8C24,32.8,24,32.8,23.9,32.8z M21.9,29.4L21.9,29.4c-0.1,0-0.1,0-0.1-0.1
		l1.1-3.1c0-0.1,0-0.1,0.1,0c0.1,0,0.1,0,0,0.1L21.9,29.4C21.9,29.4,21.9,29.4,21.9,29.4z M21.9,29.4c-0.1,0-0.1,0-0.1-0.1
		c0,0,0-0.1,0.1-0.1l2.1-0.4c0.1,0,0.1,0,0.1,0.1c0,0.1,0,0.1-0.1,0.1L21.9,29.4z M21.9,18.5C21.8,18.5,21.8,18.4,21.9,18.5
		c-0.1-0.1-0.1-0.1-0.1-0.2l2-2.7c0.1-0.1,0.1-0.1,0.2,0c0,0.1,0,0.1,0,0.1L21.9,18.5C21.9,18.4,21.9,18.4,21.9,18.5
		C21.9,18.4,21.9,18.5,21.9,18.5z M23.8,20.3C23.8,20.3,23.7,20.3,23.8,20.3l-2-1.9c-0.1,0-0.1-0.1,0-0.1c0,0,0.1,0,0.2,0l1.9,1.8
		C23.9,20.2,23.9,20.2,23.8,20.3C23.9,20.3,23.8,20.3,23.8,20.3z M24,29c-0.1,0-0.1,0-0.1,0l-1-2.7c-0.1-0.1-0.1-0.1,0-0.1
		c0.1-0.1,0.1-0.1,0.1,0l1.1,2.7C24.1,29,24,29,24,29z M22.9,26.3L22.9,26.3c-0.1,0-0.2,0-0.1-0.1l1-2.8c0-0.1,0-0.1,0.1-0.1
		c0.1,0.1,0.1,0.1,0.1,0.2L22.9,26.3C23,26.3,23,26.3,22.9,26.3z M22.9,26.3L22.9,26.3c-0.1-0.1-0.1-0.1-0.1-0.2l2.8-2.6
		c0,0,0.1,0,0.1,0c0.1,0.1,0.1,0.1,0,0.2L22.9,26.3L22.9,26.3z M26.2,26.6l-3.3-0.2c-0.1,0-0.1,0-0.1-0.1c0-0.1,0-0.1,0.1-0.1
		l3.3,0.2C26.2,26.4,26.3,26.4,26.2,26.6C26.3,26.6,26.2,26.6,26.2,26.6z M23.7,11.7C23.6,11.7,23.6,11.7,23.7,11.7
		c-0.1,0-0.1-0.1-0.1-0.2l1-1.4c0-0.1,0.1-0.1,0.1,0c0.1,0.1,0.1,0.1,0,0.2L23.7,11.7C23.7,11.7,23.7,11.7,23.7,11.7z M26.2,13.6
		C26.2,13.6,26.2,13.6,26.2,13.6l-2.6-2c0,0,0,0,0-0.1c0,0,0.1,0,0.2,0l2.6,1.9C26.4,13.5,26.4,13.5,26.2,13.6
		C26.3,13.6,26.3,13.6,26.2,13.6z M23.8,20.3c-0.1,0-0.1,0-0.1-0.1l0.1-4.5c0-0.1,0-0.1,0.1-0.1c0.1,0,0.1,0,0.1,0.1l-0.1,4.5
		C23.9,20.3,23.9,20.3,23.8,20.3z M23.9,23.6C23.8,23.6,23.8,23.6,23.9,23.6l-0.2-3.4c0-0.1,0-0.1,0.1-0.1c0.1,0,0.1,0,0.1,0.1
		l0.1,3.3C24,23.6,23.9,23.6,23.9,23.6z M23.9,15.7C23.8,15.7,23.8,15.7,23.9,15.7c-0.1-0.1-0.1-0.1,0-0.2l2.4-2.1c0,0,0.1,0,0.1,0
		c0,0.1,0,0.1,0,0.1L23.9,15.7L23.9,15.7z M27.3,15.9l-3.5-0.1c-0.1,0-0.1,0-0.1-0.1c0-0.1,0-0.1,0.1-0.1l3.5,0.1
		c0.1,0,0.1,0,0.1,0.1C27.5,15.8,27.4,15.9,27.3,15.9z M25.7,23.7l-1.8-0.2c-0.1,0-0.1,0-0.1-0.1c0-0.1,0-0.1,0.1-0.1l1.8,0.2
		c0.1,0,0.1,0,0.1,0.1C25.8,23.7,25.8,23.7,25.7,23.7z M24,29L24,29c-0.1-0.1-0.1-0.1-0.1-0.2l2.2-2.4c0.1-0.1,0.1-0.1,0.2,0
		c0,0.1,0,0.1,0,0.1L24,29L24,29z M24,29c-0.1,0-0.1,0-0.1-0.1c0-0.1,0-0.1,0.1-0.1l4.4-0.1c0.1,0,0.1,0,0.1,0.1
		c0,0.1,0,0.1-0.1,0.1L24,29z M23.9,32.8c-0.1-0.1-0.1-0.1-0.1-0.1v-3.8c0-0.1,0-0.1,0.1-0.1c0.1,0,0.1,0,0.1,0.1v3.8
		C24.1,32.8,24,32.8,23.9,32.8z M24,35.9c-0.1,0-0.1,0-0.1-0.1v-3.1c0-0.1,0-0.1,0.1-0.1c0.1,0,0.1,0,0.1,0.1L24,35.9
		C24.1,35.9,24,35.9,24,35.9z M23.9,39.4c-0.1-0.1-0.1-0.1-0.1-0.1v-3.4c0-0.1,0-0.1,0.1-0.1c0.1,0,0.1,0,0.1,0.1v3.4
		C24.1,39.3,24,39.4,23.9,39.4z M24,40.9c-0.1,0-0.1,0-0.1-0.1v-1.6c0-0.1,0-0.1,0.1-0.1c0.1,0,0.1,0,0.1,0.1v1.6
		C24.1,40.9,24,40.9,24,40.9z M24.7,10.3c-0.1,0-0.1,0-0.1-0.1c0-0.1,0-0.1,0.1-0.1l3.2,0c0.1,0,0.1,0,0.1,0.1c0,0.1,0,0.1-0.1,0.1
		L24.7,10.3z M26.2,13.6C26.2,13.6,26.1,13.6,26.2,13.6l-1.6-3.4c0-0.1,0-0.1,0.1-0.1c0,0,0.1,0,0.1,0l1.6,3.3
		C26.3,13.5,26.3,13.6,26.2,13.6L26.2,13.6z M27.8,12.2C27.8,12.2,27.7,12.2,27.8,12.2l-3.2-2c-0.1,0-0.1-0.1,0-0.1
		c0-0.1,0-0.1,0.1,0l3.1,1.9C27.9,12.1,27.9,12.1,27.8,12.2C27.8,12.2,27.8,12.2,27.8,12.2z M25.7,23.7
		C25.6,23.7,25.6,23.7,25.7,23.7c-0.1-0.2-0.1-0.2,0-0.2l2.1-0.4c0.1,0,0.1,0,0.1,0.1c0.1,0.1,0.1,0.1-0.1,0.1L25.7,23.7L25.7,23.7z
		 M26.2,26.6c0,0-0.1,0-0.1-0.1l-0.4-2.9c0-0.1,0-0.1,0.1-0.1c0,0,0.1,0,0.1,0.1l0.4,2.8C26.3,26.5,26.3,26.6,26.2,26.6z M28.3,28.9
		L28.3,28.9l-2.2-2.4c-0.1,0-0.1-0.1,0-0.1c0.1-0.1,0.1-0.1,0.2,0l2.2,2.4C28.5,28.8,28.5,28.9,28.3,28.9L28.3,28.9z M26.2,26.6
		c0,0-0.1,0-0.1-0.1c0-0.1,0-0.1,0.1-0.1l3.4-0.8c0.1,0,0.1,0,0.1,0.1c0,0,0,0.1-0.1,0.1L26.2,26.6z M26.2,26.6L26.2,26.6
		c-0.1-0.1-0.1-0.1-0.1-0.2l1.6-3.2c0-0.1,0-0.1,0.1,0c0.1,0.1,0.1,0.1,0,0.1L26.2,26.6C26.2,26.6,26.2,26.6,26.2,26.6z M26.2,13.6
		C26.2,13.6,26.2,13.6,26.2,13.6c-0.2-0.1-0.1-0.2,0-0.2l1.5-1.4c0,0,0.1,0,0.2,0c0,0.1,0,0.1,0,0.1L26.2,13.6
		C26.3,13.6,26.3,13.6,26.2,13.6z M27.3,15.9C27.3,15.9,27.3,15.8,27.3,15.9l-1.2-2.3c0-0.1,0-0.1,0-0.2c0.1,0,0.1,0,0.1,0l1.1,2.3
		C27.5,15.8,27.5,15.8,27.3,15.9L27.3,15.9z M31.8,14.6l-5.6-1c-0.1,0-0.1,0-0.1-0.1c0-0.1,0-0.1,0.1-0.1l5.6,1c0.1,0,0.1,0,0.1,0.1
		C31.9,14.6,31.9,14.6,31.8,14.6z M29.6,17l-2.3-1.1c-0.1,0-0.1,0,0-0.1c0.1-0.1,0.1-0.1,0.1,0l2.3,1.1c0,0,0,0.1,0,0.2L29.6,17
		L29.6,17z M27.3,15.9C27.3,15.9,27.3,15.8,27.3,15.9c-0.1-0.1-0.1-0.1,0-0.2l4.4-1.2c0.1,0,0.1,0,0.1,0c0,0.1,0,0.1,0,0.2
		L27.3,15.9L27.3,15.9z M31.8,14.6C31.8,14.6,31.8,14.6,31.8,14.6l-4.1-2.4c-0.1,0-0.1,0,0-0.1c0.1-0.1,0.1-0.1,0.1,0l4,2.4
		C32,14.4,32,14.5,31.8,14.6C31.9,14.6,31.9,14.6,31.8,14.6z M29.5,25.7C29.5,25.7,29.5,25.7,29.5,25.7l-1.8-2.4
		c-0.1-0.1-0.1-0.1,0-0.2c0.1,0,0.1,0,0.2,0l1.7,2.4C29.6,25.6,29.6,25.7,29.5,25.7C29.6,25.7,29.5,25.7,29.5,25.7z M27.8,12.2
		c-0.1,0-0.1,0-0.1-0.1l0.1-2c0-0.1,0-0.1,0.1-0.1c0.1,0,0.1,0,0.1,0.1l-0.1,2C27.9,12.2,27.8,12.2,27.8,12.2z M27.7,23.3
		c-0.1-0.1,0-0.1,0-0.2l1.8-1.3c0.1,0,0.1,0,0.2,0c0,0.1,0,0.1,0,0.2l-1.9,1.2H27.7L27.7,23.3z M27.7,12.1c0,0,0-0.1,0-0.1l3.2-1.6
		c0.1-0.1,0.1-0.1,0.1,0c0.1,0.1,0.1,0.1,0,0.1l-3.2,1.6L27.7,12.1C27.7,12.2,27.7,12.2,27.7,12.1z M31,10.6l-3.1-0.4
		c-0.1-0.1-0.1-0.1-0.1-0.1c0-0.1,0-0.2,0.1-0.1l3.1,0.4c0.1,0.1,0.1,0.1,0.1,0.1C31.1,10.6,31.1,10.6,31,10.6z M28.3,28.9
		C28.3,28.9,28.3,28.9,28.3,28.9c-0.1-0.1-0.1-0.2,0-0.2l4.2-1.2c0.1,0,0.1,0,0.1,0.1c0.1,0.1,0.1,0.1,0,0.1L28.3,28.9L28.3,28.9z
		 M28.3,29L28.3,29c-0.1,0-0.1-0.1-0.1-0.2l1.2-3.2c0-0.1,0-0.1,0.1,0c0.1,0,0.1,0,0.1,0.1l-1.2,3.2C28.4,29,28.4,29,28.3,29z
		 M32.6,27.8L32.6,27.8l-3.1-2.1c-0.1,0-0.1,0,0-0.1c0.1-0.1,0.1-0.1,0.2,0l3,2.1C32.7,27.6,32.7,27.7,32.6,27.8
		C32.6,27.8,32.6,27.8,32.6,27.8z M29.5,25.7C29.5,25.7,29.5,25.7,29.5,25.7c-0.1-0.1-0.1-0.1,0-0.2l2.7-2.3c0.1-0.1,0.1-0.1,0.1,0
		c0,0.1,0,0.1,0,0.1L29.5,25.7C29.6,25.7,29.5,25.7,29.5,25.7z M29.5,25.7c-0.1,0-0.1,0-0.1-0.1l0.1-3.6c0-0.1,0-0.1,0.1-0.1
		c0.1,0,0.1,0,0.1,0.1l-0.1,3.6C29.6,25.7,29.6,25.7,29.5,25.7z M29.6,17c-0.1-0.1-0.1-0.1,0-0.2l2.2-2.4c0.1-0.1,0.1-0.1,0.2,0
		c0.1,0.1,0.1,0.1,0,0.2l-2.2,2.4L29.6,17L29.6,17z M29.6,22.1c-0.1,0-0.1-0.1,0-0.1l2.8-2.7c0,0,0.1,0,0.1,0c0,0.1,0,0.1,0,0.1
		l-2.8,2.7H29.6C29.6,22.1,29.6,22.1,29.6,22.1z M30.5,19.6c0,0-0.1,0-0.1-0.1l-0.8-2.6c0-0.1,0-0.1,0.1-0.1c0.1,0,0.1,0,0.1,0.1
		l0.8,2.6C30.6,19.5,30.6,19.5,30.5,19.6L30.5,19.6z M29.7,22.1L29.7,22.1c-0.1,0-0.1-0.1-0.1-0.1l0.8-2.5c0-0.1,0.1-0.1,0.2-0.1
		c0.1,0.1,0.1,0.1,0,0.1L29.7,22.1C29.7,22.1,29.7,22.1,29.7,22.1z M32.2,23.4l-2.6-1.3c0,0,0-0.1,0-0.2c0,0,0.1,0,0.2,0l2.6,1.3
		c0,0,0,0.1,0,0.2L32.2,23.4L32.2,23.4z M30.5,19.6L30.5,19.6c-0.1,0-0.1,0-0.1-0.1l1.4-5c0-0.1,0-0.1,0.1,0c0.1,0,0.1,0,0,0.1
		L30.5,19.6C30.5,19.6,30.5,19.6,30.5,19.6z M30.5,19.6c-0.1,0-0.1,0-0.1-0.1c0-0.1,0-0.1,0.1-0.1l1.9-0.2c0.1,0,0.1,0,0.1,0.1
		c0,0.1,0,0.1-0.1,0.1L30.5,19.6z M33.8,11.9L33.8,11.9L31,10.6c-0.1,0-0.1,0,0-0.1c0.1-0.1,0.1-0.1,0.1,0l2.8,1.3
		c0.1,0,0.1,0,0.1,0.1C33.9,11.9,33.8,11.9,33.8,11.9z M31.8,14.6C31.8,14.6,31.8,14.6,31.8,14.6l-0.9-4.1c0-0.1,0-0.1,0.1-0.1
		c0,0,0.1,0,0.1,0.1l0.8,4C32,14.5,31.9,14.6,31.8,14.6L31.8,14.6z M31.8,14.6L31.8,14.6c-0.1-0.1-0.1-0.1-0.1-0.2l2-2.7
		c0.1-0.1,0.1-0.1,0.2,0c0,0.1,0,0.1,0,0.1L31.8,14.6C31.9,14.6,31.9,14.6,31.8,14.6z M35,17.1L35,17.1l-3.2-2.5
		c-0.1,0-0.1-0.1,0-0.1s0.1-0.1,0.2,0l3.1,2.4C35.1,16.9,35.1,17,35,17.1C35,17,35,17.1,35,17.1z M32.4,19.4
		C32.3,19.4,32.3,19.4,32.4,19.4l-0.6-4.9c-0.1-0.1,0-0.1,0.1-0.1c0,0,0.1,0,0.1,0.1l0.6,4.8C32.5,19.3,32.5,19.4,32.4,19.4
		L32.4,19.4z M32.2,23.3c-0.1-0.1-0.1-0.1,0-0.1l2.7-2.3c0,0,0.1,0,0.1,0C35,21,35,21,35,21.1l-2.7,2.3H32.2
		C32.2,23.4,32.2,23.4,32.2,23.3z M32.2,23.4L32.2,23.4c-0.1,0-0.1,0-0.1-0.1l0.2-4c0-0.1,0-0.1,0.1-0.1c0.1,0,0.1,0,0.1,0.1
		L32.2,23.4C32.3,23.4,32.3,23.4,32.2,23.4z M32.6,27.8C32.5,27.8,32.5,27.8,32.6,27.8l-0.4-4.5c0-0.1,0-0.1,0.1-0.1
		c0.1,0,0.1,0,0.1,0.1l0.4,4.4C32.7,27.7,32.6,27.8,32.6,27.8z M34.9,21.1L34.9,21.1l-2.6-1.7c-0.1-0.1-0.1-0.1,0-0.2
		c0.1-0.1,0.1-0.1,0.2,0l2.5,1.7C35,21,35,21,34.9,21.1C35,21,35,21.1,34.9,21.1z M32.4,19.4C32.4,19.4,32.3,19.4,32.4,19.4
		c-0.1-0.1-0.1-0.1,0-0.2l2.6-2.4c0,0,0.1,0,0.1,0c0.1,0.1,0.1,0.1,0,0.2L32.4,19.4C32.5,19.4,32.4,19.4,32.4,19.4z M32.6,27.8
		L32.6,27.8c-0.1,0-0.2,0-0.1-0.1l2.4-6.7c0-0.1,0-0.1,0.1,0c0.1,0,0.1,0,0.1,0.1L32.6,27.8C32.6,27.8,32.6,27.8,32.6,27.8z
		 M32.6,27.8C32.5,27.8,32.5,27.8,32.6,27.8c-0.1-0.1-0.1-0.1-0.1-0.2l2.3-1.9c0.1,0,0.1,0,0.1,0c0,0.1,0,0.1,0,0.1L32.6,27.8
		L32.6,27.8z M35.6,13.6C35.5,13.6,35.5,13.6,35.6,13.6l-1.8-1.7c-0.1-0.1-0.1-0.1,0-0.2c0,0,0.1,0,0.1,0l1.8,1.7
		C35.7,13.5,35.7,13.6,35.6,13.6C35.6,13.6,35.6,13.6,35.6,13.6z M35,17.1C34.9,17.1,34.9,17,35,17.1l-1.2-5.2c0-0.1,0-0.1,0.1-0.1
		c0.1-0.1,0.1-0.1,0.1,0l1.2,5.1C35.1,17,35,17,35,17.1L35,17.1z M34.8,25.9C34.8,25.9,34.8,25.9,34.8,25.9c-0.1,0-0.2-0.1-0.1-0.2
		l1.5-2.3c0.1-0.1,0.1-0.1,0.2,0c0,0.1,0,0.1,0,0.1L34.8,25.9C34.8,25.9,34.8,25.9,34.8,25.9z M34.8,25.9c-0.1,0-0.1,0-0.1-0.1
		l0.1-4.8c0-0.1,0-0.1,0.1-0.1c0.1,0,0.1,0,0.1,0.1l-0.1,4.8C34.9,25.9,34.9,25.9,34.8,25.9z M34.9,21.1
		C34.9,21.1,34.8,21,34.9,21.1c-0.2-0.1-0.1-0.2,0-0.2l2.4-1c0.1-0.1,0.1-0.1,0.1,0c0.1,0.1,0.1,0.1,0,0.1L34.9,21.1L34.9,21.1z
		 M36.3,23.6C36.3,23.6,36.3,23.6,36.3,23.6L34.8,21c-0.1-0.1-0.1-0.1,0-0.1c0.1-0.1,0.1-0.1,0.1,0l1.4,2.5
		C36.4,23.5,36.4,23.6,36.3,23.6L36.3,23.6z M34.9,21.1C34.9,21.1,34.8,21,34.9,21.1l0-4.1c0-0.1,0-0.1,0.1-0.1c0.1,0,0.1,0,0.1,0.1
		l0,4C35,21,35,21.1,34.9,21.1z M35,17.1C34.9,17,34.9,17,35,17.1c-0.1-0.1-0.1-0.1,0-0.2l1.7-1.4c0.1-0.1,0.1-0.1,0.2,0
		c0,0,0,0.1,0,0.1L35,17.1C35,17,35,17,35,17.1C35,17,35,17.1,35,17.1z M37.3,20.1C37.2,20.1,37.2,20,37.3,20.1l-2.4-3
		c0-0.1,0-0.1,0-0.2c0.1-0.1,0.1,0,0.1,0l2.3,3C37.4,20,37.4,20,37.3,20.1L37.3,20.1z M35,17.1c-0.1,0-0.1-0.1-0.1-0.1l0.6-3.4
		c0-0.1,0-0.1,0.1-0.1c0.1,0,0.1,0,0.1,0.1L35.1,17C35,17,35,17.1,35,17.1z M37.3,17.4L37.3,17.4L35,17.1c-0.1,0-0.1-0.1-0.1-0.1
		c0-0.1,0-0.1,0.1-0.1l2.3,0.4C37.4,17.2,37.4,17.3,37.3,17.4C37.4,17.4,37.4,17.4,37.3,17.4z M36.7,15.6L36.7,15.6l-1.2-2
		c0-0.1,0-0.1,0-0.2c0.1,0,0.1,0,0.2,0l1.1,1.9C36.8,15.5,36.8,15.5,36.7,15.6L36.7,15.6z M36.3,23.6c-0.1,0-0.1,0-0.1-0.1l0.9-3.5
		c0.1-0.1,0.1-0.1,0.1-0.1c0.1,0.1,0.1,0.1,0.1,0.1l-0.9,3.5C36.4,23.6,36.4,23.6,36.3,23.6z M37.3,17.4c-0.1,0-0.1,0-0.1,0
		l-0.6-1.9c0,0,0-0.1,0.1-0.1c0.1,0,0.1,0,0.1,0.1l0.6,1.8C37.5,17.4,37.5,17.4,37.3,17.4L37.3,17.4z M37.3,20.1
		c-0.1,0-0.1,0-0.1-0.1l0-2.6c0-0.1,0-0.1,0.1-0.1c0.1,0,0.1,0,0.1,0.1L37.3,20.1C37.4,20,37.3,20.1,37.3,20.1z"/>
</g>
</svg>
