
<svg width="140px" height="140px" viewBox="1 5 140 140" version="1.1" xmlns="http://www.w3.org/2000/svg" xmlns:xlink="http://www.w3.org/1999/xlink">
    <!-- Generator: Sketch 41.2 (35397) - http://www.bohemiancoding.com/sketch -->
    <desc>Created with Sketch.</desc>
    <defs></defs>
    <g id="poppy" stroke="none" stroke-width="1" fill="none" fill-rule="evenodd" transform="translate(1.000000, 5.000000)">
        <g id="XMLID_27_">
            <circle id="XMLID_3504_" fill="#009587" cx="70" cy="70" r="70"></circle>
            <g id="XMLID_2944_" transform="translate(90.000000, 73.000000)" fill="#FFFFFF">
                <path d="M0.17300534,26.759616 C0.0576684468,26.759616 -3.55271368e-15,26.7019475 -3.55271368e-15,26.6442791 L0.461347574,19.7817339 C0.576684468,19.666397 0.634352914,19.666397 0.634352914,19.666397 C0.749689808,19.666397 0.807358255,19.7240655 0.749689808,19.8394023 L0.288342234,26.6442791 C0.288342234,26.7019475 0.230673787,26.759616 0.17300534,26.759616 Z M0.17300534,26.759616 C0.0576684468,26.759616 -3.55271368e-15,26.7019475 -3.55271368e-15,26.6442791 C-3.55271368e-15,26.5289422 0.0576684468,26.4712737 0.17300534,26.4712737 L5.53617089,26.4712737 C5.65150778,26.4712737 5.65150778,26.5289422 5.65150778,26.6442791 C5.65150778,26.759616 5.59383933,26.759616 5.53617089,26.759616 L0.17300534,26.759616 Z M0.634352914,32.0651131 C0.519016021,32.0651131 0.461347574,32.0074446 0.461347574,31.8921077 L-3.55271368e-15,26.6442791 C-3.55271368e-15,26.5289422 0.0576684468,26.4712737 0.17300534,26.4712737 C0.288342234,26.4712737 0.288342234,26.5289422 0.288342234,26.6442791 L0.749689808,31.8921077 C0.749689808,32.0074446 0.692021361,32.0651131 0.634352914,32.0651131 Z M0.634352914,3.80757415 C0.576684468,3.80757415 0.519016021,3.80757415 0.519016021,3.74990571 C0.403679127,3.63456881 0.403679127,3.57690037 0.519016021,3.57690037 L4.38280195,0.232130454 C4.4404704,0.174462007 4.55580729,0.174462007 4.61347574,0.232130454 C4.72881263,0.347467348 4.72881263,0.405135794 4.61347574,0.405135794 L0.749689808,3.74990571 C0.692021361,3.74990571 0.634352914,3.80757415 0.634352914,3.80757415 Z M3.34476991,5.88363824 L0.519016021,3.74990571 C0.403679127,3.74990571 0.403679127,3.69223726 0.519016021,3.57690037 C0.576684468,3.51923192 0.634352914,3.51923192 0.692021361,3.51923192 L3.51777525,5.65296445 C3.63311215,5.76830134 3.63311215,5.88363824 3.5754437,5.88363824 L3.46010681,5.94130668 C3.40243836,5.94130668 3.34476991,5.88363824 3.34476991,5.88363824 Z M0.461347574,49.8846631 C0.346010681,49.8846631 0.346010681,49.8269947 0.461347574,49.7116578 L3.28710146,45.098182 C3.28710146,44.9828451 3.34476991,44.9828451 3.46010681,45.098182 C3.63311215,45.098182 3.63311215,45.1558505 3.51777525,45.2711874 L0.692021361,49.8846631 L0.576684468,49.9423316 C0.576684468,50 0.519016021,49.9423316 0.461347574,49.8846631 Z M0.634352914,42.906781 L0.576684468,42.906781 C0.403679127,42.906781 0.403679127,42.8491126 0.519016021,42.7337757 L4.38280195,34.4295194 C4.38280195,34.256514 4.4404704,34.256514 4.55580729,34.3718509 C4.67114419,34.4871878 4.67114419,34.5448563 4.61347574,34.5448563 L0.749689808,42.8491126 C0.749689808,42.906781 0.692021361,42.906781 0.634352914,42.906781 Z M0.634352914,0.462804241 C0.519016021,0.462804241 0.461347574,0.405135794 0.461347574,0.347467348 C0.461347574,0.232130454 0.519016021,0.174462007 0.634352914,0.174462007 L4.49813885,0.174462007 C4.55580729,0.174462007 4.61347574,0.232130454 4.61347574,0.347467348 C4.61347574,0.462804241 4.55580729,0.462804241 4.49813885,0.462804241 L0.634352914,0.462804241 Z M0.519016021,3.80757415 C0.403679127,3.74990571 0.403679127,3.63456881 0.403679127,3.63456881 L0.403679127,0.347467348 C0.403679127,0.232130454 0.461347574,0.174462007 0.576684468,0.174462007 C0.692021361,0.174462007 0.692021361,0.232130454 0.692021361,0.347467348 L0.692021361,3.63456881 C0.749689808,3.74990571 0.692021361,3.80757415 0.519016021,3.80757415 Z M0.519016021,11.6504829 C0.403679127,11.6504829 0.403679127,11.5928145 0.403679127,11.535146 L0.403679127,3.0002159 C0.403679127,2.884879 0.461347574,2.884879 0.576684468,2.884879 C0.692021361,2.884879 0.692021361,2.94254745 0.692021361,3.0002159 L0.692021361,11.4774776 C0.749689808,11.5928145 0.692021361,11.6504829 0.519016021,11.6504829 Z M0.519016021,11.6504829 L0.461347574,11.6504829 C0.403679127,11.6504829 0.403679127,11.5928145 0.403679127,11.4774776 L3.22943302,5.7106329 C3.28710146,5.65296445 3.40243836,5.595296 3.46010681,5.65296445 C3.5754437,5.76830134 3.5754437,5.82596979 3.51777525,5.82596979 L0.692021361,11.5928145 C0.692021361,11.5928145 0.634352914,11.6504829 0.519016021,11.6504829 Z M0.634352914,19.9547392 C0.519016021,19.9547392 0.461347574,19.8970708 0.461347574,19.8394023 L0.461347574,11.4774776 C0.461347574,11.3621407 0.519016021,11.3044722 0.576684468,11.3044722 C0.692021361,11.3044722 0.749689808,11.3621407 0.749689808,11.4774776 L0.749689808,19.7817339 C0.749689808,19.8970708 0.692021361,19.9547392 0.634352914,19.9547392 Z M3.5754437,13.8995523 L3.51777525,13.8995523 L0.461347574,11.6504829 C0.403679127,11.5928145 0.403679127,11.535146 0.403679127,11.4198091 C0.519016021,11.3044722 0.576684468,11.3044722 0.692021361,11.4198091 L3.74844904,13.6688785 C3.86378593,13.6688785 3.86378593,13.726547 3.74844904,13.8418839 C3.69078059,13.8418839 3.69078059,13.8995523 3.5754437,13.8995523 Z M0.634352914,19.9547392 C0.576684468,19.9547392 0.519016021,19.8970708 0.461347574,19.8394023 C0.461347574,19.7240655 0.519016021,19.666397 0.634352914,19.666397 L6.05518691,19.2050494 C6.1705238,19.2050494 6.22819225,19.2627179 6.22819225,19.3203863 C6.22819225,19.4357232 6.1705238,19.4933917 6.05518691,19.4933917 L0.634352914,19.9547392 Z M0.519016021,36.7939257 C0.403679127,36.7362572 0.403679127,36.6209204 0.403679127,36.6209204 L0.403679127,31.8921077 C0.403679127,31.8344393 0.461347574,31.7767708 0.576684468,31.7767708 C0.692021361,31.7767708 0.692021361,31.8344393 0.692021361,31.8921077 L0.692021361,36.6209204 C0.749689808,36.7362572 0.692021361,36.7939257 0.519016021,36.7939257 Z M0.519016021,36.7939257 L0.403679127,36.6785888 C0.403679127,36.5632519 0.403679127,36.5055835 0.461347574,36.5055835 L4.38280195,34.4295194 C4.49813885,34.3141825 4.55580729,34.3141825 4.55580729,34.4871878 C4.61347574,34.6025247 4.55580729,34.6601932 4.49813885,34.7755301 L0.634352914,36.7939257 C0.576684468,36.7939257 0.576684468,36.7939257 0.576684468,36.8515941 C0.634352914,36.7939257 0.576684468,36.7939257 0.519016021,36.7939257 Z M0.634352914,42.906781 C0.519016021,42.906781 0.461347574,42.8491126 0.461347574,42.7914442 L0.461347574,36.5632519 C0.461347574,36.5055835 0.519016021,36.447915 0.576684468,36.447915 C0.692021361,36.447915 0.749689808,36.5055835 0.749689808,36.5632519 L0.749689808,42.7914442 C0.749689808,42.906781 0.692021361,42.906781 0.634352914,42.906781 Z M0.634352914,50 C0.519016021,50 0.461347574,49.9423316 0.461347574,49.8269947 L0.461347574,42.8491126 C0.461347574,42.7337757 0.519016021,42.6761073 0.634352914,42.6761073 C0.749689808,42.6761073 0.749689808,42.7337757 0.749689808,42.8491126 L0.749689808,49.8269947 C0.749689808,49.8846631 0.692021361,50 0.634352914,50 Z M7.72757186,50 L0.634352914,50 C0.519016021,50 0.461347574,49.9423316 0.461347574,49.8269947 C0.461347574,49.7116578 0.519016021,49.7116578 0.634352914,49.7116578 L7.72757186,49.7116578 C7.78524031,49.7116578 7.84290876,49.7693262 7.84290876,49.8269947 C7.84290876,49.8846631 7.78524031,50 7.72757186,50 Z M5.53617089,26.759616 C5.42083399,26.759616 5.42083399,26.759616 5.42083399,26.7019475 L0.519016021,19.8970708 C0.403679127,19.7817339 0.403679127,19.7240655 0.519016021,19.666397 C0.634352914,19.666397 0.749689808,19.666397 0.749689808,19.7240655 L5.65150778,26.4712737 C5.76684468,26.5866106 5.70917623,26.6442791 5.59383933,26.7019475 L5.53617089,26.7019475 L5.53617089,26.759616 Z M0.519016021,32.0074446 C0.519016021,32.0074446 0.519016021,31.9497762 0.461347574,31.9497762 C0.346010681,31.8344393 0.346010681,31.7767708 0.461347574,31.6614339 L5.36316555,26.4136053 C5.42083399,26.2982684 5.53617089,26.2982684 5.59383933,26.4136053 C5.65150778,26.5289422 5.65150778,26.5866106 5.59383933,26.5866106 L0.749689808,32.0074446 L0.634352914,32.0651131 C0.576684468,32.0651131 0.519016021,32.0651131 0.519016021,32.0074446 Z M4.49813885,34.7178616 C4.4404704,34.7178616 4.4404704,34.7178616 4.4404704,34.6601932 L0.519016021,32.0074446 C0.403679127,31.9497762 0.403679127,31.8921077 0.519016021,31.8344393 C0.634352914,31.7191024 0.692021361,31.7191024 0.692021361,31.7767708 L4.55580729,34.4295194 C4.67114419,34.5448563 4.72881263,34.6025247 4.61347574,34.6601932 C4.55580729,34.7178616 4.55580729,34.7178616 4.49813885,34.7178616 Z M0.634352914,42.906781 L0.519016021,42.906781 C0.403679127,42.7914442 0.403679127,42.7337757 0.519016021,42.6761073 L5.99751846,37.8319577 C6.05518691,37.7742893 6.11285536,37.7742893 6.1705238,37.8319577 C6.22819225,37.9472946 6.22819225,38.0049631 6.1705238,38.1203 L0.749689808,42.9644495 L0.634352914,42.9644495 L0.634352914,42.906781 Z M3.34476991,45.3865243 L0.519016021,42.906781 C0.403679127,42.7914442 0.403679127,42.7337757 0.519016021,42.6761073 C0.634352914,42.5607704 0.692021361,42.5607704 0.749689808,42.6761073 L3.51777525,45.1558505 C3.63311215,45.2711874 3.63311215,45.3288558 3.5754437,45.3288558 L3.46010681,45.3865243 L3.34476991,45.3865243 L3.34476991,45.3865243 Z M0.634352914,19.9547392 L0.576684468,19.9547392 C0.461347574,19.8970708 0.461347574,19.7817339 0.519016021,19.7240655 L3.51777525,13.726547 C3.5754437,13.6112101 3.63311215,13.6112101 3.74844904,13.6112101 C3.80611749,13.6688785 3.80611749,13.726547 3.80611749,13.8995523 L0.749689808,19.8970708 C0.692021361,19.9547392 0.634352914,19.9547392 0.634352914,19.9547392 Z M6.51653448,8.99773436 L6.45886604,8.94006591 L3.34476991,5.88363824 C3.22943302,5.82596979 3.22943302,5.76830134 3.34476991,5.7106329 C3.40243836,5.65296445 3.46010681,5.65296445 3.51777525,5.7106329 L6.63187138,8.70939213 C6.68953982,8.82472902 6.68953982,8.88239747 6.63187138,8.94006591 C6.57420293,8.94006591 6.51653448,8.99773436 6.51653448,8.99773436 Z M7.72757186,50 L7.61223497,49.9423316 L3.34476991,45.3288558 C3.22943302,45.2711874 3.22943302,45.2135189 3.34476991,45.1558505 C3.46010681,45.0405136 3.51777525,45.0405136 3.63311215,45.1558505 L7.84290876,49.6539893 C7.95824565,49.7693262 7.95824565,49.8269947 7.84290876,49.8846631 L7.72757186,50 Z M3.46010681,5.94130668 L3.40243836,5.94130668 C3.28710146,5.94130668 3.28710146,5.88363824 3.28710146,5.76830134 L4.32513351,0.289798901 C4.4404704,0.174462007 4.49813885,0.174462007 4.49813885,0.174462007 C4.72881263,0.174462007 4.72881263,0.232130454 4.61347574,0.347467348 L3.5754437,5.82596979 C3.5754437,5.88363824 3.51777525,5.94130668 3.46010681,5.94130668 Z M3.46010681,5.94130668 C3.40243836,5.94130668 3.34476991,5.88363824 3.28710146,5.82596979 C3.28710146,5.7106329 3.34476991,5.65296445 3.40243836,5.65296445 L6.51653448,4.55726396 C6.63187138,4.44192707 6.68953982,4.44192707 6.68953982,4.61493241 C6.68953982,4.7302693 6.63187138,4.78793775 6.57420293,4.78793775 L3.51777525,5.88363824 L3.46010681,5.88363824 L3.46010681,5.94130668 Z M3.5754437,13.8995523 C3.46010681,13.8995523 3.46010681,13.8418839 3.46010681,13.7842154 L3.28710146,5.76830134 C3.28710146,5.65296445 3.34476991,5.65296445 3.46010681,5.65296445 C3.51777525,5.65296445 3.5754437,5.7106329 3.5754437,5.76830134 L3.80611749,13.7842154 C3.80611749,13.8418839 3.69078059,13.8995523 3.5754437,13.8995523 Z M3.46010681,45.3865243 L3.40243836,45.3865243 C3.28710146,45.3865243 3.28710146,45.3288558 3.28710146,45.2135189 L5.93985002,37.8896262 C5.93985002,37.7166208 5.99751846,37.7166208 6.11285536,37.8319577 C6.22819225,37.8319577 6.22819225,37.8896262 6.22819225,38.0049631 L3.5754437,45.2711874 C3.5754437,45.3288558 3.51777525,45.3865243 3.46010681,45.3865243 Z M3.46010681,45.3865243 C3.40243836,45.3865243 3.34476991,45.3288558 3.28710146,45.2711874 C3.28710146,45.2135189 3.34476991,45.1558505 3.40243836,45.098182 L7.43922963,43.9448131 C7.49689808,43.9448131 7.61223497,44.0024815 7.66990342,44.06015 C7.66990342,44.1754869 7.61223497,44.2331553 7.55456652,44.2331553 L3.46010681,45.3865243 Z M3.5754437,13.8995523 L3.51777525,13.8995523 C3.46010681,13.8418839 3.46010681,13.7842154 3.46010681,13.6688785 L6.34352914,8.76706057 C6.45886604,8.70939213 6.51653448,8.65172368 6.63187138,8.70939213 C6.68953982,8.76706057 6.68953982,8.82472902 6.68953982,8.88239747 L3.80611749,13.8418839 C3.74844904,13.8418839 3.69078059,13.8995523 3.5754437,13.8995523 Z M3.5754437,13.8995523 C3.46010681,13.8995523 3.46010681,13.8418839 3.46010681,13.7842154 C3.46010681,13.6688785 3.51777525,13.6112101 3.5754437,13.6112101 L7.78524031,13.4382048 C7.9005772,13.4382048 7.9005772,13.4958732 7.9005772,13.5535417 C7.9005772,13.6688785 7.84290876,13.726547 7.78524031,13.726547 L3.63311215,13.8995523 L3.5754437,13.8995523 Z M6.05518691,19.4933917 C5.93985002,19.4933917 5.93985002,19.4357232 5.93985002,19.3780548 L3.46010681,13.8418839 C3.46010681,13.726547 3.46010681,13.6112101 3.51777525,13.5535417 C3.63311215,13.5535417 3.74844904,13.6112101 3.74844904,13.6688785 L6.1705238,19.2050494 C6.22819225,19.3203863 6.1705238,19.3780548 6.11285536,19.4357232 L6.05518691,19.4357232 L6.05518691,19.4933917 Z M12.3987161,0.520472688 L4.49813885,0.462804241 C4.38280195,0.462804241 4.32513351,0.405135794 4.32513351,0.347467348 C4.32513351,0.232130454 4.38280195,0.174462007 4.49813885,0.174462007 L12.3987161,0.232130454 C12.5140529,0.232130454 12.5140529,0.289798901 12.5140529,0.347467348 C12.5140529,0.462804241 12.4563845,0.520472688 12.3987161,0.520472688 Z M4.49813885,34.7178616 C4.38280195,34.7178616 4.32513351,34.6601932 4.32513351,34.5448563 L5.36316555,26.5866106 C5.47850244,26.5289422 5.53617089,26.4712737 5.53617089,26.4712737 C5.76684468,26.4712737 5.76684468,26.5289422 5.65150778,26.6442791 L4.61347574,34.6025247 C4.61347574,34.6601932 4.55580729,34.7178616 4.49813885,34.7178616 Z M4.49813885,34.7178616 C4.4404704,34.7178616 4.38280195,34.7178616 4.38280195,34.6601932 C4.26746506,34.6025247 4.26746506,34.5448563 4.38280195,34.4871878 L7.66990342,31.2000864 C7.72757186,31.1424179 7.78524031,31.1424179 7.84290876,31.2000864 C7.9005772,31.3154233 7.9005772,31.3730917 7.84290876,31.4307601 L4.61347574,34.6601932 C4.55580729,34.7178616 4.55580729,34.7178616 4.49813885,34.7178616 Z M10.7263311,2.76954211 L10.6686626,2.76954211 L4.4404704,0.462804241 C4.32513351,0.347467348 4.32513351,0.289798901 4.38280195,0.289798901 C4.38280195,0.174462007 4.4404704,0.174462007 4.55580729,0.174462007 L10.7839995,2.48119988 C10.841668,2.48119988 10.8993364,2.53886832 10.8993364,2.65420522 C10.7839995,2.71187366 10.7263311,2.76954211 10.7263311,2.76954211 Z M6.57420293,4.84560619 C6.45886604,4.84560619 6.40119759,4.84560619 6.40119759,4.78793775 L4.38280195,0.405135794 C4.32513351,0.289798901 4.38280195,0.232130454 4.4404704,0.174462007 C4.55580729,0.174462007 4.61347574,0.174462007 4.61347574,0.232130454 L6.68953982,4.67260085 C6.80487672,4.78793775 6.80487672,4.84560619 6.63187138,4.84560619 L6.57420293,4.84560619 Z M6.05518691,38.1203 C5.93985002,38.1203 5.93985002,38.1203 5.93985002,38.0049631 L4.38280195,34.6025247 C4.32513351,34.5448563 4.38280195,34.4871878 4.4404704,34.4295194 C4.55580729,34.3141825 4.61347574,34.3141825 4.61347574,34.4871878 L6.22819225,37.8896262 C6.22819225,38.0049631 6.1705238,38.0626315 6.11285536,38.0626315 C6.11285536,38.1203 6.11285536,38.1203 6.05518691,38.1203 Z M5.53617089,26.759616 C5.42083399,26.759616 5.36316555,26.7019475 5.36316555,26.5866106 L5.93985002,19.3203863 C5.93985002,19.2050494 5.99751846,19.2050494 6.05518691,19.2050494 C6.1705238,19.2050494 6.22819225,19.2627179 6.22819225,19.3780548 L5.65150778,26.6442791 C5.65150778,26.7019475 5.59383933,26.759616 5.53617089,26.759616 Z M5.53617089,26.759616 C5.47850244,26.759616 5.42083399,26.7019475 5.36316555,26.6442791 C5.36316555,26.5289422 5.42083399,26.4712737 5.53617089,26.4712737 L9.45762527,26.125263 C9.51529371,26.125263 9.57296216,26.1829315 9.63063061,26.2982684 C9.63063061,26.4136053 9.57296216,26.4136053 9.45762527,26.4136053 L5.53617089,26.759616 Z M7.78524031,31.4307601 C7.66990342,31.4307601 7.61223497,31.4307601 7.61223497,31.3730917 L5.42083399,26.7019475 C5.36316555,26.6442791 5.42083399,26.5289422 5.47850244,26.4712737 C5.59383933,26.4712737 5.65150778,26.4712737 5.65150778,26.5289422 L7.9005772,31.2577548 C7.95824565,31.3154233 7.9005772,31.3730917 7.84290876,31.4307601 L7.78524031,31.4307601 Z M6.05518691,38.1203 L6.05518691,38.0626315 C5.88218157,38.0626315 5.82451312,38.0049631 5.93985002,37.8896262 L7.61223497,31.2577548 C7.72757186,31.1424179 7.78524031,31.1424179 7.78524031,31.1424179 C7.9005772,31.2000864 7.9005772,31.2577548 7.9005772,31.3154233 L6.22819225,38.0049631 C6.1705238,38.1203 6.11285536,38.1203 6.05518691,38.1203 Z M6.05518691,19.4933917 C5.99751846,19.4933917 5.99751846,19.4933917 5.99751846,19.4357232 C5.99751846,19.4357232 5.99751846,19.3780548 5.93985002,19.3780548 C5.88218157,19.2627179 5.93985002,19.2050494 5.99751846,19.147381 L10.841668,16.3216271 C10.9570049,16.2062902 11.0146733,16.2062902 11.0146733,16.3792955 C11.1300102,16.4946324 11.1300102,16.5523009 11.0146733,16.5523009 L6.11285536,19.4357232 L6.05518691,19.4357232 L6.05518691,19.4933917 Z M9.45762527,26.4136053 C9.34228837,26.4136053 9.34228837,26.4136053 9.34228837,26.3559368 L5.93985002,19.4357232 C5.88218157,19.3203863 5.93985002,19.2627179 5.99751846,19.2050494 C6.11285536,19.2050494 6.1705238,19.2050494 6.1705238,19.2627179 L9.57296216,26.2405999 C9.68829905,26.3559368 9.68829905,26.4136053 9.51529371,26.4136053 L9.45762527,26.4136053 Z M6.05518691,19.4933917 L5.99751846,19.4933917 C5.88218157,19.4357232 5.88218157,19.3203863 5.93985002,19.3203863 L7.61223497,13.4958732 C7.66990342,13.3805363 7.72757186,13.3805363 7.9005772,13.3805363 C8.07358255,13.3805363 8.07358255,13.4382048 7.95824565,13.5535417 L6.2858607,19.3780548 C6.1705238,19.4933917 6.11285536,19.4933917 6.05518691,19.4933917 Z M11.0146733,21.9731349 L10.9570049,21.9731349 L5.99751846,19.4933917 C5.88218157,19.4357232 5.88218157,19.3203863 5.93985002,19.2627179 C5.99751846,19.2050494 6.05518691,19.2050494 6.11285536,19.2050494 L11.0723418,21.7424611 C11.2453471,21.7424611 11.2453471,21.8001295 11.1300102,21.9154664 C11.1300102,21.9731349 11.1300102,21.9731349 11.0146733,21.9731349 Z M11.0723418,41.868749 L5.93985002,38.0626315 C5.82451312,37.9472946 5.82451312,37.8896262 5.88218157,37.8896262 C5.99751846,37.7742893 6.05518691,37.7166208 6.1705238,37.8319577 L11.3030156,41.6380752 C11.360684,41.6957437 11.360684,41.7534121 11.360684,41.8110806 L11.2453471,41.868749 L11.0723418,41.868749 Z M5.93985002,38.0049631 C5.93985002,37.8896262 5.99751846,37.8319577 6.05518691,37.8319577 L11.1876787,36.6209204 C11.3030156,36.5055835 11.360684,36.5055835 11.360684,36.6785888 C11.360684,36.7939257 11.3030156,36.8515941 11.2453471,36.8515941 L6.11285536,38.0626315 L6.05518691,38.1203 C5.93985002,38.1203 5.93985002,38.1203 5.93985002,38.0049631 Z M7.43922963,44.2331553 C7.32389274,44.2331553 7.32389274,44.1754869 7.32389274,44.1178184 L5.93985002,38.0049631 C5.93985002,37.8896262 5.99751846,37.8319577 6.05518691,37.8319577 C6.11285536,37.7742893 6.1705238,37.8319577 6.22819225,37.8896262 L7.66990342,44.06015 C7.66990342,44.1754869 7.61223497,44.2331553 7.55456652,44.2331553 L7.43922963,44.2331553 Z M6.57420293,4.84560619 C6.45886604,4.84560619 6.40119759,4.84560619 6.40119759,4.78793775 C6.40119759,4.67260085 6.45886604,4.61493241 6.51653448,4.61493241 L10.6686626,2.48119988 C10.7263311,2.42353143 10.7839995,2.48119988 10.9570049,2.53886832 C10.9570049,2.65420522 10.8993364,2.76954211 10.841668,2.76954211 L6.68953982,4.84560619 L6.57420293,4.84560619 Z M6.51653448,8.99773436 L6.45886604,8.94006591 C6.40119759,8.88239747 6.40119759,8.82472902 6.40119759,8.76706057 L10.5533258,2.48119988 C10.6686626,2.36586298 10.7263311,2.36586298 10.7839995,2.42353143 C10.8993364,2.53886832 10.8993364,2.59653677 10.7839995,2.71187366 L6.63187138,8.82472902 C6.57420293,8.94006591 6.51653448,8.99773436 6.51653448,8.99773436 Z M6.51653448,8.99773436 C6.40119759,8.88239747 6.40119759,8.82472902 6.40119759,8.82472902 L6.40119759,4.7302693 C6.40119759,4.61493241 6.45886604,4.55726396 6.57420293,4.55726396 C6.68953982,4.55726396 6.68953982,4.61493241 6.68953982,4.7302693 L6.68953982,8.82472902 C6.68953982,8.88239747 6.63187138,8.99773436 6.51653448,8.99773436 Z M6.51653448,8.99773436 C6.40119759,8.99773436 6.40119759,8.94006591 6.40119759,8.88239747 C6.40119759,8.76706057 6.45886604,8.70939213 6.51653448,8.70939213 L14.7631224,5.595296 C14.8784593,5.595296 14.9937962,5.65296445 15.0514646,5.7106329 C15.0514646,5.76830134 14.9937962,5.82596979 14.9361277,5.88363824 L6.57420293,8.94006591 C6.57420293,8.94006591 6.51653448,8.99773436 6.51653448,8.99773436 Z M7.78524031,13.6688785 C7.72757186,13.6688785 7.66990342,13.6112101 7.61223497,13.5535417 L6.40119759,8.82472902 C6.40119759,8.70939213 6.45886604,8.65172368 6.51653448,8.65172368 C6.63187138,8.53638679 6.68953982,8.53638679 6.68953982,8.70939213 L7.9005772,13.4958732 C7.95824565,13.5535417 7.9005772,13.6112101 7.78524031,13.6688785 Z M11.0146733,9.28607659 L6.51653448,8.99773436 C6.40119759,8.88239747 6.40119759,8.82472902 6.40119759,8.82472902 C6.40119759,8.70939213 6.45886604,8.65172368 6.57420293,8.70939213 L11.0146733,9.05540281 C11.1300102,9.05540281 11.1876787,9.11307125 11.1876787,9.22840815 C11.2453471,9.22840815 11.1300102,9.28607659 11.0146733,9.28607659 Z M7.43922963,44.2331553 C7.38156118,44.2331553 7.32389274,44.2331553 7.32389274,44.1754869 C7.20855584,44.06015 7.20855584,44.0024815 7.38156118,44.0024815 L11.0723418,41.6957437 C11.1300102,41.6380752 11.2453471,41.6380752 11.3030156,41.7534121 C11.3030156,41.868749 11.3030156,41.9264175 11.2453471,41.9264175 L7.49689808,44.2331553 L7.43922963,44.2331553 Z M11.1300102,47.4625883 L11.0723418,47.4049199 L7.38156118,44.2331553 C7.26622429,44.1754869 7.20855584,44.06015 7.32389274,44.0024815 C7.43922963,43.9448131 7.49689808,43.9448131 7.55456652,44.0024815 L11.2453471,47.1742461 C11.360684,47.289583 11.360684,47.3472514 11.2453471,47.4625883 C11.2453471,47.4049199 11.1876787,47.4625883 11.1300102,47.4625883 Z M7.72757186,50 C7.61223497,50 7.55456652,49.9423316 7.55456652,49.8269947 L7.38156118,44.1178184 C7.38156118,44.0024815 7.43922963,43.9448131 7.49689808,43.9448131 C7.61223497,43.9448131 7.66990342,44.0024815 7.66990342,44.1178184 L7.84290876,49.8269947 C7.84290876,49.8846631 7.78524031,50 7.72757186,50 Z M7.61223497,49.8846631 C7.49689808,49.7693262 7.49689808,49.7116578 7.61223497,49.6539893 L11.1300102,47.1165777 C11.2453471,47.0012408 11.3030156,47.0012408 11.3030156,47.1742461 C11.360684,47.289583 11.360684,47.3472514 11.3030156,47.3472514 L7.78524031,49.8846631 L7.72757186,49.9423316 L7.61223497,49.8846631 Z M7.72757186,50 C7.61223497,50 7.55456652,49.9423316 7.55456652,49.8269947 C7.55456652,49.7116578 7.61223497,49.7116578 7.72757186,49.7116578 L11.2453471,49.7116578 C11.3030156,49.7116578 11.360684,49.7693262 11.360684,49.8269947 C11.360684,49.9423316 11.3030156,50 11.2453471,50 L7.72757186,50 Z M11.1300102,36.9092626 L11.0146733,36.7939257 L7.66990342,31.3730917 C7.55456652,31.2577548 7.55456652,31.2000864 7.66990342,31.2000864 C7.78524031,31.1424179 7.9005772,31.1424179 7.9005772,31.2000864 L11.3030156,36.6785888 C11.3030156,36.7939257 11.3030156,36.8515941 11.2453471,36.8515941 C11.1876787,36.8515941 11.1876787,36.8515941 11.1876787,36.9092626 C11.2453471,36.9092626 11.1876787,36.9092626 11.1300102,36.9092626 Z M7.78524031,31.4307601 L7.72757186,31.4307601 C7.61223497,31.4307601 7.61223497,31.3730917 7.61223497,31.2577548 L9.34228837,26.2982684 C9.34228837,26.125263 9.39995682,26.125263 9.51529371,26.2405999 C9.57296216,26.2405999 9.63063061,26.2982684 9.57296216,26.4136053 L7.9005772,31.3730917 C7.9005772,31.3730917 7.9005772,31.4307601 7.78524031,31.4307601 Z M7.78524031,31.4307601 C7.66990342,31.4307601 7.61223497,31.3730917 7.61223497,31.3154233 C7.61223497,31.2577548 7.66990342,31.2000864 7.72757186,31.1424179 L11.1300102,30.508065 C11.2453471,30.508065 11.3030156,30.5657334 11.3030156,30.6234019 C11.3030156,30.7387388 11.2453471,30.7964072 11.1876787,30.7964072 L7.78524031,31.4307601 Z M7.78524031,13.6688785 C7.72757186,13.6688785 7.66990342,13.6688785 7.66990342,13.6112101 C7.55456652,13.5535417 7.55456652,13.4958732 7.66990342,13.4382048 L10.8993364,9.05540281 C10.9570049,8.94006591 11.0723418,8.94006591 11.1300102,9.05540281 C11.1876787,9.1707397 11.1876787,9.22840815 11.1300102,9.22840815 L7.9005772,13.6112101 C7.84290876,13.6112101 7.84290876,13.6112101 7.84290876,13.6688785 C7.84290876,13.6688785 7.84290876,13.6688785 7.78524031,13.6688785 Z M10.8993364,16.6676378 C10.841668,16.6676378 10.841668,16.6676378 10.841668,16.6099693 L7.66990342,13.6112101 C7.55456652,13.5535417 7.55456652,13.4958732 7.66990342,13.4382048 C7.72757186,13.3805363 7.78524031,13.3805363 7.9005772,13.3805363 L11.0146733,16.3792955 C11.1300102,16.4946324 11.1300102,16.5523009 11.0146733,16.6676378 C11.0146733,16.6676378 10.9570049,16.6676378 10.8993364,16.6676378 Z M11.2453471,30.7387388 C11.1300102,30.7387388 11.0723418,30.7387388 11.0723418,30.6810703 L9.39995682,26.3559368 C9.28461993,26.2405999 9.28461993,26.1829315 9.45762527,26.1829315 C9.57296216,26.0675946 9.63063061,26.0675946 9.63063061,26.2405999 L11.360684,30.5657334 C11.360684,30.6810703 11.3030156,30.7387388 11.2453471,30.7387388 Z M9.45762527,26.4136053 L9.39995682,26.4136053 C9.22695148,26.4136053 9.22695148,26.3559368 9.34228837,26.2405999 L10.8993364,21.8001295 C10.8993364,21.6847926 10.9570049,21.6847926 11.0723418,21.6847926 C11.1300102,21.8001295 11.1876787,21.857798 11.1876787,21.9731349 L9.57296216,26.4136053 C9.57296216,26.4136053 9.57296216,26.4136053 9.45762527,26.4136053 Z M9.45762527,26.4136053 L9.34228837,26.4136053 C9.22695148,26.2982684 9.22695148,26.2405999 9.34228837,26.1829315 L13.9557641,21.9154664 C14.0134326,21.857798 14.071101,21.857798 14.1287695,21.9154664 C14.1864379,22.0308033 14.1864379,22.0884718 14.1287695,22.1461402 L9.57296216,26.4136053 L9.45762527,26.4136053 Z M14.7631224,26.8172844 L9.45762527,26.4136053 C9.28461993,26.4136053 9.22695148,26.3559368 9.34228837,26.2982684 C9.34228837,26.1829315 9.39995682,26.125263 9.45762527,26.125263 L14.7631224,26.5289422 C14.8784593,26.5289422 14.8784593,26.5866106 14.8784593,26.7019475 C14.8784593,26.759616 14.8784593,26.8172844 14.7631224,26.8172844 Z M10.7263311,2.76954211 C10.6686626,2.76954211 10.6686626,2.76954211 10.6686626,2.71187366 C10.6109942,2.71187366 10.6109942,2.65420522 10.6109942,2.53886832 L12.2833792,0.289798901 C12.3410476,0.174462007 12.3987161,0.116793561 12.4563845,0.232130454 C12.5140529,0.347467348 12.5717214,0.405135794 12.5140529,0.520472688 L10.841668,2.76954211 L10.7263311,2.76954211 Z M14.8207908,5.88363824 C14.7631224,5.88363824 14.7631224,5.88363824 14.7631224,5.82596979 L10.6109942,2.71187366 C10.5533258,2.71187366 10.5533258,2.65420522 10.5533258,2.53886832 C10.6109942,2.48119988 10.6686626,2.48119988 10.7839995,2.48119988 L14.9361277,5.595296 C15.0514646,5.7106329 15.0514646,5.76830134 14.9361277,5.82596979 C14.9937962,5.82596979 14.9361277,5.88363824 14.8207908,5.88363824 Z M10.8993364,16.6676378 C10.7839995,16.6676378 10.7839995,16.6099693 10.7839995,16.4946324 L10.8993364,9.1707397 C10.8993364,9.05540281 10.9570049,8.99773436 11.0146733,8.99773436 C11.1300102,8.99773436 11.1876787,9.05540281 11.1876787,9.1707397 L11.0723418,16.4946324 C11.0723418,16.6099693 11.0146733,16.6676378 10.8993364,16.6676378 Z M11.0146733,21.9731349 C10.8993364,21.9731349 10.8993364,21.9154664 10.8993364,21.857798 L10.7839995,16.4946324 C10.7839995,16.436964 10.841668,16.3792955 10.8993364,16.3792955 C11.0146733,16.3792955 11.0723418,16.436964 11.0723418,16.4946324 L11.1876787,21.857798 C11.2453471,21.9154664 11.1300102,21.9731349 11.0146733,21.9731349 Z M11.0146733,9.28607659 C10.9570049,9.28607659 10.8993364,9.28607659 10.8993364,9.22840815 C10.841668,9.1707397 10.8993364,9.11307125 10.9570049,9.05540281 L14.7631224,5.65296445 C14.8207908,5.595296 14.8784593,5.595296 14.9361277,5.65296445 C14.9937962,5.76830134 14.9937962,5.82596979 14.9361277,5.82596979 L11.1300102,9.28607659 L11.0146733,9.28607659 Z M16.6661811,9.51675038 L11.0146733,9.34374504 C10.8993364,9.34374504 10.8993364,9.28607659 10.8993364,9.22840815 C10.8993364,9.11307125 10.9570049,9.05540281 11.0146733,9.05540281 L16.6661811,9.22840815 C16.781518,9.22840815 16.8391865,9.28607659 16.8391865,9.40141349 C16.8391865,9.45908193 16.781518,9.51675038 16.6661811,9.51675038 Z M14.0134326,22.2038087 L11.0146733,21.9154664 C10.8993364,21.9154664 10.8993364,21.857798 10.8993364,21.8001295 C10.8993364,21.6847926 10.9570049,21.6271242 11.0146733,21.6271242 L14.0134326,21.9154664 C14.1287695,21.9154664 14.1864379,21.9731349 14.1864379,22.0308033 C14.1864379,22.1461402 14.1287695,22.2038087 14.0134326,22.2038087 Z M11.2453471,30.7387388 L11.1300102,30.7387388 C11.0146733,30.6234019 11.0146733,30.5657334 11.1300102,30.4503966 L14.7054539,26.5289422 C14.8207908,26.4712737 14.8784593,26.4712737 14.9937962,26.5289422 C15.0514646,26.6442791 15.0514646,26.7019475 14.9937962,26.7019475 L11.360684,30.7387388 L11.2453471,30.7387388 Z M11.2453471,30.7387388 C11.1300102,30.7387388 11.0723418,30.6810703 11.0723418,30.6234019 C11.0723418,30.508065 11.1300102,30.4503966 11.2453471,30.4503966 L18.2808976,30.3350597 C18.3962345,30.3350597 18.453903,30.3927281 18.453903,30.508065 C18.453903,30.6234019 18.3962345,30.6234019 18.2808976,30.6234019 L11.2453471,30.7387388 Z M11.1300102,36.9092626 C11.0146733,36.8515941 11.0146733,36.7362572 11.0146733,36.7362572 L11.0146733,30.6234019 C11.0146733,30.508065 11.0723418,30.4503966 11.1876787,30.4503966 C11.2453471,30.4503966 11.3030156,30.508065 11.3030156,30.6234019 L11.3030156,36.6785888 C11.360684,36.8515941 11.3030156,36.9092626 11.1300102,36.9092626 Z M11.2453471,41.868749 C11.1300102,41.868749 11.0723418,41.8110806 11.0723418,41.7534121 L11.0723418,36.7362572 C11.0723418,36.6209204 11.1300102,36.6209204 11.1876787,36.6209204 C11.3030156,36.6209204 11.360684,36.6785888 11.360684,36.7362572 L11.360684,41.7534121 C11.360684,41.868749 11.3030156,41.868749 11.2453471,41.868749 Z M11.1300102,47.4625883 C11.0146733,47.4049199 11.0146733,47.289583 11.0146733,47.289583 L11.0146733,41.8110806 C11.0146733,41.6957437 11.0723418,41.6380752 11.1876787,41.6380752 C11.2453471,41.6380752 11.3030156,41.6957437 11.3030156,41.8110806 L11.3030156,47.289583 C11.360684,47.4049199 11.3030156,47.4625883 11.1300102,47.4625883 Z M11.2453471,50 C11.1300102,50 11.0723418,49.9423316 11.0723418,49.8269947 L11.0723418,47.2319146 C11.0723418,47.1165777 11.1300102,47.1165777 11.1876787,47.1165777 C11.3030156,47.1165777 11.360684,47.1742461 11.360684,47.2319146 L11.360684,49.7693262 C11.360684,49.8846631 11.3030156,50 11.2453471,50 Z M12.3987161,0.520472688 C12.2833792,0.520472688 12.2257107,0.462804241 12.2257107,0.347467348 C12.2257107,0.289798901 12.2833792,0.232130454 12.3987161,0.232130454 L17.5888763,0.174462007 C17.7042132,0.174462007 17.7042132,0.232130454 17.7042132,0.289798901 C17.7042132,0.405135794 17.6465447,0.462804241 17.5888763,0.462804241 L12.3987161,0.520472688 Z M14.8207908,5.88363824 C14.7054539,5.88363824 14.7054539,5.82596979 14.7054539,5.76830134 L12.1680423,0.405135794 C12.1680423,0.289798901 12.2257107,0.232130454 12.2833792,0.232130454 C12.3410476,0.174462007 12.3987161,0.232130454 12.4563845,0.289798901 L14.9937962,5.65296445 C14.9937962,5.76830134 14.9361277,5.88363824 14.8784593,5.88363824 L14.8207908,5.88363824 L14.8207908,5.88363824 Z M17.3582025,3.63456881 C17.300534,3.63456881 17.300534,3.63456881 17.300534,3.57690037 L12.2833792,0.462804241 C12.1680423,0.405135794 12.1680423,0.347467348 12.2833792,0.289798901 C12.2833792,0.116793561 12.3410476,0.116793561 12.4563845,0.232130454 L17.4158709,3.34622658 C17.5312078,3.46156347 17.5312078,3.51923192 17.4735394,3.57690037 C17.4735394,3.57690037 17.4158709,3.63456881 17.3582025,3.63456881 Z M14.0134326,22.2038087 C13.8980957,22.2038087 13.8980957,22.1461402 13.8980957,22.0884718 C13.8980957,21.9731349 13.9557641,21.9154664 14.0134326,21.9154664 L17.3582025,21.338782 C17.4735394,21.338782 17.4735394,21.3964504 17.4735394,21.4541189 C17.5888763,21.5694558 17.5312078,21.6271242 17.3582025,21.6271242 L14.071101,22.2038087 L14.0134326,22.2038087 Z M14.7631224,26.8172844 C14.7054539,26.8172844 14.6477855,26.759616 14.590117,26.7019475 L13.8980957,22.0308033 C13.8980957,21.9154664 13.9557641,21.9154664 14.0134326,21.9154664 C14.071101,21.857798 14.1287695,21.9154664 14.1864379,22.0308033 L14.8784593,26.6442791 C15.0514646,26.759616 14.9937962,26.8172844 14.7631224,26.8172844 Z M18.2808976,30.6234019 L18.1655607,30.6234019 L14.6477855,26.759616 C14.5324486,26.7019475 14.5324486,26.6442791 14.6477855,26.5866106 C14.7631224,26.5289422 14.8207908,26.5289422 14.9361277,26.5866106 L18.453903,30.3927281 C18.5115714,30.508065 18.5115714,30.5657334 18.453903,30.6810703 L18.2808976,30.6810703 L18.2808976,30.6234019 Z M14.7631224,26.8172844 C14.7054539,26.8172844 14.6477855,26.759616 14.590117,26.7019475 C14.590117,26.5866106 14.6477855,26.5289422 14.7054539,26.5289422 L20.1262879,25.1448995 C20.2416248,25.1448995 20.2992933,25.2025679 20.2992933,25.2602363 C20.2992933,25.3179048 20.2416248,25.3755732 20.1839564,25.4332417 L14.7631224,26.8172844 Z M14.7631224,26.8172844 L14.7054539,26.8172844 C14.590117,26.7019475 14.590117,26.6442791 14.6477855,26.5289422 L17.2428656,21.338782 C17.2428656,21.1657766 17.300534,21.1657766 17.4158709,21.2811135 C17.5312078,21.3964504 17.5312078,21.4541189 17.4735394,21.4541189 L14.8784593,26.7019475 C14.8784593,26.8172844 14.8207908,26.8172844 14.7631224,26.8172844 Z M14.8207908,5.88363824 C14.7631224,5.88363824 14.7054539,5.88363824 14.7054539,5.82596979 C14.590117,5.7106329 14.590117,5.65296445 14.7631224,5.65296445 L17.2428656,3.34622658 C17.300534,3.28855813 17.3582025,3.34622658 17.5312078,3.40389503 C17.5888763,3.51923192 17.5888763,3.57690037 17.5312078,3.57690037 L14.9937962,5.82596979 C14.9361277,5.82596979 14.8784593,5.88363824 14.8207908,5.88363824 Z M16.6661811,9.51675038 C16.5508442,9.51675038 16.5508442,9.51675038 16.5508442,9.45908193 L14.7631224,5.82596979 C14.7054539,5.76830134 14.7631224,5.65296445 14.8207908,5.595296 C14.9361277,5.595296 14.9937962,5.595296 14.9937962,5.65296445 L16.781518,9.34374504 C16.8968549,9.45908193 16.8391865,9.51675038 16.7238496,9.51675038 L16.6661811,9.51675038 Z M23.874737,7.49835474 L14.8207908,5.88363824 C14.7054539,5.88363824 14.7054539,5.82596979 14.7054539,5.7106329 C14.7054539,5.65296445 14.7631224,5.595296 14.8784593,5.595296 L23.9324054,7.21001251 C24.0477423,7.21001251 24.0477423,7.26768096 24.0477423,7.38301785 C23.9900738,7.4406863 23.9324054,7.49835474 23.874737,7.49835474 Z M20.2416248,11.3044722 L16.5508442,9.51675038 C16.3778389,9.51675038 16.3778389,9.45908193 16.4931758,9.34374504 C16.6085127,9.28607659 16.6661811,9.22840815 16.6661811,9.28607659 L20.4146301,11.01613 C20.4722986,11.0737984 20.4722986,11.1314669 20.4722986,11.3044722 L20.3569617,11.3621407 L20.2416248,11.3621407 L20.2416248,11.3044722 Z M16.6661811,9.51675038 C16.5508442,9.51675038 16.5508442,9.51675038 16.5508442,9.45908193 C16.4931758,9.34374504 16.5508442,9.28607659 16.6661811,9.1707397 L23.8170685,7.15234406 C23.9324054,7.09467562 23.9900738,7.15234406 23.9900738,7.21001251 C24.0477423,7.3253494 23.9900738,7.38301785 23.9324054,7.4406863 L16.6661811,9.45908193 L16.6661811,9.45908193 L16.6661811,9.51675038 Z M23.874737,7.49835474 C23.8170685,7.49835474 23.8170685,7.49835474 23.8170685,7.4406863 L17.300534,3.57690037 C17.1275287,3.57690037 17.1275287,3.51923192 17.2428656,3.40389503 C17.3582025,3.34622658 17.4158709,3.28855813 17.4158709,3.34622658 L23.9324054,7.21001251 C24.0477423,7.26768096 24.1054107,7.3253494 23.9900738,7.38301785 C24.0477423,7.4406863 23.9900738,7.49835474 23.874737,7.49835474 Z M20.1262879,25.4909101 C20.0686195,25.4332417 20.010951,25.4332417 20.010951,25.4332417 L17.2428656,21.6271242 C17.1275287,21.5117873 17.1275287,21.4541189 17.2428656,21.3964504 C17.3582025,21.338782 17.4158709,21.3964504 17.5312078,21.4541189 L20.2992933,25.2602363 C20.3569617,25.3755732 20.3569617,25.4332417 20.2992933,25.4332417 C20.2416248,25.4332417 20.1839564,25.4909101 20.1262879,25.4909101 Z M17.3582025,3.63456881 C17.2428656,3.63456881 17.1851971,3.57690037 17.1851971,3.46156347 L17.3582025,0.289798901 C17.3582025,0.174462007 17.4158709,0.174462007 17.5312078,0.174462007 C17.6465447,0.174462007 17.6465447,0.232130454 17.6465447,0.289798901 L17.4735394,3.40389503 C17.4735394,3.51923192 17.4735394,3.63456881 17.3582025,3.63456881 Z M17.2428656,21.5694558 C17.1275287,21.4541189 17.1851971,21.3964504 17.300534,21.338782 L20.2992933,19.2627179 C20.4146301,19.2627179 20.529967,19.2627179 20.5876355,19.3203863 C20.5876355,19.4357232 20.5876355,19.5510601 20.529967,19.5510601 L17.4735394,21.5694558 L17.4158709,21.6271242 L17.2428656,21.5694558 Z M17.2428656,3.46156347 C17.1851971,3.40389503 17.2428656,3.34622658 17.300534,3.28855813 L22.4906942,0.751146475 C22.6060311,0.635809581 22.6636996,0.635809581 22.6636996,0.808814922 C22.7790365,0.924151815 22.7790365,0.981820262 22.6060311,0.981820262 L17.4158709,3.51923192 L17.3582025,3.57690037 C17.2428656,3.63456881 17.2428656,3.57690037 17.2428656,3.46156347 Z M22.5483627,1.03948871 L17.5312078,0.462804241 C17.4158709,0.347467348 17.4158709,0.289798901 17.4158709,0.289798901 C17.4158709,0.0591251138 17.4735394,0.00145666708 17.5888763,0.174462007 L22.6060311,0.751146475 C22.721368,0.866483368 22.721368,0.924151815 22.721368,0.924151815 C22.721368,0.981820262 22.6636996,1.03948871 22.5483627,1.03948871 Z M18.2808976,30.6234019 C18.1655607,30.6234019 18.1655607,30.6234019 18.1655607,30.5657334 C18.0502238,30.4503966 18.1078923,30.3927281 18.2808976,30.3927281 L24.9704374,28.4320009 C25.0857743,28.4320009 25.1434428,28.4896694 25.1434428,28.5473378 C25.2587797,28.6626747 25.2587797,28.7203431 25.0857743,28.7203431 L18.2808976,30.6234019 L18.2808976,30.6234019 Z M18.2808976,30.6810703 L18.2808976,30.6234019 C18.1655607,30.6234019 18.1655607,30.5657334 18.1655607,30.4503966 L20.0686195,25.2025679 C20.0686195,25.0295626 20.1262879,25.0295626 20.2416248,25.1448995 C20.2992933,25.1448995 20.3569617,25.2025679 20.3569617,25.3179048 L18.453903,30.5657334 C18.3962345,30.6810703 18.2808976,30.6810703 18.2808976,30.6810703 Z M25.0281059,28.7780116 L24.9704374,28.7780116 L20.0686195,25.4332417 C19.8956141,25.4332417 19.8956141,25.3755732 20.010951,25.2602363 C20.1262879,25.1448995 20.1839564,25.1448995 20.2416248,25.2025679 L25.0857743,28.5473378 C25.2587797,28.5473378 25.2587797,28.6050063 25.1434428,28.7203431 C25.2011112,28.7203431 25.1434428,28.7780116 25.0281059,28.7780116 Z M20.1262879,25.4909101 C20.0686195,25.4909101 20.010951,25.4909101 20.010951,25.4332417 C19.8956141,25.3755732 19.9532826,25.3179048 20.0686195,25.2025679 L24.393753,21.4541189 C24.5090899,21.338782 24.5667583,21.338782 24.5667583,21.4541189 C24.6244268,21.5694558 24.6244268,21.6271242 24.5667583,21.6271242 L20.2416248,25.4332417 C20.2416248,25.4332417 20.1839564,25.4909101 20.1262879,25.4909101 Z M20.1262879,25.4909101 C20.010951,25.4909101 20.010951,25.4332417 20.010951,25.3179048 L20.1839564,19.4357232 C20.1839564,19.3780548 20.2416248,19.3203863 20.3569617,19.3203863 C20.4722986,19.3203863 20.4722986,19.3780548 20.4722986,19.4933917 L20.3569617,25.2602363 C20.3569617,25.3755732 20.2416248,25.4909101 20.1262879,25.4909101 Z M20.2416248,11.3044722 C20.1262879,11.2468038 20.1262879,11.1314669 20.2416248,11.0737984 L23.7594001,7.21001251 C23.874737,7.15234406 23.9324054,7.15234406 24.0477423,7.21001251 C24.1054107,7.3253494 24.1054107,7.38301785 24.0477423,7.49835474 L20.4722986,11.3044722 L20.4146301,11.3621407 L20.2416248,11.3621407 L20.2416248,11.3044722 Z M20.2416248,19.4933917 C20.1262879,19.4357232 20.1262879,19.3780548 20.2416248,19.3203863 L24.6820952,14.9375844 C24.7397637,14.8799159 24.7974321,14.8799159 24.8551005,14.9375844 C24.912769,15.0529213 24.912769,15.1105897 24.8551005,15.1105897 L20.4146301,19.4933917 L20.4146301,19.5510601 C20.2992933,19.5510601 20.2416248,19.5510601 20.2416248,19.4933917 Z M21.683336,15.5142688 C21.6256675,15.5142688 21.5679991,15.4566004 21.5103306,15.3989319 L20.2416248,11.1891353 C20.2416248,11.0737984 20.2992933,11.01613 20.3569617,11.01613 C20.4722986,11.01613 20.529967,11.0737984 20.529967,11.1314669 L21.7986729,15.3412635 C21.8563413,15.3989319 21.7986729,15.4566004 21.7410044,15.5142688 L21.683336,15.5142688 Z M20.4146301,19.5510601 L20.3569617,19.5510601 C20.2416248,19.4933917 20.2416248,19.4357232 20.2416248,19.3780548 L21.5103306,15.2835951 C21.5679991,15.1682582 21.6256675,15.1682582 21.7986729,15.1682582 C21.8563413,15.2835951 21.9140098,15.3412635 21.8563413,15.3412635 L20.5876355,19.4357232 C20.529967,19.5510601 20.4722986,19.5510601 20.4146301,19.5510601 Z M24.393753,21.6271242 L20.2416248,19.5510601 C20.1839564,19.4933917 20.1839564,19.4357232 20.1839564,19.3203863 C20.2416248,19.2627179 20.2992933,19.2627179 20.4146301,19.2627179 L24.5667583,21.338782 C24.6244268,21.3964504 24.6244268,21.4541189 24.6244268,21.5694558 L24.5090899,21.6271242 L24.393753,21.6271242 Z M21.683336,15.5142688 L21.6256675,15.5142688 C21.5103306,15.5142688 21.5103306,15.4566004 21.5103306,15.3412635 L23.7594001,7.26768096 C23.7594001,7.15234406 23.8170685,7.15234406 23.9324054,7.21001251 C24.0477423,7.21001251 24.0477423,7.26768096 23.9900738,7.38301785 L21.7986729,15.3989319 C21.7986729,15.4566004 21.7986729,15.5142688 21.683336,15.5142688 Z M21.683336,15.5142688 C21.5679991,15.5142688 21.5103306,15.4566004 21.5103306,15.3989319 C21.5103306,15.2835951 21.5679991,15.2259266 21.683336,15.2259266 L24.7974321,14.8799159 C24.912769,14.8799159 24.9704374,14.9375844 24.9704374,14.9952528 C24.9704374,15.1105897 24.912769,15.1682582 24.8551005,15.1682582 L21.683336,15.5142688 Z M27.0465015,3.17322124 L26.9888331,3.17322124 L22.4906942,1.03948871 C22.3176889,1.03948871 22.3176889,0.981820262 22.4330258,0.866483368 C22.5483627,0.751146475 22.6060311,0.751146475 22.6060311,0.808814922 L27.10417,2.94254745 C27.2195069,2.94254745 27.2195069,3.0002159 27.2195069,3.11555279 C27.2195069,3.11555279 27.1618384,3.17322124 27.0465015,3.17322124 Z M23.874737,7.49835474 C23.7594001,7.49835474 23.7594001,7.4406863 23.7594001,7.38301785 L22.3753573,0.924151815 C22.3753573,0.808814922 22.4330258,0.751146475 22.4906942,0.751146475 C22.5483627,0.751146475 22.6060311,0.808814922 22.6636996,0.866483368 L24.0477423,7.3253494 C24.0477423,7.38301785 23.9900738,7.4406863 23.9324054,7.49835474 L23.874737,7.49835474 L23.874737,7.49835474 Z M23.874737,7.49835474 L23.8170685,7.4406863 C23.7017316,7.38301785 23.6440632,7.3253494 23.7594001,7.26768096 L26.9311646,2.94254745 C26.9888331,2.884879 27.10417,2.884879 27.1618384,2.94254745 C27.2195069,3.05788434 27.2195069,3.11555279 27.1618384,3.11555279 L24.0477423,7.4406863 C23.9900738,7.4406863 23.9324054,7.49835474 23.874737,7.49835474 Z M28.9495603,11.4198091 L28.8918918,11.3621407 L23.8170685,7.4406863 C23.7017316,7.38301785 23.6440632,7.3253494 23.7594001,7.26768096 C23.874737,7.15234406 23.9324054,7.15234406 24.0477423,7.21001251 L29.0648972,11.1314669 C29.1225656,11.2468038 29.1225656,11.3044722 29.0648972,11.3621407 C29.0072287,11.4198091 28.9495603,11.4198091 28.9495603,11.4198091 Z M24.7974321,15.1682582 C24.6820952,15.1682582 24.6820952,15.1105897 24.6820952,15.0529213 L23.7594001,7.26768096 C23.6440632,7.15234406 23.7017316,7.15234406 23.874737,7.15234406 C23.9324054,7.09467562 23.9900738,7.15234406 24.0477423,7.26768096 L24.9704374,14.9952528 C24.9704374,15.1105897 24.912769,15.1682582 24.8551005,15.1682582 L24.7974321,15.1682582 Z M24.393753,21.5694558 C24.2784161,21.4541189 24.2784161,21.3964504 24.393753,21.3964504 L28.7765549,17.6480014 C28.8342234,17.5903329 28.8918918,17.5903329 28.9495603,17.6480014 C29.0648972,17.7633383 29.0648972,17.8210067 28.9495603,17.8786752 L24.5667583,21.5694558 L24.5090899,21.6271242 C24.4514214,21.6271242 24.393753,21.6271242 24.393753,21.5694558 Z M24.5090899,21.6271242 L24.4514214,21.6271242 C24.3360845,21.6271242 24.3360845,21.5694558 24.3360845,21.4541189 L24.6820952,15.0529213 C24.6820952,14.9375844 24.7397637,14.8799159 24.7974321,14.8799159 C24.912769,14.8799159 24.9704374,14.9375844 24.9704374,15.0529213 L24.6244268,21.5117873 C24.6820952,21.6271242 24.6244268,21.6271242 24.5090899,21.6271242 Z M25.0281059,28.7780116 C24.912769,28.7780116 24.912769,28.7203431 24.912769,28.6626747 L24.3360845,21.5694558 C24.3360845,21.4541189 24.393753,21.3964504 24.4514214,21.3964504 C24.5667583,21.3964504 24.6244268,21.4541189 24.6244268,21.5117873 L25.2011112,28.6050063 C25.2587797,28.7203431 25.2011112,28.7780116 25.0281059,28.7780116 Z M28.8918918,17.8786752 L28.8342234,17.8786752 L24.7397637,15.1682582 C24.6244268,15.0529213 24.5667583,14.9952528 24.6820952,14.9375844 C24.7974321,14.8222475 24.8551005,14.8222475 24.9704374,14.9375844 L29.0648972,17.6480014 C29.1225656,17.7633383 29.1225656,17.8210067 29.0648972,17.8210067 C29.0072287,17.8786752 28.9495603,17.8786752 28.8918918,17.8786752 Z M24.7974321,15.1682582 C24.7397637,15.1682582 24.6820952,15.1682582 24.6820952,15.1105897 C24.6820952,15.0529213 24.6820952,14.9375844 24.7397637,14.9375844 L28.8918918,11.1314669 C28.9495603,11.0737984 29.0072287,11.0737984 29.0648972,11.1314669 C29.1225656,11.2468038 29.1225656,11.3044722 29.0648972,11.3621407 L24.912769,15.1105897 C24.912769,15.1682582 24.8551005,15.1682582 24.7974321,15.1682582 Z M25.0281059,28.7780116 L24.9704374,28.7780116 C24.7974321,28.7780116 24.7974321,28.7203431 24.912769,28.6050063 L28.7188865,17.7633383 C28.7188865,17.5903329 28.7765549,17.5903329 28.8918918,17.7056698 C29.0072287,17.7056698 29.0072287,17.7633383 29.0072287,17.8786752 L25.1434428,28.6626747 C25.2011112,28.7203431 25.1434428,28.7780116 25.0281059,28.7780116 Z M25.0281059,28.7780116 C24.9704374,28.7780116 24.912769,28.7780116 24.912769,28.7203431 C24.7974321,28.6626747 24.7974321,28.6050063 24.912769,28.5473378 L28.6035496,25.4332417 C28.661218,25.4332417 28.7765549,25.4332417 28.7765549,25.4909101 C28.8342234,25.606247 28.8342234,25.6639155 28.7765549,25.6639155 L25.2011112,28.7780116 L25.0281059,28.7780116 Z M29.9299239,5.94130668 C29.8722554,5.94130668 29.8722554,5.94130668 29.8722554,5.88363824 L27.0465015,3.17322124 C26.9311646,3.05788434 26.9311646,3.0002159 27.0465015,2.884879 C27.10417,2.82721056 27.1618384,2.82721056 27.2195069,2.884879 L30.0452608,5.65296445 C30.1029292,5.76830134 30.1029292,5.82596979 30.0452608,5.82596979 C30.0452608,5.88363824 29.9875923,5.94130668 29.9299239,5.94130668 Z M28.9495603,11.4198091 C28.8342234,11.4198091 28.8342234,11.3621407 28.8342234,11.3044722 L26.9888331,3.11555279 C26.9888331,3.0002159 27.0465015,2.94254745 27.10417,2.94254745 C27.2195069,2.82721056 27.2771753,2.82721056 27.2771753,3.0002159 L29.1225656,11.3044722 C29.1225656,11.3621407 29.0648972,11.4198091 29.0072287,11.4774776 L28.9495603,11.4774776 L28.9495603,11.4198091 Z M28.661218,25.7215839 C28.6035496,25.7215839 28.6035496,25.7215839 28.6035496,25.6639155 C28.4305442,25.6639155 28.4305442,25.606247 28.5458811,25.4909101 L31.0256244,21.7424611 C31.1409612,21.6271242 31.1986297,21.6271242 31.2562981,21.7424611 C31.3139666,21.857798 31.3139666,21.9154664 31.2562981,21.9154664 L28.7765549,25.6639155 C28.7765549,25.7215839 28.7188865,25.7215839 28.661218,25.7215839 Z M28.661218,25.7215839 C28.5458811,25.7215839 28.5458811,25.6639155 28.5458811,25.5485786 L28.7188865,17.7633383 C28.7188865,17.6480014 28.7765549,17.5903329 28.8342234,17.5903329 C28.9495603,17.5903329 29.0072287,17.6480014 29.0072287,17.7633383 L28.8342234,25.606247 C28.8918918,25.6639155 28.7765549,25.7215839 28.661218,25.7215839 Z M28.8918918,17.8786752 C28.7765549,17.8786752 28.7765549,17.8786752 28.7765549,17.8210067 C28.661218,17.7056698 28.661218,17.6480014 28.8342234,17.6480014 L32.6403409,16.0332849 C32.7556778,15.917948 32.8133462,15.917948 32.8133462,16.0909533 C32.9286831,16.2062902 32.9286831,16.2639587 32.7556778,16.2639587 L28.9495603,17.8786752 L28.8918918,17.8786752 Z M31.1409612,21.9731349 C31.0832928,21.9731349 31.0256244,21.9731349 31.0256244,21.9154664 L28.7188865,17.8210067 C28.6035496,17.7056698 28.6035496,17.6480014 28.7765549,17.6480014 C28.8918918,17.5326645 28.9495603,17.5326645 28.9495603,17.7056698 L31.2562981,21.8001295 C31.2562981,21.9154664 31.2562981,21.9731349 31.1986297,21.9731349 L31.1409612,21.9731349 Z M28.8918918,17.8786752 C28.7765549,17.8786752 28.7765549,17.8210067 28.7765549,17.7633383 L28.8342234,11.2468038 C28.8342234,11.0737984 28.8918918,11.01613 28.9495603,11.1314669 C29.0648972,11.1314669 29.1225656,11.1891353 29.1225656,11.2468038 L29.0648972,17.7633383 C29.0648972,17.8786752 29.0072287,17.8786752 28.8918918,17.8786752 Z M28.9495603,11.4198091 C28.8918918,11.3621407 28.8342234,11.3621407 28.8342234,11.3621407 C28.7188865,11.3044722 28.7765549,11.2468038 28.8918918,11.1314669 L31.6023088,8.82472902 C31.7176457,8.70939213 31.7753142,8.70939213 31.8329826,8.82472902 C31.8906511,8.88239747 31.8329826,8.94006591 31.7753142,8.99773436 L29.0648972,11.3621407 C29.0072287,11.3621407 29.0072287,11.3621407 29.0072287,11.4198091 L28.9495603,11.4198091 Z M32.6980093,16.2639587 C32.5826724,16.2639587 32.5826724,16.2639587 32.5826724,16.2062902 L28.8342234,11.3621407 C28.7765549,11.2468038 28.8342234,11.1891353 28.8918918,11.1314669 C28.9495603,11.0737984 29.0648972,11.0737984 29.0648972,11.1891353 L32.8133462,16.0332849 C32.8710146,16.1486218 32.8133462,16.2062902 32.7556778,16.3216271 L32.6980093,16.3216271 L32.6980093,16.2639587 Z M28.9495603,11.4198091 C28.8342234,11.3621407 28.8342234,11.3044722 28.8342234,11.2468038 L29.814587,5.76830134 C29.814587,5.65296445 29.8722554,5.65296445 29.9875923,5.65296445 C30.0452608,5.65296445 30.1029292,5.7106329 30.1029292,5.82596979 L29.1225656,11.3044722 C29.0648972,11.3621407 28.9495603,11.4198091 28.9495603,11.4198091 Z M32.7556778,11.9964936 L32.6980093,11.9964936 L28.9495603,11.4198091 C28.8342234,11.3621407 28.8342234,11.3044722 28.8342234,11.2468038 C28.8342234,11.1314669 28.8918918,11.0737984 29.0072287,11.1314669 L32.7556778,11.7081514 C32.8710146,11.7658198 32.8710146,11.8234883 32.8710146,11.8811567 C32.8710146,11.9964936 32.8133462,11.9964936 32.7556778,11.9964936 Z M31.7176457,9.05540281 L31.6023088,8.99773436 L29.814587,5.88363824 C29.814587,5.76830134 29.814587,5.65296445 29.8722554,5.65296445 C29.9875923,5.65296445 30.1029292,5.65296445 30.1029292,5.7106329 L31.8329826,8.82472902 C31.8906511,8.94006591 31.8329826,8.99773436 31.7753142,9.05540281 L31.7176457,9.05540281 Z M31.1409612,21.9731349 C31.0256244,21.9731349 31.0256244,21.9154664 31.0256244,21.8001295 L32.4673355,16.0909533 C32.5826724,15.9756164 32.6403409,15.9756164 32.6403409,15.9756164 C32.7556778,16.0909533 32.8133462,16.1486218 32.7556778,16.1486218 L31.3139666,21.857798 C31.2562981,21.9154664 31.1986297,21.9731349 31.1409612,21.9731349 Z M32.7556778,11.9964936 C32.6403409,11.9964936 32.5826724,11.9964936 32.5826724,11.9388251 L31.5446404,8.88239747 C31.5446404,8.82472902 31.6023088,8.76706057 31.6599773,8.70939213 C31.7753142,8.70939213 31.8329826,8.76706057 31.8329826,8.82472902 L32.8710146,11.8234883 C32.9863515,11.9388251 32.9863515,11.9964936 32.8133462,11.9964936 L32.7556778,11.9964936 L32.7556778,11.9964936 Z M32.6980093,16.2639587 C32.5826724,16.2639587 32.525004,16.2062902 32.525004,16.1486218 L32.5826724,11.8811567 C32.5826724,11.7658198 32.6403409,11.7081514 32.7556778,11.7081514 C32.8710146,11.7081514 32.8710146,11.7658198 32.8710146,11.8811567 L32.8133462,16.1486218 C32.8133462,16.2639587 32.7556778,16.2639587 32.6980093,16.2639587 Z" id="XMLID_2945_"></path>
            </g>
        </g>
    </g>
</svg>