<?xml version="1.0" encoding="utf-8"?>
<!-- Generator: Adobe Illustrator 19.0.0, SVG Export Plug-In . SVG Version: 6.00 Build 0)  -->
<svg version="1.1" id="Ebene_1" xmlns="http://www.w3.org/2000/svg" xmlns:xlink="http://www.w3.org/1999/xlink" x="0px" y="0px"
	 viewBox="0 0 140 140" style="enable-background:new 0 0 140 140;" xml:space="preserve">
<style type="text/css">
	.st0{fill:#009587;}
	.st1{fill:#FFFFFF;}
</style>
<g id="XMLID_27_">
	<circle id="XMLID_3504_" class="st0" cx="70" cy="70" r="70"/>
	<g id="XMLID_2944_">
		<path id="XMLID_2945_" class="st1" d="M48,74.5c-0.2,0-0.3-0.1-0.3-0.2l0.8-11.9c0.2-0.2,0.3-0.2,0.3-0.2c0.2,0,0.3,0.1,0.2,0.3
			l-0.8,11.8C48.2,74.4,48.1,74.5,48,74.5z M48,74.5c-0.2,0-0.3-0.1-0.3-0.2c0-0.2,0.1-0.3,0.3-0.3h9.3c0.2,0,0.2,0.1,0.2,0.3
			c0,0.2-0.1,0.2-0.2,0.2H48z M48.8,83.7c-0.2,0-0.3-0.1-0.3-0.3l-0.8-9.1c0-0.2,0.1-0.3,0.3-0.3c0.2,0,0.2,0.1,0.2,0.3l0.8,9.1
			C49,83.6,48.9,83.7,48.8,83.7z M48.8,34.7c-0.1,0-0.2,0-0.2-0.1c-0.2-0.2-0.2-0.3,0-0.3l6.7-5.8c0.1-0.1,0.3-0.1,0.4,0
			c0.2,0.2,0.2,0.3,0,0.3L49,34.6C48.9,34.6,48.8,34.7,48.8,34.7z M53.5,38.3l-4.9-3.7c-0.2,0-0.2-0.1,0-0.3
			c0.1-0.1,0.2-0.1,0.3-0.1l4.9,3.7c0.2,0.2,0.2,0.4,0.1,0.4l-0.2,0.1C53.6,38.4,53.5,38.3,53.5,38.3z M48.5,114.6
			c-0.2,0-0.2-0.1,0-0.3l4.9-8c0-0.2,0.1-0.2,0.3,0c0.3,0,0.3,0.1,0.1,0.3l-4.9,8l-0.2,0.1C48.7,114.8,48.6,114.7,48.5,114.6z
			 M48.8,102.5h-0.1c-0.3,0-0.3-0.1-0.1-0.3l6.7-14.4c0-0.3,0.1-0.3,0.3-0.1c0.2,0.2,0.2,0.3,0.1,0.3L49,102.4
			C49,102.5,48.9,102.5,48.8,102.5z M48.8,28.9c-0.2,0-0.3-0.1-0.3-0.2c0-0.2,0.1-0.3,0.3-0.3h6.7c0.1,0,0.2,0.1,0.2,0.3
			c0,0.2-0.1,0.2-0.2,0.2H48.8z M48.6,34.7c-0.2-0.1-0.2-0.3-0.2-0.3v-5.7c0-0.2,0.1-0.3,0.3-0.3c0.2,0,0.2,0.1,0.2,0.3v5.7
			C49,34.6,48.9,34.7,48.6,34.7z M48.6,48.3c-0.2,0-0.2-0.1-0.2-0.2V33.3c0-0.2,0.1-0.2,0.3-0.2c0.2,0,0.2,0.1,0.2,0.2V48
			C49,48.2,48.9,48.3,48.6,48.3z M48.6,48.3h-0.1c-0.1,0-0.1-0.1-0.1-0.3l4.9-10c0.1-0.1,0.3-0.2,0.4-0.1c0.2,0.2,0.2,0.3,0.1,0.3
			l-4.9,10C48.9,48.2,48.8,48.3,48.6,48.3z M48.8,62.7c-0.2,0-0.3-0.1-0.3-0.2V48c0-0.2,0.1-0.3,0.2-0.3c0.2,0,0.3,0.1,0.3,0.3v14.4
			C49,62.6,48.9,62.7,48.8,62.7z M53.9,52.2h-0.1l-5.3-3.9c-0.1-0.1-0.1-0.2-0.1-0.4c0.2-0.2,0.3-0.2,0.5,0l5.3,3.9
			c0.2,0,0.2,0.1,0,0.3C54.1,52.1,54.1,52.2,53.9,52.2z M48.8,62.7c-0.1,0-0.2-0.1-0.3-0.2c0-0.2,0.1-0.3,0.3-0.3l9.4-0.8
			c0.2,0,0.3,0.1,0.3,0.2c0,0.2-0.1,0.3-0.3,0.3L48.8,62.7z M48.6,91.9c-0.2-0.1-0.2-0.3-0.2-0.3v-8.2c0-0.1,0.1-0.2,0.3-0.2
			c0.2,0,0.2,0.1,0.2,0.2v8.2C49,91.8,48.9,91.9,48.6,91.9z M48.6,91.9l-0.2-0.2c0-0.2,0-0.3,0.1-0.3l6.8-3.6
			c0.2-0.2,0.3-0.2,0.3,0.1c0.1,0.2,0,0.3-0.1,0.5l-6.7,3.5c-0.1,0-0.1,0-0.1,0.1C48.8,91.9,48.7,91.9,48.6,91.9z M48.8,102.5
			c-0.2,0-0.3-0.1-0.3-0.2V91.5c0-0.1,0.1-0.2,0.2-0.2c0.2,0,0.3,0.1,0.3,0.2v10.8C49,102.5,48.9,102.5,48.8,102.5z M48.8,114.8
			c-0.2,0-0.3-0.1-0.3-0.3v-12.1c0-0.2,0.1-0.3,0.3-0.3c0.2,0,0.2,0.1,0.2,0.3v12.1C49,114.6,48.9,114.8,48.8,114.8z M61.1,114.8
			H48.8c-0.2,0-0.3-0.1-0.3-0.3c0-0.2,0.1-0.2,0.3-0.2h12.3c0.1,0,0.2,0.1,0.2,0.2C61.3,114.6,61.2,114.8,61.1,114.8z M57.3,74.5
			c-0.2,0-0.2,0-0.2-0.1l-8.5-11.8c-0.2-0.2-0.2-0.3,0-0.4c0.2,0,0.4,0,0.4,0.1L57.5,74c0.2,0.2,0.1,0.3-0.1,0.4H57.3z M48.6,83.6
			c0,0,0-0.1-0.1-0.1c-0.2-0.2-0.2-0.3,0-0.5l8.5-9.1c0.1-0.2,0.3-0.2,0.4,0c0.1,0.2,0.1,0.3,0,0.3L49,83.6l-0.2,0.1
			C48.7,83.7,48.6,83.7,48.6,83.6z M55.5,88.3c-0.1,0-0.1,0-0.1-0.1l-6.8-4.6c-0.2-0.1-0.2-0.2,0-0.3c0.2-0.2,0.3-0.2,0.3-0.1
			l6.7,4.6c0.2,0.2,0.3,0.3,0.1,0.4C55.6,88.3,55.6,88.3,55.5,88.3z M48.8,102.5h-0.2c-0.2-0.2-0.2-0.3,0-0.4l9.5-8.4
			c0.1-0.1,0.2-0.1,0.3,0c0.1,0.2,0.1,0.3,0,0.5l-9.4,8.4H48.8z M53.5,106.8l-4.9-4.3c-0.2-0.2-0.2-0.3,0-0.4c0.2-0.2,0.3-0.2,0.4,0
			l4.8,4.3c0.2,0.2,0.2,0.3,0.1,0.3l-0.2,0.1H53.5z M48.8,62.7h-0.1c-0.2-0.1-0.2-0.3-0.1-0.4l5.2-10.4c0.1-0.2,0.2-0.2,0.4-0.2
			c0.1,0.1,0.1,0.2,0.1,0.5L49,62.6C48.9,62.7,48.8,62.7,48.8,62.7z M59,43.7l-0.1-0.1l-5.4-5.3c-0.2-0.1-0.2-0.2,0-0.3
			c0.1-0.1,0.2-0.1,0.3,0l5.4,5.2c0.1,0.2,0.1,0.3,0,0.4C59.1,43.6,59,43.7,59,43.7z M61.1,114.8l-0.2-0.1l-7.4-8
			c-0.2-0.1-0.2-0.2,0-0.3c0.2-0.2,0.3-0.2,0.5,0l7.3,7.8c0.2,0.2,0.2,0.3,0,0.4L61.1,114.8z M53.7,38.4h-0.1
			c-0.2,0-0.2-0.1-0.2-0.3l1.8-9.5c0.2-0.2,0.3-0.2,0.3-0.2c0.4,0,0.4,0.1,0.2,0.3l-1.8,9.5C53.9,38.3,53.8,38.4,53.7,38.4z
			 M53.7,38.4c-0.1,0-0.2-0.1-0.3-0.2c0-0.2,0.1-0.3,0.2-0.3L59,36c0.2-0.2,0.3-0.2,0.3,0.1c0,0.2-0.1,0.3-0.2,0.3l-5.3,1.9H53.7z
			 M53.9,52.2c-0.2,0-0.2-0.1-0.2-0.2l-0.3-13.9c0-0.2,0.1-0.2,0.3-0.2c0.1,0,0.2,0.1,0.2,0.2L54.3,52
			C54.3,52.1,54.1,52.2,53.9,52.2z M53.7,106.8h-0.1c-0.2,0-0.2-0.1-0.2-0.3L58,93.8c0-0.3,0.1-0.3,0.3-0.1c0.2,0,0.2,0.1,0.2,0.3
			l-4.6,12.6C53.9,106.7,53.8,106.8,53.7,106.8z M53.7,106.8c-0.1,0-0.2-0.1-0.3-0.2c0-0.1,0.1-0.2,0.2-0.3l7-2
			c0.1,0,0.3,0.1,0.4,0.2c0,0.2-0.1,0.3-0.2,0.3L53.7,106.8z M53.9,52.2h-0.1c-0.1-0.1-0.1-0.2-0.1-0.4l5-8.5
			c0.2-0.1,0.3-0.2,0.5-0.1c0.1,0.1,0.1,0.2,0.1,0.3l-5,8.6C54.2,52.1,54.1,52.2,53.9,52.2z M53.9,52.2c-0.2,0-0.2-0.1-0.2-0.2
			c0-0.2,0.1-0.3,0.2-0.3l7.3-0.3c0.2,0,0.2,0.1,0.2,0.2c0,0.2-0.1,0.3-0.2,0.3L54,52.2H53.9z M58.2,61.9c-0.2,0-0.2-0.1-0.2-0.2
			l-4.3-9.6c0-0.2,0-0.4,0.1-0.5c0.2,0,0.4,0.1,0.4,0.2l4.2,9.6c0.1,0.2,0,0.3-0.1,0.4H58.2z M69.2,29l-13.7-0.1
			c-0.2,0-0.3-0.1-0.3-0.2c0-0.2,0.1-0.3,0.3-0.3l13.7,0.1c0.2,0,0.2,0.1,0.2,0.2C69.4,28.9,69.3,29,69.2,29z M55.5,88.3
			c-0.2,0-0.3-0.1-0.3-0.3l1.8-13.8c0.2-0.1,0.3-0.2,0.3-0.2c0.4,0,0.4,0.1,0.2,0.3l-1.8,13.8C55.7,88.2,55.6,88.3,55.5,88.3z
			 M55.5,88.3c-0.1,0-0.2,0-0.2-0.1c-0.2-0.1-0.2-0.2,0-0.3l5.7-5.7c0.1-0.1,0.2-0.1,0.3,0c0.1,0.2,0.1,0.3,0,0.4l-5.6,5.6
			C55.6,88.3,55.6,88.3,55.5,88.3z M66.3,32.9h-0.1l-10.8-4c-0.2-0.2-0.2-0.3-0.1-0.3c0-0.2,0.1-0.2,0.3-0.2l10.8,4
			c0.1,0,0.2,0.1,0.2,0.3C66.4,32.8,66.3,32.9,66.3,32.9z M59.1,36.5c-0.2,0-0.3,0-0.3-0.1l-3.5-7.6c-0.1-0.2,0-0.3,0.1-0.4
			c0.2,0,0.3,0,0.3,0.1l3.6,7.7c0.2,0.2,0.2,0.3-0.1,0.3H59.1z M58.2,94.2C58,94.2,58,94.2,58,94l-2.7-5.9c-0.1-0.1,0-0.2,0.1-0.3
			c0.2-0.2,0.3-0.2,0.3,0.1l2.8,5.9c0,0.2-0.1,0.3-0.2,0.3C58.3,94.2,58.3,94.2,58.2,94.2z M57.3,74.5c-0.2,0-0.3-0.1-0.3-0.3
			l1-12.6c0-0.2,0.1-0.2,0.2-0.2c0.2,0,0.3,0.1,0.3,0.3l-1,12.6C57.5,74.4,57.4,74.5,57.3,74.5z M57.3,74.5c-0.1,0-0.2-0.1-0.3-0.2
			c0-0.2,0.1-0.3,0.3-0.3l6.8-0.6c0.1,0,0.2,0.1,0.3,0.3c0,0.2-0.1,0.2-0.3,0.2L57.3,74.5z M61.2,82.6c-0.2,0-0.3,0-0.3-0.1
			l-3.8-8.1c-0.1-0.1,0-0.3,0.1-0.4c0.2,0,0.3,0,0.3,0.1l3.9,8.2c0.1,0.1,0,0.2-0.1,0.3H61.2z M58.2,94.2v-0.1
			c-0.3,0-0.4-0.1-0.2-0.3l2.9-11.5c0.2-0.2,0.3-0.2,0.3-0.2c0.2,0.1,0.2,0.2,0.2,0.3L58.5,94C58.4,94.2,58.3,94.2,58.2,94.2z
			 M58.2,61.9c-0.1,0-0.1,0-0.1-0.1c0,0,0-0.1-0.1-0.1c-0.1-0.2,0-0.3,0.1-0.4l8.4-4.9c0.2-0.2,0.3-0.2,0.3,0.1
			c0.2,0.2,0.2,0.3,0,0.3l-8.5,5H58.2z M64.1,73.9c-0.2,0-0.2,0-0.2-0.1l-5.9-12c-0.1-0.2,0-0.3,0.1-0.4c0.2,0,0.3,0,0.3,0.1
			l5.9,12.1c0.2,0.2,0.2,0.3-0.1,0.3H64.1z M58.2,61.9h-0.1c-0.2-0.1-0.2-0.3-0.1-0.3l2.9-10.1c0.1-0.2,0.2-0.2,0.5-0.2
			c0.3,0,0.3,0.1,0.1,0.3l-2.9,10.1C58.4,61.9,58.3,61.9,58.2,61.9z M66.8,66.2h-0.1l-8.6-4.3c-0.2-0.1-0.2-0.3-0.1-0.4
			c0.1-0.1,0.2-0.1,0.3-0.1l8.6,4.4c0.3,0,0.3,0.1,0.1,0.3C67,66.2,67,66.2,66.8,66.2z M66.9,100.7l-8.9-6.6
			c-0.2-0.2-0.2-0.3-0.1-0.3c0.2-0.2,0.3-0.3,0.5-0.1l8.9,6.6c0.1,0.1,0.1,0.2,0.1,0.3l-0.2,0.1H66.9z M58,94c0-0.2,0.1-0.3,0.2-0.3
			l8.9-2.1c0.2-0.2,0.3-0.2,0.3,0.1c0,0.2-0.1,0.3-0.2,0.3l-8.9,2.1l-0.1,0.1C58,94.2,58,94.2,58,94z M60.6,104.8
			c-0.2,0-0.2-0.1-0.2-0.2L58,94c0-0.2,0.1-0.3,0.2-0.3c0.1-0.1,0.2,0,0.3,0.1l2.5,10.7c0,0.2-0.1,0.3-0.2,0.3H60.6z M59.1,36.5
			c-0.2,0-0.3,0-0.3-0.1c0-0.2,0.1-0.3,0.2-0.3l7.2-3.7c0.1-0.1,0.2,0,0.5,0.1c0,0.2-0.1,0.4-0.2,0.4l-7.2,3.6H59.1z M59,43.7
			l-0.1-0.1c-0.1-0.1-0.1-0.2-0.1-0.3L66,32.4c0.2-0.2,0.3-0.2,0.4-0.1c0.2,0.2,0.2,0.3,0,0.5l-7.2,10.6C59.1,43.6,59,43.7,59,43.7z
			 M59,43.7c-0.2-0.2-0.2-0.3-0.2-0.3v-7.1c0-0.2,0.1-0.3,0.3-0.3c0.2,0,0.2,0.1,0.2,0.3v7.1C59.3,43.5,59.2,43.7,59,43.7z M59,43.7
			c-0.2,0-0.2-0.1-0.2-0.2c0-0.2,0.1-0.3,0.2-0.3l14.3-5.4c0.2,0,0.4,0.1,0.5,0.2c0,0.1-0.1,0.2-0.2,0.3l-14.5,5.3
			C59.1,43.6,59,43.7,59,43.7z M61.2,51.8c-0.1,0-0.2-0.1-0.3-0.2l-2.1-8.2c0-0.2,0.1-0.3,0.2-0.3c0.2-0.2,0.3-0.2,0.3,0.1l2.1,8.3
			C61.5,51.6,61.4,51.7,61.2,51.8z M66.8,44.2L59,43.7c-0.2-0.2-0.2-0.3-0.2-0.3c0-0.2,0.1-0.3,0.3-0.2l7.7,0.6
			c0.2,0,0.3,0.1,0.3,0.3C67.2,44.1,67,44.2,66.8,44.2z M60.6,104.8c-0.1,0-0.2,0-0.2-0.1c-0.2-0.2-0.2-0.3,0.1-0.3l6.4-4
			c0.1-0.1,0.3-0.1,0.4,0.1c0,0.2,0,0.3-0.1,0.3l-6.5,4H60.6z M67,110.4l-0.1-0.1l-6.4-5.5c-0.2-0.1-0.3-0.3-0.1-0.4
			c0.2-0.1,0.3-0.1,0.4,0l6.4,5.5c0.2,0.2,0.2,0.3,0,0.5C67.2,110.3,67.1,110.4,67,110.4z M61.1,114.8c-0.2,0-0.3-0.1-0.3-0.3
			l-0.3-9.9c0-0.2,0.1-0.3,0.2-0.3c0.2,0,0.3,0.1,0.3,0.3l0.3,9.9C61.3,114.6,61.2,114.8,61.1,114.8z M60.9,114.6
			c-0.2-0.2-0.2-0.3,0-0.4l6.1-4.4c0.2-0.2,0.3-0.2,0.3,0.1c0.1,0.2,0.1,0.3,0,0.3l-6.1,4.4l-0.1,0.1L60.9,114.6z M61.1,114.8
			c-0.2,0-0.3-0.1-0.3-0.3c0-0.2,0.1-0.2,0.3-0.2h6.1c0.1,0,0.2,0.1,0.2,0.2c0,0.2-0.1,0.3-0.2,0.3H61.1z M67,92.1l-0.2-0.2L61,82.5
			c-0.2-0.2-0.2-0.3,0-0.3c0.2-0.1,0.4-0.1,0.4,0l5.9,9.5c0,0.2,0,0.3-0.1,0.3c-0.1,0-0.1,0-0.1,0.1C67.2,92.1,67.1,92.1,67,92.1z
			 M61.2,82.6h-0.1c-0.2,0-0.2-0.1-0.2-0.3l3-8.6c0-0.3,0.1-0.3,0.3-0.1c0.1,0,0.2,0.1,0.1,0.3l-2.9,8.6
			C61.4,82.5,61.4,82.6,61.2,82.6z M61.2,82.6c-0.2,0-0.3-0.1-0.3-0.2c0-0.1,0.1-0.2,0.2-0.3l5.9-1.1c0.2,0,0.3,0.1,0.3,0.2
			c0,0.2-0.1,0.3-0.2,0.3L61.2,82.6z M61.2,51.8c-0.1,0-0.2,0-0.2-0.1c-0.2-0.1-0.2-0.2,0-0.3l5.6-7.6c0.1-0.2,0.3-0.2,0.4,0
			c0.1,0.2,0.1,0.3,0,0.3l-5.6,7.6c-0.1,0-0.1,0-0.1,0.1C61.3,51.8,61.3,51.8,61.2,51.8z M66.6,57c-0.1,0-0.1,0-0.1-0.1L61,51.7
			c-0.2-0.1-0.2-0.2,0-0.3c0.1-0.1,0.2-0.1,0.4-0.1l5.4,5.2c0.2,0.2,0.2,0.3,0,0.5C66.8,57,66.7,57,66.6,57z M67.2,81.4
			c-0.2,0-0.3,0-0.3-0.1l-2.9-7.5c-0.2-0.2-0.2-0.3,0.1-0.3c0.2-0.2,0.3-0.2,0.3,0.1l3,7.5C67.4,81.3,67.3,81.4,67.2,81.4z
			 M64.1,73.9H64c-0.3,0-0.3-0.1-0.1-0.3l2.7-7.7c0-0.2,0.1-0.2,0.3-0.2c0.1,0.2,0.2,0.3,0.2,0.5l-2.8,7.7
			C64.3,73.9,64.3,73.9,64.1,73.9z M64.1,73.9h-0.2c-0.2-0.2-0.2-0.3,0-0.4l8-7.4c0.1-0.1,0.2-0.1,0.3,0c0.1,0.2,0.1,0.3,0,0.4
			l-7.9,7.4H64.1z M73.3,74.6l-9.2-0.7c-0.3,0-0.4-0.1-0.2-0.2c0-0.2,0.1-0.3,0.2-0.3l9.2,0.7c0.2,0,0.2,0.1,0.2,0.3
			C73.5,74.5,73.5,74.6,73.3,74.6z M66.3,32.9c-0.1,0-0.1,0-0.1-0.1c-0.1,0-0.1-0.1-0.1-0.3l2.9-3.9c0.1-0.2,0.2-0.3,0.3-0.1
			c0.1,0.2,0.2,0.3,0.1,0.5l-2.9,3.9C66.4,32.9,66.3,32.9,66.3,32.9z M73.4,38.3c-0.1,0-0.1,0-0.1-0.1l-7.2-5.4
			c-0.1,0-0.1-0.1-0.1-0.3c0.1-0.1,0.2-0.1,0.4-0.1l7.2,5.4c0.2,0.2,0.2,0.3,0,0.4C73.7,38.2,73.6,38.3,73.4,38.3z M66.6,57
			c-0.2,0-0.2-0.1-0.2-0.3L66.6,44c0-0.2,0.1-0.3,0.2-0.3c0.2,0,0.3,0.1,0.3,0.3l-0.2,12.7C66.9,56.9,66.8,57,66.6,57z M66.8,66.2
			c-0.2,0-0.2-0.1-0.2-0.2l-0.2-9.3c0-0.1,0.1-0.2,0.2-0.2c0.2,0,0.3,0.1,0.3,0.2l0.2,9.3C67.2,66.1,67,66.2,66.8,66.2z M66.8,44.2
			c-0.1,0-0.2,0-0.2-0.1c-0.1-0.1,0-0.2,0.1-0.3l6.6-5.9c0.1-0.1,0.2-0.1,0.3,0c0.1,0.2,0.1,0.3,0,0.3L67,44.2H66.8z M76.6,44.6
			l-9.8-0.3c-0.2,0-0.2-0.1-0.2-0.2c0-0.2,0.1-0.3,0.2-0.3l9.8,0.3c0.2,0,0.3,0.1,0.3,0.3C76.9,44.5,76.8,44.6,76.6,44.6z M72,66.6
			l-5.2-0.5c-0.2,0-0.2-0.1-0.2-0.2c0-0.2,0.1-0.3,0.2-0.3l5.2,0.5c0.2,0,0.3,0.1,0.3,0.2C72.3,66.5,72.2,66.6,72,66.6z M67.2,81.4
			h-0.2c-0.2-0.2-0.2-0.3,0-0.5l6.2-6.8c0.2-0.1,0.3-0.1,0.5,0c0.1,0.2,0.1,0.3,0,0.3l-6.3,7H67.2z M67.2,81.4
			c-0.2,0-0.3-0.1-0.3-0.2c0-0.2,0.1-0.3,0.3-0.3l12.2-0.2c0.2,0,0.3,0.1,0.3,0.3c0,0.2-0.1,0.2-0.3,0.2L67.2,81.4z M67,92.1
			c-0.2-0.1-0.2-0.3-0.2-0.3V81.2c0-0.2,0.1-0.3,0.3-0.3c0.1,0,0.2,0.1,0.2,0.3v10.5C67.4,92,67.3,92.1,67,92.1z M67.2,100.7
			c-0.2,0-0.3-0.1-0.3-0.2v-8.7c0-0.2,0.1-0.2,0.2-0.2c0.2,0,0.3,0.1,0.3,0.2v8.7C67.4,100.7,67.3,100.7,67.2,100.7z M67,110.4
			c-0.2-0.1-0.2-0.3-0.2-0.3v-9.5c0-0.2,0.1-0.3,0.3-0.3c0.1,0,0.2,0.1,0.2,0.3v9.5C67.4,110.3,67.3,110.4,67,110.4z M67.2,114.8
			c-0.2,0-0.3-0.1-0.3-0.3V110c0-0.2,0.1-0.2,0.2-0.2c0.2,0,0.3,0.1,0.3,0.2v4.4C67.4,114.6,67.3,114.8,67.2,114.8z M69.2,29
			c-0.2,0-0.3-0.1-0.3-0.3c0-0.1,0.1-0.2,0.3-0.2l9-0.1c0.2,0,0.2,0.1,0.2,0.2c0,0.2-0.1,0.3-0.2,0.3L69.2,29z M73.4,38.3
			c-0.2,0-0.2-0.1-0.2-0.2l-4.4-9.3c0-0.2,0.1-0.3,0.2-0.3c0.1-0.1,0.2,0,0.3,0.1l4.4,9.3c0,0.2-0.1,0.4-0.2,0.4H73.4z M77.8,34.4
			c-0.1,0-0.1,0-0.1-0.1l-8.7-5.4c-0.2-0.1-0.2-0.2,0-0.3c0-0.3,0.1-0.3,0.3-0.1l8.6,5.4c0.2,0.2,0.2,0.3,0.1,0.4
			C78,34.3,77.9,34.4,77.8,34.4z M72,66.6c-0.2,0-0.2-0.1-0.2-0.2c0-0.2,0.1-0.3,0.2-0.3l5.8-1c0.2,0,0.2,0.1,0.2,0.2
			c0.2,0.2,0.1,0.3-0.2,0.3l-5.7,1H72z M73.3,74.6c-0.1,0-0.2-0.1-0.3-0.2l-1.2-8.1c0-0.2,0.1-0.2,0.2-0.2c0.1-0.1,0.2,0,0.3,0.2
			l1.2,8C73.8,74.5,73.7,74.6,73.3,74.6z M79.4,81.2h-0.2l-6.1-6.7c-0.2-0.1-0.2-0.2,0-0.3c0.2-0.1,0.3-0.1,0.5,0l6.1,6.6
			c0.1,0.2,0.1,0.3,0,0.5H79.4z M73.3,74.6c-0.1,0-0.2-0.1-0.3-0.2c0-0.2,0.1-0.3,0.2-0.3l9.4-2.4c0.2,0,0.3,0.1,0.3,0.2
			c0,0.1-0.1,0.2-0.2,0.3L73.3,74.6z M73.3,74.6h-0.1c-0.2-0.2-0.2-0.3-0.1-0.5l4.5-9c0-0.3,0.1-0.3,0.3-0.1
			c0.2,0.2,0.2,0.3,0.1,0.3l-4.5,9.1C73.5,74.6,73.4,74.6,73.3,74.6z M73.4,38.3c-0.1,0-0.2,0-0.2-0.1c-0.2-0.2-0.2-0.3,0.1-0.3
			l4.3-4c0.1-0.1,0.2,0,0.5,0.1c0.1,0.2,0.1,0.3,0,0.3l-4.4,3.9C73.6,38.2,73.5,38.3,73.4,38.3z M76.6,44.6c-0.2,0-0.2,0-0.2-0.1
			l-3.1-6.3c-0.1-0.1,0-0.3,0.1-0.4c0.2,0,0.3,0,0.3,0.1l3.1,6.4c0.2,0.2,0.1,0.3-0.1,0.3H76.6z M89.1,41.1l-15.7-2.8
			c-0.2,0-0.2-0.1-0.2-0.3c0-0.1,0.1-0.2,0.3-0.2l15.7,2.8c0.2,0,0.2,0.1,0.2,0.3C89.3,41,89.2,41.1,89.1,41.1z M82.8,47.7l-6.4-3.1
			c-0.3,0-0.3-0.1-0.1-0.3c0.2-0.1,0.3-0.2,0.3-0.1l6.5,3c0.1,0.1,0.1,0.2,0.1,0.5l-0.2,0.1H82.8z M76.6,44.6c-0.2,0-0.2,0-0.2-0.1
			c-0.1-0.2,0-0.3,0.2-0.5L89,40.5c0.2-0.1,0.3,0,0.3,0.1c0.1,0.2,0,0.3-0.1,0.4l-12.6,3.5H76.6z M89.1,41.1c-0.1,0-0.1,0-0.1-0.1
			l-11.3-6.7c-0.3,0-0.3-0.1-0.1-0.3c0.2-0.1,0.3-0.2,0.3-0.1l11.3,6.7c0.2,0.1,0.3,0.2,0.1,0.3C89.4,41,89.3,41.1,89.1,41.1z
			 M82.6,72.3c-0.1-0.1-0.2-0.1-0.2-0.1l-4.8-6.6c-0.2-0.2-0.2-0.3,0-0.4c0.2-0.1,0.3,0,0.5,0.1l4.8,6.6c0.1,0.2,0.1,0.3,0,0.3
			C82.8,72.2,82.7,72.3,82.6,72.3z M77.8,34.4c-0.2,0-0.3-0.1-0.3-0.3l0.3-5.5c0-0.2,0.1-0.2,0.3-0.2c0.2,0,0.2,0.1,0.2,0.2L78,34
			C78,34.2,78,34.4,77.8,34.4z M77.6,65.5c-0.2-0.2-0.1-0.3,0.1-0.4l5.2-3.6c0.2,0,0.4,0,0.5,0.1c0,0.2,0,0.4-0.1,0.4l-5.3,3.5
			l-0.1,0.1L77.6,65.5z M77.6,34.1c-0.1-0.1,0-0.2,0.1-0.3l9-4.4c0.2-0.2,0.3-0.2,0.3,0.1c0.2,0.2,0.2,0.3-0.1,0.3l-9,4.4l-0.1,0.1
			C77.6,34.4,77.6,34.3,77.6,34.1z M86.8,29.9l-8.7-1c-0.2-0.2-0.2-0.3-0.2-0.3c0-0.4,0.1-0.5,0.3-0.2l8.7,1
			c0.2,0.2,0.2,0.3,0.2,0.3C87.1,29.8,87,29.9,86.8,29.9z M79.4,81.2c-0.2,0-0.2,0-0.2-0.1c-0.2-0.2-0.1-0.3,0.2-0.3L91,77.4
			c0.2,0,0.3,0.1,0.3,0.2c0.2,0.2,0.2,0.3-0.1,0.3l-11.8,3.3H79.4z M79.4,81.3v-0.1c-0.2,0-0.2-0.1-0.2-0.3l3.3-9.1
			c0-0.3,0.1-0.3,0.3-0.1c0.1,0,0.2,0.1,0.2,0.3l-3.3,9.1C79.6,81.3,79.4,81.3,79.4,81.3z M91.1,78H91l-8.5-5.8
			c-0.3,0-0.3-0.1-0.1-0.3c0.2-0.2,0.3-0.2,0.4-0.1l8.4,5.8c0.3,0,0.3,0.1,0.1,0.3C91.4,77.9,91.3,78,91.1,78z M82.6,72.3
			c-0.1,0-0.2,0-0.2-0.1c-0.2-0.1-0.1-0.2,0.1-0.4l7.5-6.5c0.2-0.2,0.3-0.2,0.3,0c0.1,0.2,0.1,0.3,0,0.3l-7.5,6.6
			C82.8,72.2,82.7,72.3,82.6,72.3z M82.6,72.3c-0.2,0-0.2-0.1-0.2-0.3l0.3-10.2c0-0.1,0.1-0.2,0.3-0.2c0.2,0,0.2,0.1,0.2,0.3
			L83,71.9C83,72.1,82.8,72.3,82.6,72.3z M82.8,47.7c-0.2-0.1-0.2-0.3,0-0.4l6.1-6.7c0.2-0.1,0.3-0.1,0.5,0c0.1,0.2,0.1,0.3,0,0.5
			l-6.2,6.6l-0.1,0.1H82.8z M82.8,61.9c-0.2-0.1-0.2-0.2,0-0.3l7.7-7.6c0.1-0.1,0.2-0.1,0.3,0c0.1,0.2,0.1,0.3,0,0.3l-7.7,7.6
			L83.1,62C82.9,62,82.8,62,82.8,61.9z M85.3,55c-0.1,0-0.2-0.1-0.3-0.2l-2.2-7.3c0-0.2,0.1-0.3,0.2-0.3c0.2,0,0.3,0.1,0.3,0.2
			l2.2,7.3c0.1,0.1,0,0.2-0.1,0.3H85.3z M83.1,62H83c-0.2-0.1-0.2-0.2-0.2-0.3l2.2-7.1c0.1-0.2,0.2-0.2,0.5-0.2
			c0.1,0.2,0.2,0.3,0.1,0.3l-2.2,7.1C83.3,62,83.2,62,83.1,62z M90,65.6L82.8,62c-0.1-0.1-0.1-0.2-0.1-0.4c0.1-0.1,0.2-0.1,0.4-0.1
			l7.2,3.6c0.1,0.1,0.1,0.2,0.1,0.4l-0.2,0.1H90z M85.3,55h-0.1c-0.2,0-0.2-0.1-0.2-0.3l3.9-14c0-0.2,0.1-0.2,0.3-0.1
			c0.2,0,0.2,0.1,0.1,0.3l-3.8,13.9C85.5,54.9,85.5,55,85.3,55z M85.3,55c-0.2,0-0.3-0.1-0.3-0.2c0-0.2,0.1-0.3,0.3-0.3l5.4-0.6
			c0.2,0,0.3,0.1,0.3,0.2c0,0.2-0.1,0.3-0.2,0.3L85.3,55z M94.6,33.6h-0.1l-7.8-3.7c-0.3,0-0.3-0.1-0.1-0.3c0.2-0.2,0.3-0.2,0.3-0.1
			l7.8,3.7c0.2,0,0.2,0.1,0.2,0.3C94.9,33.5,94.8,33.6,94.6,33.6z M89.1,41.1c-0.2,0-0.2-0.1-0.2-0.2l-2.4-11.2
			c0-0.2,0.1-0.3,0.2-0.3c0.1,0,0.2,0.1,0.3,0.2l2.4,11.2c0,0.1-0.1,0.2-0.2,0.3H89.1z M89.1,41.1L89,41c-0.2-0.1-0.3-0.2-0.1-0.3
			l5.5-7.5c0.1-0.1,0.3-0.1,0.4,0c0.1,0.2,0.1,0.3,0,0.3L89.4,41C89.3,41,89.2,41.1,89.1,41.1z M97.9,47.9l-0.1-0.1L89,41
			c-0.2-0.1-0.3-0.2-0.1-0.3c0.2-0.2,0.3-0.2,0.5-0.1l8.7,6.8c0.1,0.2,0.1,0.3,0,0.4C98,47.9,97.9,47.9,97.9,47.9z M90.7,54.4
			c-0.2,0-0.2-0.1-0.2-0.2l-1.6-13.5c-0.2-0.2-0.1-0.2,0.2-0.2c0.1-0.1,0.2,0,0.3,0.2L91,54.1c0,0.2-0.1,0.3-0.2,0.3H90.7z M90,65.5
			c-0.2-0.2-0.2-0.3,0-0.3l7.6-6.5c0.1-0.1,0.2-0.1,0.3,0c0.2,0.2,0.2,0.3,0,0.4l-7.6,6.4l-0.1,0.1C90.1,65.6,90,65.6,90,65.5z
			 M90.2,65.6h-0.1c-0.2,0-0.2-0.1-0.2-0.3l0.6-11.1c0-0.2,0.1-0.3,0.2-0.3c0.2,0,0.3,0.1,0.3,0.3l-0.6,11.2
			C90.5,65.6,90.4,65.6,90.2,65.6z M91.1,78c-0.2,0-0.2-0.1-0.2-0.2l-1-12.3c0-0.2,0.1-0.3,0.2-0.3c0.2,0,0.3,0.1,0.3,0.2l1,12.3
			C91.5,77.9,91.4,78,91.1,78z M97.8,59.1h-0.1l-7.1-4.7c-0.2-0.2-0.3-0.3-0.1-0.4c0.2-0.2,0.3-0.2,0.5,0l7.1,4.7
			c0.1,0.2,0.1,0.3,0,0.3C98,59.1,97.9,59.1,97.8,59.1z M90.7,54.4c-0.1,0-0.2,0-0.2-0.1c0-0.1,0-0.3,0.1-0.3l7.2-6.6
			c0.1-0.1,0.2-0.1,0.3,0c0.1,0.2,0.1,0.3,0,0.4l-7.2,6.5C90.9,54.4,90.8,54.4,90.7,54.4z M91.1,78H91c-0.3,0-0.3-0.1-0.1-0.3
			l6.6-18.8c0-0.3,0.1-0.3,0.3-0.1c0.2,0,0.2,0.1,0.2,0.3l-6.7,18.7C91.4,77.9,91.3,78,91.1,78z M91.1,78c-0.1,0-0.2,0-0.2-0.1
			c-0.2-0.1-0.2-0.2,0-0.3l6.4-5.4c0.1,0,0.3,0,0.3,0.1c0.1,0.2,0.1,0.3,0,0.3L91.4,78H91.1z M99.6,38.4c-0.1,0-0.1,0-0.1-0.1
			l-4.9-4.7c-0.2-0.2-0.2-0.3,0-0.5c0.1-0.1,0.2-0.1,0.3,0l4.9,4.8c0.1,0.2,0.1,0.3,0,0.3C99.8,38.3,99.7,38.4,99.6,38.4z
			 M97.9,47.9c-0.2,0-0.2-0.1-0.2-0.2l-3.2-14.2c0-0.2,0.1-0.3,0.2-0.3c0.2-0.2,0.3-0.2,0.3,0.1l3.2,14.4c0,0.1-0.1,0.2-0.2,0.3
			H97.9z M97.4,72.7c-0.1,0-0.1,0-0.1-0.1c-0.3,0-0.3-0.1-0.1-0.3l4.3-6.5c0.2-0.2,0.3-0.2,0.4,0c0.1,0.2,0.1,0.3,0,0.3l-4.3,6.5
			C97.6,72.7,97.5,72.7,97.4,72.7z M97.4,72.7c-0.2,0-0.2-0.1-0.2-0.3l0.3-13.5c0-0.2,0.1-0.3,0.2-0.3c0.2,0,0.3,0.1,0.3,0.3
			l-0.3,13.6C97.8,72.6,97.6,72.7,97.4,72.7z M97.8,59.1c-0.2,0-0.2,0-0.2-0.1c-0.2-0.2-0.2-0.3,0.1-0.3l6.6-2.8
			c0.2-0.2,0.3-0.2,0.3,0.1c0.2,0.2,0.2,0.3-0.1,0.3l-6.6,2.8H97.8z M101.7,66.2c-0.1,0-0.2,0-0.2-0.1L97.5,59
			c-0.2-0.2-0.2-0.3,0.1-0.3c0.2-0.2,0.3-0.2,0.3,0.1l4,7.1c0,0.2,0,0.3-0.1,0.3H101.7z M97.8,59.1c-0.2,0-0.2-0.1-0.2-0.2l0.1-11.3
			c0-0.3,0.1-0.4,0.2-0.2c0.2,0,0.3,0.1,0.3,0.2l-0.1,11.3C98.1,59.1,98,59.1,97.8,59.1z M97.9,47.9c-0.1-0.1-0.2-0.1-0.2-0.1
			c-0.2-0.1-0.1-0.2,0.1-0.4l4.7-4c0.2-0.2,0.3-0.2,0.4,0c0.1,0.1,0,0.2-0.1,0.3l-4.7,4.1c-0.1,0-0.1,0-0.1,0.1
			C98,47.9,97.9,47.9,97.9,47.9z M104.4,56.3c-0.2,0-0.2,0-0.2-0.1l-6.5-8.4c-0.1-0.2,0-0.3,0.1-0.4s0.3-0.1,0.3,0.1l6.5,8.4
			c0.1,0.2,0,0.3-0.1,0.5H104.4z M97.9,47.9c-0.2-0.1-0.2-0.2-0.2-0.3l1.7-9.5c0-0.2,0.1-0.2,0.3-0.2c0.1,0,0.2,0.1,0.2,0.3
			l-1.7,9.5C98.1,47.8,97.9,47.9,97.9,47.9z M104.5,48.9h-0.1l-6.5-1c-0.2-0.1-0.2-0.2-0.2-0.3c0-0.2,0.1-0.3,0.3-0.2l6.5,1
			c0.2,0.1,0.2,0.2,0.2,0.3C104.7,48.9,104.6,48.9,104.5,48.9z M102.7,43.8l-0.2-0.1l-3.1-5.4c0-0.2,0-0.4,0.1-0.4
			c0.2,0,0.4,0,0.4,0.1l3,5.4c0.1,0.2,0,0.3-0.1,0.4H102.7z M101.7,66.2c-0.2,0-0.2-0.1-0.2-0.3L104,56c0.2-0.2,0.3-0.2,0.3-0.2
			c0.2,0.2,0.3,0.3,0.2,0.3L102,66C101.9,66.1,101.8,66.2,101.7,66.2z M104.5,48.9c-0.2,0-0.3,0-0.3-0.1l-1.8-5.3
			c0-0.1,0.1-0.2,0.2-0.3c0.2,0,0.3,0.1,0.3,0.2l1.8,5.2c0.2,0.2,0.2,0.3-0.1,0.3H104.5z M104.4,56.3c-0.2,0-0.3-0.1-0.3-0.2
			l0.1-7.4c0-0.2,0.1-0.3,0.3-0.3c0.2,0,0.2,0.1,0.2,0.3l-0.1,7.4C104.6,56.3,104.5,56.3,104.4,56.3z"/>
	</g>
</g>
</svg>
