<?xml version="1.0" encoding="utf-8"?>
<!-- Generator: Adobe Illustrator 19.0.0, SVG Export Plug-In . SVG Version: 6.00 Build 0)  -->
<svg version="1.1" id="Ebene_1" xmlns="http://www.w3.org/2000/svg" xmlns:xlink="http://www.w3.org/1999/xlink" x="0px" y="0px"
	 viewBox="0 10.2 100 80.8" style="enable-background:new 0 10.2 100 80.8;" xml:space="preserve">
<style type="text/css">
	.st0{display:none;}
	.st1{display:inline;}
	.st2{fill:none;}
	.st3{fill:none;stroke:#000000;stroke-miterlimit:10;}
</style>
<g id="Ebene_5">
</g>
<g id="Ebene_1_1_" class="st0">
	<g class="st1">
		<path d="M75.7,57.7c0-0.3-0.2-0.6-0.5-0.7l-19.1-5v-8.4c0-0.4-0.3-0.7-0.7-0.7h-3c-0.4,0-0.7,0.3-0.7,0.7v7.1l-7.1-1.8
			c-0.1,0-0.2,0-0.3,0c-5.7,1.1-10.3,4-12.7,7.9l-0.2,0.3c-0.1,0.1-0.1,0.3-0.1,0.4l0,0v22.9c0,0.4,0.3,0.7,0.7,0.7h43.1
			c0.4,0,0.7-0.3,0.7-0.7L75.7,57.7L75.7,57.7z M53,44.4h1.6v9.8H53V44.4z M44.5,50.4l7.2,1.9V55c0,0.4,0.3,0.7,0.7,0.7h3
			c0.4,0,0.7-0.3,0.7-0.7v-1.5l13.6,3.6H33.3C35.6,53.7,39.6,51.3,44.5,50.4z M74.3,80H32.7v-8.7c1.1,0.1,1.7,0.6,2.4,1.2
			c0.9,0.7,1.9,1.5,4,1.5c2,0,3-0.8,4-1.5c0.8-0.7,1.6-1.2,3.1-1.2s2.3,0.5,3.1,1.2c0.9,0.7,1.9,1.5,4,1.5c2,0,3-0.8,4-1.5
			c0.8-0.7,1.6-1.2,3.1-1.2s2.3,0.5,3.1,1.2c0.9,0.7,2,1.5,4,1.5s3-0.8,4-1.5c0.8-0.7,1.6-1.2,3.1-1.2C74.3,71.2,74.3,80,74.3,80z
			 M74.3,69.9c-2,0-3,0.8-4,1.5c-0.8,0.7-1.6,1.2-3.1,1.2s-2.3-0.5-3.1-1.2c-0.9-0.7-2-1.5-4-1.5s-3,0.8-4,1.5
			c-0.8,0.7-1.6,1.2-3.1,1.2s-2.3-0.5-3.1-1.2c-0.9-0.7-1.9-1.5-4-1.5c-2,0-3,0.8-4,1.5c-0.8,0.7-1.6,1.2-3.1,1.2s-2.3-0.5-3.1-1.2
			c-0.8-0.6-1.7-1.3-3.3-1.5v-4c1.1,0.1,1.7,0.6,2.4,1.2c0.9,0.7,1.9,1.5,4,1.5c2,0,3-0.8,4-1.5c0.8-0.7,1.6-1.2,3.1-1.2
			s2.3,0.5,3.1,1.2c0.9,0.7,1.9,1.5,4,1.5c2,0,3-0.8,4-1.5c0.8-0.7,1.6-1.2,3.1-1.2s2.3,0.5,3.1,1.2c0.9,0.7,2,1.5,4,1.5
			s3-0.8,4-1.5c0.8-0.7,1.6-1.2,3.1-1.2C74.3,65.9,74.3,69.9,74.3,69.9z M74.3,64.5c-2,0-3,0.8-4,1.5c-0.8,0.7-1.6,1.2-3.1,1.2
			s-2.3-0.5-3.1-1.2c-0.9-0.7-2-1.5-4-1.5s-3,0.8-4,1.5c-0.8,0.7-1.6,1.2-3.1,1.2s-2.3-0.5-3.1-1.2c-0.9-0.7-1.9-1.5-4-1.5
			c-2,0-3,0.8-4,1.5c-0.8,0.7-1.6,1.2-3.1,1.2s-2.3-0.5-3.1-1.2c-0.8-0.6-1.7-1.3-3.3-1.5v-6.1h41.7L74.3,64.5L74.3,64.5z"/>
		<path d="M52.8,41.6c0.2,0.1,0.5,0.1,0.8,0.1c1.2,0,2.5-1,3.1-2.3c0.3-0.7,0.3-1.7,0.3-1.8c0-3.5-2.7-5.1-2.7-5.1
			c-0.2-0.1-0.5-0.1-0.7,0c-0.2,0.1-0.3,0.3-0.3,0.6c0.1,2.3-0.6,3.5-0.9,3.8l0,0c-0.5,0.6-0.7,1-0.8,1.2c-0.4,0.9-0.3,1.6-0.1,2.1
			C51.6,40.9,52.1,41.3,52.8,41.6z M52.7,38.7L52.7,38.7c0.1-0.1,0.2-0.3,0.6-0.8c0.4-0.5,1-1.5,1.2-3.2c0.5,0.6,1.1,1.6,1.1,3.1
			c0,0.2-0.1,0.8-0.2,1.2c-0.5,1-1.6,1.6-2,1.4c-0.3-0.1-0.5-0.4-0.7-0.6C52.5,39.5,52.5,39.2,52.7,38.7z"/>
	</g>
</g>
<g id="Ebene_2" class="st0">
	<path id="XMLID_8_" class="st1" d="M43,60.5l-2.4-1.8l0,0v-4.4l0,0l-7.7-7.5l0,0H18.1v12l-2.4,1.8v9.5v0.5h0.5h1.9v7.6h22.4v-7.6
		h1.9H43v-0.5v-2.6V60.5z M24.6,66.5c0.1,0.2,0.2,0.3,0.3,0.5c0.1,0.1,0.2,0.2,0.4,0.3c0.2,0.1,0.3,0.1,0.5,0.1c0.1,0,0.2,0,0.3,0
		c0.1,0,0.2,0,0.2-0.1s0.1-0.1,0.2-0.1s0.1-0.1,0.2-0.1c0,0,0,0,0.1,0h0.1c0.1,0,0.1,0,0.1,0.1l0.4,0.4c-0.2,0.2-0.4,0.4-0.7,0.5
		c-0.3,0.1-0.6,0.2-0.9,0.2s-0.6-0.1-0.9-0.2c-0.3-0.1-0.5-0.3-0.7-0.5c-0.2-0.2-0.3-0.4-0.4-0.7c-0.1-0.3-0.1-0.6-0.1-0.9
		c0-0.2,0-0.4,0.1-0.6c0-0.2,0.1-0.4,0.2-0.5c0.1-0.2,0.2-0.3,0.3-0.5c0.1-0.1,0.3-0.2,0.4-0.3c0.2-0.1,0.3-0.2,0.5-0.2
		s0.4-0.1,0.6-0.1s0.3,0,0.5,0c0.1,0,0.3,0.1,0.4,0.1c0.1,0.1,0.2,0.1,0.3,0.2c0.1,0.1,0.2,0.2,0.3,0.2L27,64.6c0,0,0,0.1-0.1,0.1
		h-0.1c0,0-0.1,0-0.1-0.1s-0.1-0.1-0.2-0.1s-0.2-0.1-0.3-0.1c-0.1,0-0.2-0.1-0.4-0.1c-0.2,0-0.4,0-0.5,0.1c-0.2,0.1-0.3,0.2-0.4,0.3
		s-0.2,0.3-0.3,0.5c-0.1,0.2-0.1,0.4-0.1,0.6C24.5,66.1,24.6,66.3,24.6,66.5z M29.8,66.6c-0.1-0.1-0.1-0.1-0.2-0.2
		c-0.1,0-0.2-0.1-0.3-0.1c-0.2-0.1-0.3-0.1-0.4-0.1s-0.2-0.1-0.4-0.1c-0.1-0.1-0.2-0.1-0.3-0.2c-0.1-0.1-0.2-0.2-0.2-0.3
		c-0.1-0.1-0.1-0.3-0.1-0.5c0-0.2,0-0.3,0.1-0.5c0.1-0.2,0.2-0.3,0.3-0.4c0.1-0.1,0.3-0.2,0.5-0.3s0.4-0.1,0.6-0.1
		c0.3,0,0.5,0,0.7,0.1s0.4,0.2,0.6,0.3l-0.2,0.4l-0.1,0.1h-0.1h-0.1c-0.1,0-0.1-0.1-0.2-0.1s-0.1-0.1-0.2-0.1s-0.2,0-0.3,0
		c-0.2,0-0.4,0-0.5,0.1s-0.2,0.2-0.2,0.4c0,0.1,0,0.2,0.1,0.2c0.1,0.1,0.1,0.1,0.2,0.2c0.1,0,0.2,0.1,0.3,0.1c0.1,0,0.2,0.1,0.4,0.1
		s0.2,0.1,0.4,0.2c0.1,0.1,0.2,0.1,0.3,0.2c0.1,0.1,0.2,0.2,0.2,0.3c0.1,0.1,0.1,0.3,0.1,0.5c0,0.2,0,0.4-0.1,0.6s-0.2,0.3-0.3,0.5
		c-0.1,0.1-0.3,0.2-0.5,0.3s-0.4,0.1-0.7,0.1c-0.1,0-0.3,0-0.4,0s-0.3-0.1-0.4-0.1c-0.1-0.1-0.3-0.1-0.4-0.2s-0.2-0.2-0.3-0.2
		l0.3-0.4l0.1-0.1h0.1c0.1,0,0.1,0,0.2,0.1c0.1,0,0.1,0.1,0.2,0.1s0.2,0.1,0.3,0.1c0.1,0,0.2,0.1,0.4,0.1c0.2,0,0.4,0,0.5-0.1
		s0.2-0.2,0.2-0.4C29.9,66.7,29.9,66.6,29.8,66.6z M33.6,68.1h-0.8L31,63.7h0.7c0.1,0,0.1,0,0.2,0.1l0.1,0.1l1,2.6
		c0,0.1,0.1,0.2,0.1,0.3s0.1,0.2,0.1,0.4c0-0.1,0.1-0.2,0.1-0.4c0-0.1,0.1-0.2,0.1-0.3l1-2.6c0-0.1,0.1-0.1,0.1-0.1s0.1-0.1,0.2-0.1
		h0.7L33.6,68.1z M31.8,47.9v7.5h7.7v5.1H19.2V47.9H31.8z M39.5,77.2H19.2v-6.5h20.3V77.2L39.5,77.2z"/>
	<path id="XMLID_16_" class="st1" d="M64.1,42.6v-4.2l0,0v-0.1l0,0c0,0,0,0,0-0.1l0,0c0,0,0,0,0-0.1l0,0c0,0,0,0-0.1-0.1l-6.4-6.4
		l0,0l0,0c0,0,0,0-0.1,0l0,0c0,0,0,0-0.1,0l0,0c0,0,0,0-0.1,0l0,0h-0.1l0,0h-14c-0.3,0-0.5,0.2-0.5,0.5v10.7h-1.5v10.9h1.5v4.9
		c0,0.3,0.2,0.5,0.5,0.5h20.4c0.3,0,0.5-0.2,0.5-0.5v-4.9h1.5V42.6H64.1z M57.7,33.1l4.7,4.8h-4.7V33.1z M63.1,57.9H43.7v-4.5h19.4
		V57.9z M43.7,45.6H45l0.5,0.9c0.2,0.3,0.3,0.6,0.4,0.9l0,0c0.1-0.3,0.2-0.6,0.4-0.9l0.4-0.9H48l-1.5,2.5l1.5,2.6h-1.3l-0.5-0.9
		c-0.2-0.4-0.3-0.6-0.5-0.9l0,0c-0.1,0.3-0.2,0.6-0.4,0.9l-0.3,1h-1.3l1.5-2.6L43.7,45.6z M49,50.8l0.3-5.2h1.6l0.5,1.7
		c0.2,0.6,0.3,1.2,0.4,1.8l0,0c0.1-0.6,0.3-1.3,0.5-1.9l0.6-1.7h1.5l0.3,5.2h-1.1l-0.1-2c0-0.6,0-1.4,0-2.1l0,0
		c-0.2,0.7-0.4,1.4-0.6,2l-0.6,2h-0.9l-0.6-2c-0.2-0.6-0.3-1.3-0.5-2l0,0c0,0.7-0.1,1.5-0.1,2.1l-0.1,2L49,50.8L49,50.8z M59.2,49.8
		v1H56v-5.2h1.2v4.2H59.2z M63.1,42.6H43.7V32.4h13v6c0,0.3,0.2,0.5,0.5,0.5h5.9L63.1,42.6L63.1,42.6z"/>
	<g id="XMLID_47_" class="st1">
		<path id="XMLID_59_" d="M62.4,62.5c-8.4,0-15.4,2-15.5,5.1c0,0.1,0,19.1,0,24.3c0,0.8,0,1.2,0,1.2c0,2.8,7.4,4.8,15.5,4.8
			s15.5-1.9,15.5-4.8s0-25.4,0-25.5C78,64.6,70.8,62.5,62.4,62.5z M62.4,71.6c-8.6,0-14.5-2.2-14.5-4.1c0-2,5.8-4.1,14.5-4.1
			s14.5,2.2,14.5,4.1C76.9,69.5,71,71.6,62.4,71.6z M76.9,93c-0.5,2-6.2,3.8-14.5,3.8s-14-2-14.5-3.8l0,0v-7.6
			c0.7,0.8,2.1,1.6,3.9,2.2c2.7,0.8,6.4,1.3,10.5,1.3c6.9,0,12.7-1.4,14.5-3.4L76.9,93L76.9,93z M76.9,84.4c-0.6,2-6.2,3.8-14.5,3.8
			c-4.1,0-7.6-0.5-10.1-1.2c-2.5-0.8-4.1-1.7-4.3-2.6v-6.9c1.4,1.7,5.4,2.9,10.7,3.4c1.2,0.1,2.4,0.1,3.8,0.1
			c6.9,0,12.7-1.4,14.5-3.4L76.9,84.4L76.9,84.4z M76.9,76.3c-0.6,2-6.2,3.8-14.5,3.8c-1,0-2,0-2.9-0.1c-6.7-0.4-11.1-2.2-11.5-3.8
			v-7.3c1.7,1.8,7.5,3.5,14.5,3.5c3.7,0,7-0.4,9.6-1c2.3-0.6,4-1.4,4.9-2.3L76.9,76.3L76.9,76.3z"/>
		<path id="XMLID_56_" d="M71.5,74.7c0,0.9,0.8,1.7,1.7,1.7s1.7-0.8,1.7-1.7c0-0.9-0.8-1.7-1.7-1.7S71.5,73.8,71.5,74.7z M74.1,74.7
			c0,0.6-0.5,0.9-0.9,0.9c-0.6,0-0.9-0.5-0.9-0.9s0.5-0.9,0.9-0.9C73.8,73.8,74.1,74.1,74.1,74.7z"/>
		<path id="XMLID_53_" d="M73.2,84.9c0.9,0,1.7-0.8,1.7-1.7c0-0.9-0.8-1.7-1.7-1.7s-1.7,0.8-1.7,1.7C71.5,84.2,72.3,84.9,73.2,84.9z
			 M73.2,82.3c0.6,0,0.9,0.5,0.9,0.9c0,0.6-0.5,0.9-0.9,0.9c-0.6,0-0.9-0.5-0.9-0.9C72.3,82.7,72.6,82.3,73.2,82.3z"/>
		<path id="XMLID_50_" d="M73.2,93.4c0.9,0,1.7-0.8,1.7-1.7c0-0.9-0.8-1.7-1.7-1.7s-1.7,0.8-1.7,1.7C71.5,92.6,72.3,93.4,73.2,93.4z
			 M73.2,90.7c0.6,0,0.9,0.5,0.9,0.9c0,0.6-0.5,0.9-0.9,0.9c-0.6,0-0.9-0.5-0.9-0.9C72.3,91.1,72.6,90.7,73.2,90.7z"/>
	</g>
</g>
<g id="Ebene_3" class="st0">
	<g id="XMLID_57_" class="st1">
		<path id="XMLID_58_" d="M60.5,72.8c2,0.2,3.7,0.6,3.7,0.6c-3.9-2.2-3.8-10-3.8-10c0.7-15.1-9.3-14.3-9.3-14.3l0,0l0,0
			c0,0-10-0.8-9.3,14.3c0,0,0.1,7.8-3.8,10c0,0,1.1-0.1,2.5-0.1c-4,1.8-6.8,5.8-6.8,10.5c0,6.4,5.2,5.2,11.5,5.2H57
			c6.4,0,11.5,1.1,11.5-5.2C68.6,78.6,65.2,74.3,60.5,72.8z M53.8,75.8l-2.7,4.4l-2.7-4.3c-1.9-0.4-3.4-1.3-4-2.5
			c1.6,0.1,2.9,0.4,3.2,1l-1.5-3.3c1.4,1.4,3.1,2.2,4.9,2.2c1.8,0,3.5-0.8,4.8-2.1l-1,2.1c0.3-0.6,1.6-0.7,3.1-0.7
			C57.8,74.1,56.1,75.3,53.8,75.8z M58.8,61.9c-0.2,2-0.7,3.8-1.4,5.4c-1.4,2.8-3.7,4.6-6.2,4.6c-3.9,0-7.1-4.2-7.6-9.7
			c0,0,3.1-0.5,4.9-1.2c0,0,3.3-1.1,7.4-4c0,0,0,0,0.1,0c0,0,0.1,0.1,0.2,0.3c0.4,0.6,1.1,2.4-0.3,3.2l2.6,0.3l0,0l0.5,0.1
			C58.8,61.2,58.8,61.6,58.8,61.9z"/>
	</g>
	<g id="XMLID_18_" class="st1">
		<path id="XMLID_19_" d="M85.1,72c1.5,0.2,2.9,0.4,2.9,0.4c-3.1-1.7-3-7.8-3-7.8c0.5-11.7-7.2-11.1-7.2-11.1l0,0l0,0
			c0,0-7.7-0.6-7.2,11.1c0,0,0.1,6.1-3,7.8c0,0,0.8-0.1,1.9-0.1c-3.1,1.4-5.3,4.5-5.3,8.2c0,5,4,4.1,9,4.1h9.2c5,0,9,0.9,9-4.1
			C91.3,76.5,88.7,73.1,85.1,72z M79.8,74.3l-2.1,3.4l-2.1-3.4c-1.5-0.3-2.7-1-3.1-1.9c1.2,0.1,2.2,0.3,2.5,0.8l-1.1-2.6
			c1.1,1.1,2.4,1.7,3.8,1.7s2.7-0.6,3.8-1.7l-0.8,1.7c0.3-0.4,1.3-0.6,2.5-0.5C83,73,81.7,73.9,79.8,74.3z M83.7,63.5
			c-0.1,1.6-0.5,3-1.1,4.2c-1.1,2.2-2.9,3.6-4.8,3.6c-3,0-5.5-3.3-5.9-7.6c0,0,2.4-0.4,3.8-1c0,0,2.6-0.9,5.8-3.1l0,0
			c0,0,0.1,0.1,0.1,0.2c0.3,0.5,0.9,1.9-0.2,2.5l2,0.3l0,0l0.4,0.1C83.8,62.9,83.8,63.2,83.7,63.5z"/>
	</g>
	<g id="XMLID_23_" class="st1">
		<path id="XMLID_28_" class="st2" d="M22.8,70.1c-3.1,0-5.7-3.4-6.1-7.8c0.3,0.1,0.6,0.2,1,0.5c0,0-0.7-4.1,0.8-4.7c0,0,2,1,4.4,1
			c2.3-0.1,4.4-1,4.4-1c1.5,0.6,0.8,4.7,0.8,4.7c0.4-0.3,0.7-0.4,1-0.5C28.5,66.7,25.9,70.1,22.8,70.1z"/>
		<path id="XMLID_25_" d="M29.8,61.4c0-0.2,0-0.3,0-0.5c0-0.4,0-0.8-0.1-1.1c-0.5-3.6-3.4-6.3-7-6.3s-6.5,2.7-7,6.3
			c-0.1,0.4-0.1,0.7-0.1,1.1c0,0.2,0,0.3,0,0.5s0,0.4,0.1,0.7c0,0.1,0,0.1,0,0.2c0.4,5,3.4,8.9,7,8.9s6.5-3.9,7-8.9
			c0-0.1,0-0.1,0-0.2C29.8,61.9,29.8,61.6,29.8,61.4z M27.9,62.8c0.4-0.3,0.7-0.4,1-0.5c-0.4,4.4-3,7.8-6.1,7.8s-5.7-3.4-6.1-7.8
			c0.3,0.1,0.6,0.2,1,0.5c0,0-0.7-4.1,0.8-4.7c0,0,2,1,4.4,1c2.3-0.1,4.4-1,4.4-1C28.6,58.7,27.9,62.8,27.9,62.8z"/>
		<path id="XMLID_24_" d="M16.7,70.3L16.7,70.3c0.2,0,0.3,0,0.4-0.1l0,0v0.1c0,0.2,0.1,0.4,0.2,0.6c0.7,1.7,2.9,5,4.2,6.9l0.3-3.9
			c-0.4-0.2-0.7-0.5-0.9-0.9c-0.2-0.3-0.2-0.6-0.2-0.9c0,0,1,0.4,2,0.4c0.1,0,0.1,0,0.2,0s0.1,0,0.2,0c1,0,2-0.4,2-0.4
			c0,0.3-0.1,0.6-0.2,0.9c-0.2,0.4-0.5,0.7-0.9,0.9l0.3,3.9c1.3-1.9,3.5-5.1,4.2-6.9c0.1-0.2,0.2-0.4,0.2-0.6v-0.1l0,0
			c0.1,0,0.3,0,0.4,0l0,0c4.5,0.6,8,4.5,8,9.2c0,5.2-4.2,5.1-9.3,5.1H23h-5c-5.2,0-9.3,0-9.3-5.1C8.7,74.8,12.1,70.9,16.7,70.3z"/>
	</g>
</g>
<g>
	<polygon class="st3" points="58.7,40.3 35.7,55 24,36.6 47,21.9 	"/>
	<g>
		<g>
			<g>
				<polygon class="st3" points="34.3,55.5 30.1,56.1 30.1,56.1 30.1,56.1 20.6,41.3 22.9,37.7 				"/>
			</g>
		</g>
	</g>
	<g>
		<g>
			<g>
				<polygon class="st3" points="59.8,39.2 62,35.6 62,35.6 52.6,20.9 48.4,21.4 				"/>
			</g>
		</g>
	</g>
	<path d="M81,67.1c-1.9,0.3-11.5,12.3-11.5,12.3L65.5,82c0,0,14-1,16.7-8.1C84.8,66.6,82.9,66.8,81,67.1z M80.8,73.6
		c-3.3,5-14.4,7.7-14.4,7.7l3.6-2.3c0,0,9.4-9.2,10.9-9.7C82.5,68.9,84,68.5,80.8,73.6z"/>
	<polygon points="44.4,49.1 49,46.2 50.9,49.2 49.9,52.8 46.3,52.1 	"/>
	<polygon points="47,53.1 50.4,53.6 51.5,50.1 52.8,52.2 51.8,55.7 48.2,55.2 	"/>
	<polygon points="48.9,56.1 52.4,56.6 53.4,53.2 54.8,55.3 53.7,58.7 50.2,58.2 	"/>
	<polygon points="50.8,59.1 54.3,59.5 55.4,56.2 70,79.1 65.5,82 	"/>
</g>
<polygon class="st3" points="58.4,40.3 35.8,54.8 24.3,36.7 46.9,22.3 "/>
<g>
	<g>
		<g>
			<polygon class="st3" points="59.6,38.7 61.7,35.2 61.7,35.2 52.8,21.4 48.8,21.9 			"/>
		</g>
	</g>
</g>
<g>
	<g>
		<g>
			<polygon class="st3" points="33.9,55 29.9,55.5 29.9,55.5 29.9,55.5 20.9,41.5 23.1,38.1 			"/>
		</g>
	</g>
</g>
</svg>
