<?xml version="1.0" encoding="utf-8"?>
<!-- Generator: Adobe Illustrator 19.0.0, SVG Export Plug-In . SVG Version: 6.00 Build 0)  -->
<svg version="1.1" id="Ebene_1" xmlns="http://www.w3.org/2000/svg" xmlns:xlink="http://www.w3.org/1999/xlink" x="0px" y="0px"
	 viewBox="0 -5.2 100 80.8" style="enable-background:new 0 -5.2 100 80.8;" xml:space="preserve">
<style type="text/css">
	.st0{display:none;}
	.st1{display:inline;}
	.st2{fill:none;}
</style>
<g id="Ebene_5">
</g>
<g id="Ebene_1_1_" class="st0">
	<g class="st1">
		<path d="M75.7,47.5c0-0.3-0.2-0.6-0.5-0.7l-19.1-5v-8.4c0-0.4-0.3-0.7-0.7-0.7h-3c-0.4,0-0.7,0.3-0.7,0.7v7.1l-7.1-1.8
			c-0.1,0-0.2,0-0.3,0c-5.7,1.1-10.3,4-12.7,7.9l-0.2,0.3c-0.1,0.1-0.1,0.3-0.1,0.4l0,0v22.9c0,0.4,0.3,0.7,0.7,0.7h43.1
			c0.4,0,0.7-0.3,0.7-0.7L75.7,47.5L75.7,47.5z M53,34.2h1.6V44H53V34.2z M44.5,40.2l7.2,1.9v2.7c0,0.4,0.3,0.7,0.7,0.7h3
			c0.4,0,0.7-0.3,0.7-0.7v-1.5l13.6,3.6H33.3C35.6,43.5,39.6,41.1,44.5,40.2z M74.3,69.8H32.7v-8.7c1.1,0.1,1.7,0.6,2.4,1.2
			c0.9,0.7,1.9,1.5,4,1.5c2,0,3-0.8,4-1.5c0.8-0.7,1.6-1.2,3.1-1.2s2.3,0.5,3.1,1.2c0.9,0.7,1.9,1.5,4,1.5c2,0,3-0.8,4-1.5
			c0.8-0.7,1.6-1.2,3.1-1.2s2.3,0.5,3.1,1.2c0.9,0.7,2,1.5,4,1.5s3-0.8,4-1.5c0.8-0.7,1.6-1.2,3.1-1.2C74.3,61,74.3,69.8,74.3,69.8z
			 M74.3,59.7c-2,0-3,0.8-4,1.5c-0.8,0.7-1.6,1.2-3.1,1.2s-2.3-0.5-3.1-1.2c-0.9-0.7-2-1.5-4-1.5s-3,0.8-4,1.5
			c-0.8,0.7-1.6,1.2-3.1,1.2s-2.3-0.5-3.1-1.2c-0.9-0.7-1.9-1.5-4-1.5c-2,0-3,0.8-4,1.5c-0.8,0.7-1.6,1.2-3.1,1.2s-2.3-0.5-3.1-1.2
			c-0.8-0.6-1.7-1.3-3.3-1.5v-4c1.1,0.1,1.7,0.6,2.4,1.2c0.9,0.7,1.9,1.5,4,1.5c2,0,3-0.8,4-1.5c0.8-0.7,1.6-1.2,3.1-1.2
			s2.3,0.5,3.1,1.2c0.9,0.7,1.9,1.5,4,1.5c2,0,3-0.8,4-1.5c0.8-0.7,1.6-1.2,3.1-1.2s2.3,0.5,3.1,1.2c0.9,0.7,2,1.5,4,1.5
			s3-0.8,4-1.5c0.8-0.7,1.6-1.2,3.1-1.2C74.3,55.7,74.3,59.7,74.3,59.7z M74.3,54.3c-2,0-3,0.8-4,1.5c-0.8,0.7-1.6,1.2-3.1,1.2
			s-2.3-0.5-3.1-1.2c-0.9-0.7-2-1.5-4-1.5s-3,0.8-4,1.5C55.3,56.5,54.5,57,53,57s-2.3-0.5-3.1-1.2c-0.9-0.7-1.9-1.5-4-1.5
			c-2,0-3,0.8-4,1.5c-0.8,0.7-1.6,1.2-3.1,1.2s-2.3-0.5-3.1-1.2c-0.8-0.6-1.7-1.3-3.3-1.5v-6.1h41.7L74.3,54.3L74.3,54.3z"/>
		<path d="M52.8,31.4c0.2,0.1,0.5,0.1,0.8,0.1c1.2,0,2.5-1,3.1-2.3c0.3-0.7,0.3-1.7,0.3-1.8c0-3.5-2.7-5.1-2.7-5.1
			c-0.2-0.1-0.5-0.1-0.7,0s-0.3,0.3-0.3,0.6c0.1,2.3-0.6,3.5-0.9,3.8l0,0c-0.5,0.6-0.7,1-0.8,1.2c-0.4,0.9-0.3,1.6-0.1,2.1
			C51.6,30.7,52.1,31.1,52.8,31.4z M52.7,28.5L52.7,28.5c0.1-0.1,0.2-0.3,0.6-0.8c0.4-0.5,1-1.5,1.2-3.2c0.5,0.6,1.1,1.6,1.1,3.1
			c0,0.2-0.1,0.8-0.2,1.2c-0.5,1-1.6,1.6-2,1.4c-0.3-0.1-0.5-0.4-0.7-0.6C52.5,29.3,52.5,29,52.7,28.5z"/>
	</g>
</g>
<g id="Ebene_2" class="st0">
	<path id="XMLID_8_" class="st1" d="M43,50.3l-2.4-1.8l0,0v-4.4l0,0l-7.7-7.5l0,0H18.1v12l-2.4,1.8v9.5v0.5h0.5h1.9V68h22.4v-7.6
		h1.9H43v-0.5v-2.6V50.3z M24.6,56.3c0.1,0.2,0.2,0.3,0.3,0.5c0.1,0.1,0.2,0.2,0.4,0.3c0.2,0.1,0.3,0.1,0.5,0.1c0.1,0,0.2,0,0.3,0
		c0.1,0,0.2,0,0.2-0.1s0.1-0.1,0.2-0.1s0.1-0.1,0.2-0.1c0,0,0,0,0.1,0h0.1c0.1,0,0.1,0,0.1,0.1l0.4,0.4c-0.2,0.2-0.4,0.4-0.7,0.5
		c-0.3,0.1-0.6,0.2-0.9,0.2s-0.6-0.1-0.9-0.2c-0.3-0.1-0.5-0.3-0.7-0.5s-0.3-0.4-0.4-0.7s-0.1-0.6-0.1-0.9c0-0.2,0-0.4,0.1-0.6
		c0-0.2,0.1-0.4,0.2-0.5c0.1-0.2,0.2-0.3,0.3-0.5c0.1-0.1,0.3-0.2,0.4-0.3c0.2-0.1,0.3-0.2,0.5-0.2s0.4-0.1,0.6-0.1s0.3,0,0.5,0
		c0.1,0,0.3,0.1,0.4,0.1c0.1,0.1,0.2,0.1,0.3,0.2c0.1,0.1,0.2,0.2,0.3,0.2L27,54.4c0,0,0,0.1-0.1,0.1h-0.1c0,0-0.1,0-0.1-0.1
		s-0.1-0.1-0.2-0.1s-0.2-0.1-0.3-0.1c-0.1,0-0.2-0.1-0.4-0.1c-0.2,0-0.4,0-0.5,0.1c-0.2,0.1-0.3,0.2-0.4,0.3s-0.2,0.3-0.3,0.5
		c-0.1,0.2-0.1,0.4-0.1,0.6C24.5,55.9,24.6,56.1,24.6,56.3z M29.8,56.4c-0.1-0.1-0.1-0.1-0.2-0.2c-0.1,0-0.2-0.1-0.3-0.1
		C29.1,56,29,56,28.9,56s-0.2-0.1-0.4-0.1c-0.1-0.1-0.2-0.1-0.3-0.2c-0.1-0.1-0.2-0.2-0.2-0.3c-0.1-0.1-0.1-0.3-0.1-0.5
		s0-0.3,0.1-0.5s0.2-0.3,0.3-0.4c0.1-0.1,0.3-0.2,0.5-0.3s0.4-0.1,0.6-0.1c0.3,0,0.5,0,0.7,0.1s0.4,0.2,0.6,0.3l-0.2,0.4l-0.1,0.1
		h-0.1h-0.1c-0.1,0-0.1-0.1-0.2-0.1s-0.1-0.1-0.2-0.1s-0.2,0-0.3,0c-0.2,0-0.4,0-0.5,0.1s-0.2,0.2-0.2,0.4c0,0.1,0,0.2,0.1,0.2
		c0.1,0.1,0.1,0.1,0.2,0.2c0.1,0,0.2,0.1,0.3,0.1c0.1,0,0.2,0.1,0.4,0.1s0.2,0.1,0.4,0.2c0.1,0.1,0.2,0.1,0.3,0.2
		c0.1,0.1,0.2,0.2,0.2,0.3c0.1,0.1,0.1,0.3,0.1,0.5s0,0.4-0.1,0.6c-0.1,0.2-0.2,0.3-0.3,0.5c-0.1,0.1-0.3,0.2-0.5,0.3
		s-0.4,0.1-0.7,0.1c-0.1,0-0.3,0-0.4,0S28.5,58,28.4,58c-0.1-0.1-0.3-0.1-0.4-0.2c-0.1-0.1-0.2-0.2-0.3-0.2l0.3-0.4l0.1-0.1h0.1
		c0.1,0,0.1,0,0.2,0.1c0.1,0,0.1,0.1,0.2,0.1s0.2,0.1,0.3,0.1c0.1,0,0.2,0.1,0.4,0.1c0.2,0,0.4,0,0.5-0.1S30,57.2,30,57
		C29.9,56.5,29.9,56.4,29.8,56.4z M33.6,57.9h-0.8L31,53.5h0.7c0.1,0,0.1,0,0.2,0.1l0.1,0.1l1,2.6c0,0.1,0.1,0.2,0.1,0.3
		s0.1,0.2,0.1,0.4c0-0.1,0.1-0.2,0.1-0.4c0-0.1,0.1-0.2,0.1-0.3l1-2.6c0-0.1,0.1-0.1,0.1-0.1s0.1-0.1,0.2-0.1h0.7L33.6,57.9z
		 M31.8,37.7v7.5h7.7v5.1H19.2V37.7H31.8z M39.5,67H19.2v-6.5h20.3V67L39.5,67z"/>
	<path id="XMLID_16_" class="st1" d="M64.1,32.4v-4.2l0,0v-0.1l0,0c0,0,0,0,0-0.1l0,0c0,0,0,0,0-0.1l0,0c0,0,0,0-0.1-0.1l-6.4-6.4
		l0,0l0,0c0,0,0,0-0.1,0l0,0c0,0,0,0-0.1,0l0,0c0,0,0,0-0.1,0l0,0h-0.1l0,0h-14c-0.3,0-0.5,0.2-0.5,0.5v10.7h-1.5v10.9h1.5v4.9
		c0,0.3,0.2,0.5,0.5,0.5h20.4c0.3,0,0.5-0.2,0.5-0.5v-4.9h1.5V32.4H64.1z M57.7,22.9l4.7,4.8h-4.7V22.9z M63.1,47.7H43.7v-4.5h19.4
		V47.7z M43.7,35.4H45l0.5,0.9c0.2,0.3,0.3,0.6,0.4,0.9l0,0c0.1-0.3,0.2-0.6,0.4-0.9l0.4-0.9H48l-1.5,2.5l1.5,2.6h-1.3l-0.5-0.9
		c-0.2-0.4-0.3-0.6-0.5-0.9l0,0c-0.1,0.3-0.2,0.6-0.4,0.9l-0.3,1h-1.3l1.5-2.6L43.7,35.4z M49,40.6l0.3-5.2h1.6l0.5,1.7
		c0.2,0.6,0.3,1.2,0.4,1.8l0,0c0.1-0.6,0.3-1.3,0.5-1.9l0.6-1.7h1.5l0.3,5.2h-1.1l-0.1-2c0-0.6,0-1.4,0-2.1l0,0
		c-0.2,0.7-0.4,1.4-0.6,2l-0.6,2h-0.9l-0.6-2c-0.2-0.6-0.3-1.3-0.5-2l0,0c0,0.7-0.1,1.5-0.1,2.1l-0.1,2L49,40.6L49,40.6z M59.2,39.6
		v1H56v-5.2h1.2v4.2H59.2z M63.1,32.4H43.7V22.2h13v6c0,0.3,0.2,0.5,0.5,0.5h5.9L63.1,32.4L63.1,32.4z"/>
	<g id="XMLID_47_" class="st1">
		<path id="XMLID_59_" d="M62.4,52.3c-8.4,0-15.4,2-15.5,5.1c0,0.1,0,19.1,0,24.3c0,0.8,0,1.2,0,1.2c0,2.8,7.4,4.8,15.5,4.8
			s15.5-1.9,15.5-4.8s0-25.4,0-25.5C78,54.4,70.8,52.3,62.4,52.3z M62.4,61.4c-8.6,0-14.5-2.2-14.5-4.1c0-2,5.8-4.1,14.5-4.1
			s14.5,2.2,14.5,4.1C76.9,59.3,71,61.4,62.4,61.4z M76.9,82.8c-0.5,2-6.2,3.8-14.5,3.8s-14-2-14.5-3.8l0,0v-7.6
			c0.7,0.8,2.1,1.6,3.9,2.2c2.7,0.8,6.4,1.3,10.5,1.3c6.9,0,12.7-1.4,14.5-3.4L76.9,82.8L76.9,82.8z M76.9,74.2
			c-0.6,2-6.2,3.8-14.5,3.8c-4.1,0-7.6-0.5-10.1-1.2c-2.5-0.8-4.1-1.7-4.3-2.6v-6.9c1.4,1.7,5.4,2.9,10.7,3.4
			c1.2,0.1,2.4,0.1,3.8,0.1c6.9,0,12.7-1.4,14.5-3.4L76.9,74.2L76.9,74.2z M76.9,66.1c-0.6,2-6.2,3.8-14.5,3.8c-1,0-2,0-2.9-0.1
			C52.8,69.4,48.4,67.6,48,66v-7.3c1.7,1.8,7.5,3.5,14.5,3.5c3.7,0,7-0.4,9.6-1c2.3-0.6,4-1.4,4.9-2.3L76.9,66.1L76.9,66.1z"/>
		<path id="XMLID_56_" d="M71.5,64.5c0,0.9,0.8,1.7,1.7,1.7s1.7-0.8,1.7-1.7c0-0.9-0.8-1.7-1.7-1.7S71.5,63.6,71.5,64.5z M74.1,64.5
			c0,0.6-0.5,0.9-0.9,0.9c-0.6,0-0.9-0.5-0.9-0.9s0.5-0.9,0.9-0.9C73.8,63.6,74.1,63.9,74.1,64.5z"/>
		<path id="XMLID_53_" d="M73.2,74.7c0.9,0,1.7-0.8,1.7-1.7c0-0.9-0.8-1.7-1.7-1.7s-1.7,0.8-1.7,1.7C71.5,74,72.3,74.7,73.2,74.7z
			 M73.2,72.1c0.6,0,0.9,0.5,0.9,0.9c0,0.6-0.5,0.9-0.9,0.9c-0.6,0-0.9-0.5-0.9-0.9C72.3,72.5,72.6,72.1,73.2,72.1z"/>
		<path id="XMLID_50_" d="M73.2,83.2c0.9,0,1.7-0.8,1.7-1.7c0-0.9-0.8-1.7-1.7-1.7s-1.7,0.8-1.7,1.7C71.5,82.4,72.3,83.2,73.2,83.2z
			 M73.2,80.5c0.6,0,0.9,0.5,0.9,0.9c0,0.6-0.5,0.9-0.9,0.9c-0.6,0-0.9-0.5-0.9-0.9C72.3,80.9,72.6,80.5,73.2,80.5z"/>
	</g>
</g>
<g id="Ebene_3" class="st0">
	<g id="XMLID_57_" class="st1">
		<path id="XMLID_58_" d="M60.5,62.6c2,0.2,3.7,0.6,3.7,0.6c-3.9-2.2-3.8-10-3.8-10c0.7-15.1-9.3-14.3-9.3-14.3l0,0l0,0
			c0,0-10-0.8-9.3,14.3c0,0,0.1,7.8-3.8,10c0,0,1.1-0.1,2.5-0.1c-4,1.8-6.8,5.8-6.8,10.5c0,6.4,5.2,5.2,11.5,5.2H57
			c6.4,0,11.5,1.1,11.5-5.2C68.6,68.4,65.2,64.1,60.5,62.6z M53.8,65.6L51.1,70l-2.7-4.3c-1.9-0.4-3.4-1.3-4-2.5
			c1.6,0.1,2.9,0.4,3.2,1l-1.5-3.3c1.4,1.4,3.1,2.2,4.9,2.2c1.8,0,3.5-0.8,4.8-2.1l-1,2.1c0.3-0.6,1.6-0.7,3.1-0.7
			C57.8,63.9,56.1,65.1,53.8,65.6z M58.8,51.7c-0.2,2-0.7,3.8-1.4,5.4c-1.4,2.8-3.7,4.6-6.2,4.6c-3.9,0-7.1-4.2-7.6-9.7
			c0,0,3.1-0.5,4.9-1.2c0,0,3.3-1.1,7.4-4c0,0,0,0,0.1,0c0,0,0.1,0.1,0.2,0.3c0.4,0.6,1.1,2.4-0.3,3.2l2.6,0.3l0,0l0.5,0.1
			C58.8,51,58.8,51.4,58.8,51.7z"/>
	</g>
	<g id="XMLID_18_" class="st1">
		<path id="XMLID_19_" d="M85.1,61.8c1.5,0.2,2.9,0.4,2.9,0.4c-3.1-1.7-3-7.8-3-7.8c0.5-11.7-7.2-11.1-7.2-11.1l0,0l0,0
			c0,0-7.7-0.6-7.2,11.1c0,0,0.1,6.1-3,7.8c0,0,0.8-0.1,1.9-0.1c-3.1,1.4-5.3,4.5-5.3,8.2c0,5,4,4.1,9,4.1h9.2c5,0,9,0.9,9-4.1
			C91.3,66.3,88.7,62.9,85.1,61.8z M79.8,64.1l-2.1,3.4l-2.1-3.4c-1.5-0.3-2.7-1-3.1-1.9c1.2,0.1,2.2,0.3,2.5,0.8l-1.1-2.6
			c1.1,1.1,2.4,1.7,3.8,1.7s2.7-0.6,3.8-1.7l-0.8,1.7c0.3-0.4,1.3-0.6,2.5-0.5C83,62.8,81.7,63.7,79.8,64.1z M83.7,53.3
			c-0.1,1.6-0.5,3-1.1,4.2c-1.1,2.2-2.9,3.6-4.8,3.6c-3,0-5.5-3.3-5.9-7.6c0,0,2.4-0.4,3.8-1c0,0,2.6-0.9,5.8-3.1l0,0
			c0,0,0.1,0.1,0.1,0.2c0.3,0.5,0.9,1.9-0.2,2.5l2,0.3l0,0l0.4,0.1C83.8,52.7,83.8,53,83.7,53.3z"/>
	</g>
	<g id="XMLID_23_" class="st1">
		<path id="XMLID_28_" class="st2" d="M22.8,59.9c-3.1,0-5.7-3.4-6.1-7.8c0.3,0.1,0.6,0.2,1,0.5c0,0-0.7-4.1,0.8-4.7c0,0,2,1,4.4,1
			c2.3-0.1,4.4-1,4.4-1c1.5,0.6,0.8,4.7,0.8,4.7c0.4-0.3,0.7-0.4,1-0.5C28.5,56.5,25.9,59.9,22.8,59.9z"/>
		<path id="XMLID_25_" d="M29.8,51.2c0-0.2,0-0.3,0-0.5c0-0.4,0-0.8-0.1-1.1c-0.5-3.6-3.4-6.3-7-6.3s-6.5,2.7-7,6.3
			c-0.1,0.4-0.1,0.7-0.1,1.1c0,0.2,0,0.3,0,0.5s0,0.4,0.1,0.7c0,0.1,0,0.1,0,0.2c0.4,5,3.4,8.9,7,8.9s6.5-3.9,7-8.9
			c0-0.1,0-0.1,0-0.2C29.8,51.7,29.8,51.4,29.8,51.2z M27.9,52.6c0.4-0.3,0.7-0.4,1-0.5c-0.4,4.4-3,7.8-6.1,7.8s-5.7-3.4-6.1-7.8
			c0.3,0.1,0.6,0.2,1,0.5c0,0-0.7-4.1,0.8-4.7c0,0,2,1,4.4,1c2.3-0.1,4.4-1,4.4-1C28.6,48.5,27.9,52.6,27.9,52.6z"/>
		<path id="XMLID_24_" d="M16.7,60.1L16.7,60.1c0.2,0,0.3,0,0.4-0.1l0,0v0.1c0,0.2,0.1,0.4,0.2,0.6c0.7,1.7,2.9,5,4.2,6.9l0.3-3.9
			c-0.4-0.2-0.7-0.5-0.9-0.9c-0.2-0.3-0.2-0.6-0.2-0.9c0,0,1,0.4,2,0.4c0.1,0,0.1,0,0.2,0s0.1,0,0.2,0c1,0,2-0.4,2-0.4
			c0,0.3-0.1,0.6-0.2,0.9c-0.2,0.4-0.5,0.7-0.9,0.9l0.3,3.9c1.3-1.9,3.5-5.1,4.2-6.9c0.1-0.2,0.2-0.4,0.2-0.6V60l0,0
			c0.1,0,0.3,0,0.4,0l0,0c4.5,0.6,8,4.5,8,9.2c0,5.2-4.2,5.1-9.3,5.1H23h-5c-5.2,0-9.3,0-9.3-5.1C8.7,64.6,12.1,60.7,16.7,60.1z"/>
	</g>
</g>
<rect x="27" y="12.4" transform="matrix(-0.8083 0.5888 -0.5888 -0.8083 86.968 17.5457)" width="27.3" height="21.1"/>
<g>
	<g>
		<g>
			<polygon points="34.6,40.4 30.4,41.2 30.4,41.2 30.4,41.2 20.1,27 22.2,23.3 			"/>
		</g>
	</g>
</g>
<g>
	<g>
		<g>
			<polygon points="59.1,22.6 61.1,18.8 61.1,18.8 50.8,4.7 46.6,5.5 			"/>
		</g>
	</g>
</g>
<path d="M81.9,48.1C80,48.5,71.2,61.1,71.2,61.1l-3.9,2.9c0,0,13.9-1.8,16.2-9.1C85.7,47.4,83.8,47.7,81.9,48.1z M82.1,54.6
	c-3,5.2-13.9,8.6-13.9,8.6l3.5-2.5c0,0,8.8-9.7,10.3-10.3C83.5,49.9,85,49.4,82.1,54.6z"/>
<polygon points="44.3,32.4 48.7,29.2 50.8,32.1 50,35.7 46.4,35.3 "/>
<polygon points="47.1,36.2 50.6,36.5 51.4,33 52.9,35 52.1,38.5 48.5,38.2 "/>
<polygon points="49.2,39.1 52.7,39.4 53.5,35.9 55,37.9 54.2,41.4 50.6,41.1 "/>
<polygon points="51.3,42 54.8,42.2 55.7,38.8 71.7,60.8 67.3,64 "/>
</svg>
