<?xml version="1.0" encoding="utf-8"?>
<!-- Generator: Adobe Illustrator 19.0.0, SVG Export Plug-In . SVG Version: 6.00 Build 0)  -->
<svg version="1.1" id="Ebene_1" xmlns="http://www.w3.org/2000/svg" xmlns:xlink="http://www.w3.org/1999/xlink" x="0px" y="0px"
	 viewBox="0 23.2 100 55.8" style="enable-background:new 0 23.2 100 55.8;" xml:space="preserve">
<style type="text/css">
	.st0{display:none;}
	.st1{display:inline;}
</style>
<g id="Ebene_1_1_" class="st0">
	<g class="st1">
		<path d="M82.4,74.9c0-0.5-0.3-0.9-0.7-1l-27.9-7.3V54.4c0-0.6-0.4-1-1-1h-4.4c-0.6,0-1,0.4-1,1v10.4l-10.3-2.6c-0.1,0-0.3,0-0.4,0
			c-8.3,1.6-15,5.9-18.6,11.6l-0.3,0.5c-0.1,0.2-0.2,0.4-0.1,0.6l0,0v33.5c0,0.6,0.4,1,1,1h62.9c0.6,0,1-0.4,1-1L82.4,74.9
			L82.4,74.9z M49.3,55.4h2.4v14.4h-2.4V55.4z M36.8,64.2L47.3,67v3.9c0,0.6,0.4,1,1,1h4.4c0.6,0,1-0.4,1-1v-2.2l19.9,5.2H20.4
			C23.8,69.1,29.6,65.6,36.8,64.2z M80.4,107.4H19.6V94.7c1.6,0.2,2.5,0.9,3.5,1.7c1.3,1,2.8,2.2,5.8,2.2c2.9,0,4.4-1.2,5.8-2.2
			c1.2-1,2.3-1.8,4.5-1.8s3.3,0.8,4.5,1.8c1.3,1,2.8,2.2,5.8,2.2c2.9,0,4.4-1.2,5.8-2.2c1.2-1,2.3-1.8,4.5-1.8s3.3,0.8,4.5,1.8
			c1.3,1,2.9,2.2,5.8,2.2s4.4-1.2,5.8-2.2c1.2-1,2.3-1.8,4.5-1.8C80.4,94.6,80.4,107.4,80.4,107.4z M80.4,92.7
			c-2.9,0-4.4,1.2-5.8,2.2c-1.2,1-2.3,1.8-4.5,1.8s-3.3-0.8-4.5-1.8c-1.3-1-2.9-2.2-5.8-2.2c-2.9,0-4.4,1.2-5.8,2.2
			c-1.2,1-2.3,1.8-4.5,1.8s-3.3-0.8-4.5-1.8c-1.3-1-2.8-2.2-5.8-2.2c-2.9,0-4.4,1.2-5.8,2.2c-1.2,1-2.3,1.8-4.5,1.8
			s-3.3-0.8-4.5-1.8c-1.2-0.9-2.5-1.9-4.8-2.2v-5.8c1.6,0.2,2.5,0.9,3.5,1.7c1.3,1,2.8,2.2,5.8,2.2c2.9,0,4.4-1.2,5.8-2.2
			c1.2-1,2.3-1.8,4.5-1.8s3.3,0.8,4.5,1.8c1.3,1,2.8,2.2,5.8,2.2c2.9,0,4.4-1.2,5.8-2.2c1.2-1,2.3-1.8,4.5-1.8s3.3,0.8,4.5,1.8
			c1.3,1,2.9,2.2,5.8,2.2s4.4-1.2,5.8-2.2c1.2-1,2.3-1.8,4.5-1.8C80.4,86.8,80.4,92.7,80.4,92.7z M80.4,84.8c-2.9,0-4.4,1.2-5.8,2.2
			c-1.2,1-2.3,1.8-4.5,1.8S66.8,88,65.6,87c-1.3-1-2.9-2.2-5.8-2.2c-2.9,0-4.4,1.2-5.8,2.2c-1.2,1-2.3,1.8-4.5,1.8S46.2,88,45,87
			c-1.3-1-2.8-2.2-5.8-2.2c-2.9,0-4.4,1.2-5.8,2.2c-1.2,1-2.3,1.8-4.5,1.8S25.6,88,24.4,87c-1.2-0.9-2.5-1.9-4.8-2.2v-8.9h60.9
			L80.4,84.8L80.4,84.8z"/>
		<path d="M48.9,51.4c0.3,0.2,0.7,0.2,1.1,0.2c1.7,0,3.6-1.5,4.5-3.3c0.5-1,0.5-2.5,0.5-2.6c0-5.1-3.9-7.4-4-7.5
			c-0.3-0.2-0.7-0.2-1,0c-0.3,0.2-0.5,0.5-0.5,0.9c0.1,3.3-0.9,5.1-1.3,5.6l0,0c-0.7,0.9-1,1.4-1.1,1.7c-0.6,1.3-0.4,2.4-0.1,3
			C47.2,50.3,47.9,51,48.9,51.4z M48.8,47.2L48.8,47.2c0.1-0.1,0.3-0.4,0.9-1.2c0.6-0.7,1.4-2.2,1.7-4.7c0.8,0.9,1.6,2.4,1.6,4.5
			c0,0.3-0.1,1.2-0.3,1.7c-0.7,1.4-2.3,2.4-2.9,2.1c-0.5-0.2-0.8-0.6-1-0.9C48.5,48.3,48.5,47.8,48.8,47.2z"/>
	</g>
</g>
<g id="Ebene_2" class="st0">
	<path id="XMLID_8_" class="st1" d="M42.6,73.1l-2.7-2l0,0v-4.9l0,0l-8.5-8.3l0,0H15.1v13.3l-2.7,2v10.5v0.6H13h2.1v8.4h24.8v-8.4
		H42h0.6v-0.6v-2.9V73.1z M22.3,79.7c0.1,0.2,0.2,0.4,0.3,0.5c0.1,0.1,0.3,0.2,0.4,0.3c0.2,0.1,0.4,0.1,0.5,0.1s0.2,0,0.3,0
		c0.1,0,0.2,0,0.3-0.1c0.1,0,0.2-0.1,0.2-0.1c0.1,0,0.1-0.1,0.2-0.2c0,0,0.1,0,0.1-0.1h0.1c0.1,0,0.1,0,0.1,0.1l0.4,0.4
		c-0.2,0.3-0.4,0.4-0.7,0.6c-0.3,0.1-0.6,0.2-1,0.2s-0.7-0.1-1-0.2c-0.3-0.1-0.5-0.3-0.7-0.5s-0.4-0.5-0.5-0.8
		c-0.1-0.3-0.2-0.6-0.2-1c0-0.2,0-0.5,0.1-0.7s0.1-0.4,0.2-0.6c0.1-0.2,0.2-0.4,0.4-0.5c0.1-0.1,0.3-0.3,0.5-0.4
		c0.2-0.1,0.4-0.2,0.6-0.2c0.2-0.1,0.4-0.1,0.7-0.1c0.2,0,0.4,0,0.5,0s0.3,0.1,0.5,0.1c0.1,0.1,0.3,0.1,0.4,0.2
		c0.1,0.1,0.2,0.2,0.3,0.3L25,77.5c0,0,0,0.1-0.1,0.1h-0.1c-0.1,0-0.1,0-0.2-0.1c-0.1,0-0.1-0.1-0.2-0.1s-0.2-0.1-0.3-0.1
		s-0.3-0.1-0.5-0.1s-0.4,0-0.6,0.1s-0.3,0.2-0.4,0.3c-0.1,0.1-0.2,0.3-0.3,0.5c-0.1,0.2-0.1,0.4-0.1,0.7
		C22.2,79.3,22.2,79.5,22.3,79.7z M28,79.8c-0.1-0.1-0.1-0.1-0.3-0.2c-0.1-0.1-0.2-0.1-0.4-0.1c-0.1,0-0.3-0.1-0.4-0.1
		s-0.3-0.1-0.4-0.2c-0.1-0.1-0.3-0.1-0.4-0.2c-0.1-0.1-0.2-0.2-0.3-0.4c-0.1-0.2-0.1-0.3-0.1-0.6c0-0.2,0-0.4,0.1-0.5
		c0.1-0.2,0.2-0.3,0.3-0.5c0.1-0.1,0.3-0.2,0.5-0.3s0.4-0.1,0.7-0.1c0.3,0,0.6,0,0.8,0.1c0.3,0.1,0.5,0.2,0.6,0.4l-0.2,0.5
		c0,0.1-0.1,0.1-0.1,0.1h-0.1c0,0-0.1,0-0.2-0.1c-0.1,0-0.1-0.1-0.2-0.1s-0.2-0.1-0.3-0.1c-0.1,0-0.2-0.1-0.3-0.1
		c-0.2,0-0.4,0.1-0.5,0.2c-0.1,0.1-0.2,0.2-0.2,0.4c0,0.1,0,0.2,0.1,0.3s0.1,0.1,0.3,0.2c0.2,0.1,0.2,0.1,0.4,0.1s0.3,0.1,0.4,0.1
		s0.3,0.1,0.4,0.2c0.1,0.1,0.3,0.1,0.4,0.2c0.1,0.1,0.2,0.2,0.3,0.4c0.1,0.1,0.1,0.3,0.1,0.5c0,0.2,0,0.4-0.1,0.6
		c-0.1,0.2-0.2,0.4-0.3,0.5c-0.1,0.1-0.3,0.3-0.5,0.3c-0.2,0.1-0.5,0.1-0.7,0.1s-0.3,0-0.5,0s-0.3-0.1-0.4-0.1
		c-0.1-0.1-0.3-0.1-0.4-0.2c-0.1-0.1-0.2-0.2-0.3-0.3l0.3-0.5l0.1-0.1h0.1c0.1,0,0.1,0,0.2,0.1c0.1,0,0.1,0.1,0.2,0.1
		c0.1,0.1,0.2,0.1,0.3,0.1c0.1,0,0.3,0.1,0.4,0.1c0.2,0,0.4-0.1,0.5-0.2c0.1-0.1,0.2-0.3,0.2-0.5C28.1,79.9,28.1,79.8,28,79.8z
		 M32.2,81.5h-0.9l-2-4.9h0.8c0.1,0,0.2,0,0.2,0.1c0.1,0,0.1,0.1,0.1,0.2l1.1,2.8c0,0.1,0.1,0.2,0.1,0.3s0.1,0.3,0.1,0.4
		c0-0.1,0.1-0.3,0.1-0.4s0.1-0.2,0.1-0.3l1.1-2.8c0-0.1,0.1-0.1,0.1-0.2c0.1,0,0.1-0.1,0.2-0.1h0.8L32.2,81.5z M30.2,59.1v8.3h8.5
		v5.7H16.3v-14H30.2z M38.7,91.5H16.3v-7.2h22.4L38.7,91.5L38.7,91.5z"/>
	<path id="XMLID_16_" class="st1" d="M65.9,53.3v-4.7l0,0v-0.1l0,0v-0.1l0,0c0,0,0,0,0-0.1l0,0c0,0,0,0-0.1-0.1l-7-7.1l0,0l0,0
		c0,0,0,0-0.1-0.1l0,0c0,0,0,0-0.1,0l0,0h-0.1l0,0h-0.1l0,0H42.8c-0.3,0-0.5,0.2-0.5,0.5v11.8h-1.7v12h1.7v5.5
		c0,0.3,0.2,0.5,0.5,0.5h22.6c0.3,0,0.5-0.2,0.5-0.5v-5.5h1.6v-12C67.5,53.3,65.9,53.3,65.9,53.3z M58.9,42.8l5.2,5.3h-5.2
		C58.9,48.1,58.9,42.8,58.9,42.8z M64.8,70.2H43.3v-4.9h21.5V70.2z M43.4,56.6h1.5l0.5,1c0.2,0.3,0.3,0.6,0.4,0.9l0,0
		c0.1-0.4,0.2-0.6,0.4-0.9l0.5-1h1.5l-1.6,2.8l1.7,2.9h-1.5l-0.5-1c-0.2-0.4-0.3-0.7-0.5-1l0,0c-0.1,0.3-0.3,0.6-0.4,1l-0.5,1h-1.5
		l1.7-2.9L43.4,56.6z M49.3,62.3l0.4-5.7h1.7l0.6,1.9c0.2,0.7,0.4,1.4,0.5,2l0,0c0.2-0.7,0.4-1.4,0.5-2.1l0.6-1.9h1.7l0.3,5.7h-1.3
		L54.2,60c0-0.7-0.1-1.5-0.1-2.3l0,0c-0.2,0.7-0.4,1.5-0.6,2.2l-0.7,2.3h-1L51.2,60c-0.2-0.7-0.4-1.5-0.5-2.2l0,0
		c0,0.8-0.1,1.7-0.1,2.4l-0.1,2.2L49.3,62.3L49.3,62.3z M60.5,61.2v1.1H57v-5.7h1.3v4.6H60.5z M64.8,53.3H43.3V42h14.4v6.6
		c0,0.3,0.2,0.5,0.5,0.5h6.5L64.8,53.3L64.8,53.3z"/>
	<g id="XMLID_47_" class="st1">
		<path id="XMLID_59_" d="M64.1,75.3c-9.3,0-17,2.2-17.1,5.6c0,0.1,0,21.2,0,26.9c0,0.8,0,1.3,0,1.3c0,3.1,8.2,5.3,17.1,5.3
			s17.1-2.1,17.1-5.3s0-28.1,0-28.2C81.3,77.5,73.4,75.3,64.1,75.3z M64.1,85.3c-9.5,0-16-2.4-16-4.6s6.4-4.6,16-4.6s16,2.4,16,4.6
			C80,83.1,73.6,85.3,64.1,85.3z M80,109c-0.5,2.2-6.9,4.3-16,4.3s-15.5-2.2-16-4.3l0,0v-8.4c0.7,0.9,2.3,1.8,4.4,2.4
			c3,0.9,7.1,1.5,11.6,1.5c7.7,0,14-1.6,16-3.7V109z M80,99.4c-0.6,2.2-6.9,4.3-16,4.3c-4.6,0-8.4-0.5-11.2-1.3s-4.6-1.9-4.8-2.9
			v-7.7c1.6,1.9,6,3.2,11.8,3.7c1.3,0.1,2.7,0.1,4.2,0.1c7.7,0,14-1.6,16-3.7V99.4z M80,90.5c-0.6,2.2-6.9,4.3-16,4.3
			c-1.1,0-2.2,0-3.2-0.1c-7.4-0.4-12.2-2.4-12.8-4.2v-8.1c1.9,2,8.3,3.8,16,3.8c4,0,7.8-0.4,10.6-1.1c2.5-0.6,4.5-1.6,5.4-2.6V90.5z
			"/>
		<path id="XMLID_56_" d="M74.1,88.8c0,1,0.8,1.9,1.9,1.9s1.9-0.8,1.9-1.9S77,86.9,76,86.9S74.1,87.7,74.1,88.8z M77,88.8
			c0,0.6-0.5,1-1,1c-0.6,0-1-0.5-1-1s0.5-1,1-1C76.6,87.7,77,88.1,77,88.8z"/>
		<path id="XMLID_53_" d="M76,100.1c1,0,1.9-0.8,1.9-1.9S77,96.3,76,96.3s-1.9,0.9-1.9,1.9S75,100.1,76,100.1z M76,97.2
			c0.6,0,1,0.5,1,1c0,0.6-0.5,1-1,1c-0.6,0-1-0.5-1-1C75,97.6,75.4,97.2,76,97.2z"/>
		<path id="XMLID_50_" d="M76,109.4c1,0,1.9-0.8,1.9-1.9s-0.9-1.8-1.9-1.8s-1.9,0.8-1.9,1.9S75,109.4,76,109.4z M76,106.5
			c0.6,0,1,0.5,1,1c0,0.6-0.5,1-1,1c-0.6,0-1-0.5-1-1C75,106.9,75.4,106.5,76,106.5z"/>
	</g>
</g>
<g id="Ebene_4" class="st0">
	<g id="XMLID_52_" class="st1">
		<path id="XMLID_49_" d="M69.8,51.6l-3.2,3.8l0.9,5.6c0.1,0.9-0.3,1.8-1.1,2.2l-5,2.5c2.3,1.9,4.3,3.7,4.3,3.7s4.4-10,5-17.2
			c-0.2-0.1-0.4-0.3-0.6-0.4C70,51.7,69.9,51.7,69.8,51.6z"/>
		<path id="XMLID_48_" d="M58.3,62.6l4.9-2.5L62.7,57L62,56.6l-4.8,6c0.2,0.1,0.4,0.2,0.6,0.4C57.9,62.8,58.1,62.7,58.3,62.6z"/>
		<path id="XMLID_36_" d="M60.1,52.2l1.8-7.1c0-0.1,0-0.2,0-0.5C55.4,47.6,47,58.2,47,58.2s3.2,1.1,6.2,2.5L60.1,52.2
			C60.1,52.3,60.1,52.2,60.1,52.2z"/>
		<ellipse id="XMLID_35_" cx="69.5" cy="42.7" rx="3" ry="3"/>
		<path id="XMLID_34_" d="M76.5,46.7c-0.6-0.4-1.3-0.3-1.7,0.3c-0.9,1.2-1.6,2-2.1,2.4c-0.3,0.2-0.5,0.3-0.6,0.4
			c-0.1,0-0.1,0.1-0.2,0.1c0,0-0.1-0.1-0.1-0.2c-0.1-0.2-0.2-0.5-0.3-0.7c0-0.1,0-0.2-0.1-0.3v-0.1l0,0c-0.1-0.5-0.3-0.8-0.7-1
			c-0.1,0-0.1-0.1-0.2-0.1l-5.9-3c0.1-0.8,0.3-2.1,0.9-3.7c0.8-2.4,2.4-5.1,5.3-7.2c0.5-0.4,0.7-1.2,0.3-1.7
			c-0.4-0.5-1.2-0.7-1.7-0.3c-3.5,2.5-5.3,5.9-6.2,8.6c-0.9,2.6-1,4.6-1,4.9l-1.8,7.2l-0.1,0.1L50.1,65c-0.6,0.8-0.5,1.9,0.3,2.6
			c0.3,0.3,0.7,0.4,1.2,0.4s1.1-0.2,1.4-0.7l9-11l1,0.5l0.5,3.4l-5,2.6c-0.9,0.5-1.3,1.6-0.8,2.5c0.3,0.6,1,1,1.6,1
			c0.3,0,0.6-0.1,0.8-0.2l6.2-3.2c0.7-0.4,1.1-1.1,1-1.9l-0.9-5.7l3.5-4.1c0.1,0.2,0.2,0.3,0.4,0.5c0.4,0.4,1,0.7,1.7,0.7l0,0
			c0.4,0,0.8-0.1,1.2-0.3c0.6-0.3,1.1-0.7,1.7-1.3c0.6-0.6,1.2-1.4,1.9-2.4C77.2,47.9,77,47.1,76.5,46.7z"/>
		<path id="XMLID_33_" d="M53.1,70.9c-0.6-0.4-2.7,1.5-4.5,4.4c-5.7,8.9-10.9,18.1-15.7,27.5c-1.5,3.1-1.4,3.1,0.3,0.2
			c5.4-9,11.1-17.8,17.2-26.3C52.5,73.9,53.7,71.3,53.1,70.9z"/>
		<path id="XMLID_32_" d="M36.1,103.6c-0.7,0.2-0.9,1.1,0,0.9c1.2-0.3,2.3-0.1,3.2,0.8c0.8,0.8,1.1,1.9,1.2,3c0,1-0.2,2-0.9,2.7
			c-0.8,0.8-2.1,0.6-3.1,0.2c-0.4-0.2-1.2,0.1-1.1,0.7c0.3,1.5,0.3,3.3-0.9,4.3c-0.9,0.7-2.3,0.8-3.4,0.5c-1.2-0.2-2.4-0.9-3-1.9
			c-0.7-1.2-0.2-2.6,0.7-3.6c0.5-0.5-0.1-0.9-0.6-0.6c-1.1,0.5-2.3,0.8-3.3,0.3c-0.8-0.4-1.2-1.3-1.4-2.1c-0.1-0.8,0-1.7,0.5-2.4
			c0.5-0.7,1.4-0.7,2.2-0.5c0.4,0.1,1.4-0.7,0.8-0.9c-0.9-0.3-1.6-0.8-1.9-1.8c-0.2-0.8,0.1-1.6,0.6-2.2c1.4-1.8,3.8-1,5.2,0.3
			c0.4,0.4,1.6-0.3,1.1-0.7c-2-1.9-5.1-2.2-7.2-0.1c-0.7,0.8-1.2,1.8-1.1,2.9c0.1,0.6,0.4,1.2,0.8,1.6c-1.6,0.5-2.7,2.1-2.4,4
			c0.1,1.2,0.7,2.2,1.8,2.8c0.9,0.5,2,0.5,3.1,0.3c-0.5,0.9-0.8,2-0.3,3c0.5,1.3,1.9,2.1,3.1,2.5c3,1,6.7-0.3,7.1-3.7
			c0.1-0.5,0-0.9,0-1.4c1.1,0.2,2.3,0.1,3.3-0.7c1.1-0.8,1.7-2.2,1.7-3.5c0.1-1.3-0.4-2.7-1.4-3.7C39.3,103.5,37.6,103.3,36.1,103.6
			z"/>
		<path id="XMLID_31_" d="M29.5,106.5c0-0.6-1-0.3-1,0.2c0,2.3,3.2,2.6,4.7,1.5c0.5-0.4-0.1-1-0.6-0.6
			C31.7,108.3,29.5,108,29.5,106.5z"/>
	</g>
</g>
<g>
	<path d="M53.1,55.3c-0.2,0-0.4,0.1-0.5,0.2l0,0c0,0-1.6,1.5-4.1,1.5c-2.5,0-4.1-1.4-4.1-1.5l0,0c-0.1-0.1-0.3-0.2-0.5-0.2
		c-3.1,0-5.6,1-7.3,3C33,62.6,33.9,69.6,34,69.9c0.1,0.4,0.4,0.6,0.7,0.6h27.6c0.4,0,0.6-0.3,0.7-0.6c0.1-0.3,1-7.3-2.6-11.5
		C58.7,56.4,56.2,55.3,53.1,55.3z M61.7,69.1H35.4c-0.1-1.7-0.3-6.7,2.4-9.7c1.4-1.6,3.3-2.4,5.8-2.5l4.4,9.1c0.2,0.5,1.1,0.5,1.3,0
		l4.3-9.1c2.5,0.1,4.4,0.9,5.8,2.5C61.9,62.3,61.9,67.3,61.7,69.1z"/>
	<path d="M48.5,53.7c4.4,0,7.9-3.5,7.9-7.9s-3.5-7.9-7.9-7.9s-7.9,3.5-7.9,7.9S44.2,53.7,48.5,53.7z M48.5,39.3
		c3.6,0,6.5,2.9,6.5,6.5c0,3.6-2.9,6.5-6.5,6.5c-3.6,0-6.5-2.9-6.5-6.5C42,42.1,45,39.3,48.5,39.3z"/>
	<path d="M73.3,50.9c-1.2-1.4-3-2.2-5.3-2.2c-0.1,0-0.1,0-0.2,0.1c0,0,0,0-0.1,0s-0.1,0.1-0.2,0.1l0,0c-0.1,0.1-1.1,1-2.7,1
		C63,50,62,49.1,62,49l0,0c-0.1-0.1-0.1-0.1-0.1-0.1h-0.1c-0.1,0-0.1-0.1-0.2-0.1l0,0l0,0c-3.5,0-5.8,1.7-6.8,4.9
		c-0.1,0.4,0.1,0.8,0.5,0.9c0.4,0.1,0.8-0.1,0.9-0.5c0.8-2.5,2.5-3.8,5-3.9l3,6.3c0.2,0.5,1.1,0.5,1.3,0l3-6.3
		c1.6,0.1,2.9,0.6,3.8,1.7c1.7,1.9,1.7,5.2,1.7,6.5H63.7c-0.4,0-0.7,0.3-0.7,0.7s0.3,0.7,0.7,0.7h10.9c0.4,0,0.6-0.3,0.7-0.6
		C75.3,59,76,54,73.3,50.9z M64.8,54.6l-1.7-3.4c0.5,0.1,1,0.2,1.7,0.2s1.2-0.1,1.7-0.2L64.8,54.6z"/>
	<path d="M64.8,48c3.2,0,5.8-2.6,5.8-5.8s-2.6-5.8-5.8-5.8S59,39,59,42.2C59,45.5,61.6,48,64.8,48z M64.8,37.8
		c2.4,0,4.4,1.9,4.4,4.4c0,2.5-1.9,4.4-4.4,4.4c-2.5,0-4.4-2-4.4-4.4C60.4,39.8,62.4,37.8,64.8,37.8z"/>
	<path d="M34.2,59.2c0-0.4-0.3-0.7-0.7-0.7H23.2c-0.1-1.4-0.1-4.5,1.7-6.5c0.9-1,2.2-1.6,3.8-1.7l3,6.3c0.2,0.5,1.1,0.5,1.3,0l3-6.3
		c2.5,0.1,4.2,1.4,5,3.9c0.1,0.4,0.5,0.6,0.9,0.5c0.4-0.1,0.6-0.5,0.5-0.9c-1-3.2-3.3-4.9-6.8-4.9l0,0l0,0c-0.1,0-0.1,0-0.2,0.1
		h-0.1c-0.1,0-0.1,0.1-0.1,0.1l0,0c0,0-1.1,1-2.7,1c-1.7,0-2.7-0.9-2.7-1l0,0c-0.1-0.1-0.1-0.1-0.1-0.1h-0.1c-0.1,0-0.1-0.1-0.2-0.1
		l0,0l0,0c-2.2,0-4,0.7-5.3,2.2c-2.8,3-2.1,8-2.1,8.2c0.1,0.4,0.4,0.6,0.7,0.6h10.9C33.8,59.9,34.2,59.5,34.2,59.2z M33.9,51.2
		l-1.7,3.4l-1.7-3.4c0.5,0.1,1,0.2,1.7,0.2C32.9,51.5,33.4,51.3,33.9,51.2z"/>
	<path d="M32.3,48c3.2,0,5.8-2.6,5.8-5.8s-2.6-5.8-5.8-5.8c-3.2,0-5.8,2.6-5.8,5.8C26.4,45.4,29.1,48,32.3,48z M32.3,37.8
		c2.4,0,4.4,1.9,4.4,4.4c0,2.5-1.9,4.4-4.4,4.4c-2.5,0-4.4-1.9-4.4-4.4S29.9,37.8,32.3,37.8z"/>
</g>
</svg>
