<?xml version="1.0" encoding="utf-8"?>
<!-- Generator: Adobe Illustrator 19.0.0, SVG Export Plug-In . SVG Version: 6.00 Build 0)  -->
<svg version="1.1" id="Ebene_1" xmlns="http://www.w3.org/2000/svg" xmlns:xlink="http://www.w3.org/1999/xlink" x="0px" y="0px"
	 viewBox="0 32.2 100 55.8" style="enable-background:new 0 32.2 100 55.8;" xml:space="preserve">
<style type="text/css">
	.st0{display:none;}
	.st1{display:inline;}
	.st2{fill:none;}
</style>
<g id="Ebene_1_1_" class="st0">
	<g class="st1">
		<path d="M82.4,51.7c0-0.5-0.3-0.9-0.7-1l-27.9-7.3V31.2c0-0.6-0.4-1-1-1h-4.4c-0.6,0-1,0.4-1,1v10.4L37.1,39c-0.1,0-0.3,0-0.4,0
			c-8.3,1.6-15,5.9-18.6,11.6l-0.3,0.5c-0.1,0.2-0.2,0.4-0.1,0.6l0,0v33.5c0,0.6,0.4,1,1,1h62.9c0.6,0,1-0.4,1-1L82.4,51.7
			L82.4,51.7z M49.3,32.2h2.4v14.4h-2.4V32.2z M36.8,41l10.5,2.8v3.9c0,0.6,0.4,1,1,1h4.4c0.6,0,1-0.4,1-1v-2.2l19.9,5.2H20.4
			C23.8,45.9,29.6,42.4,36.8,41z M80.4,84.2H19.6V71.5c1.6,0.2,2.5,0.9,3.5,1.7c1.3,1,2.8,2.2,5.8,2.2c2.9,0,4.4-1.2,5.8-2.2
			c1.2-1,2.3-1.8,4.5-1.8s3.3,0.8,4.5,1.8c1.3,1,2.8,2.2,5.8,2.2c2.9,0,4.4-1.2,5.8-2.2c1.2-1,2.3-1.8,4.5-1.8s3.3,0.8,4.5,1.8
			c1.3,1,2.9,2.2,5.8,2.2s4.4-1.2,5.8-2.2c1.2-1,2.3-1.8,4.5-1.8C80.4,71.4,80.4,84.2,80.4,84.2z M80.4,69.5c-2.9,0-4.4,1.2-5.8,2.2
			c-1.2,1-2.3,1.8-4.5,1.8s-3.3-0.8-4.5-1.8c-1.3-1-2.9-2.2-5.8-2.2c-2.9,0-4.4,1.2-5.8,2.2c-1.2,1-2.3,1.8-4.5,1.8
			s-3.3-0.8-4.5-1.8c-1.3-1-2.8-2.2-5.8-2.2c-2.9,0-4.4,1.2-5.8,2.2c-1.2,1-2.3,1.8-4.5,1.8s-3.3-0.8-4.5-1.8
			c-1.2-0.9-2.5-1.9-4.8-2.2v-5.8c1.6,0.2,2.5,0.9,3.5,1.7c1.3,1,2.8,2.2,5.8,2.2c2.9,0,4.4-1.2,5.8-2.2c1.2-1,2.3-1.8,4.5-1.8
			s3.3,0.8,4.5,1.8c1.3,1,2.8,2.2,5.8,2.2c2.9,0,4.4-1.2,5.8-2.2c1.2-1,2.3-1.8,4.5-1.8s3.3,0.8,4.5,1.8c1.3,1,2.9,2.2,5.8,2.2
			s4.4-1.2,5.8-2.2c1.2-1,2.3-1.8,4.5-1.8C80.4,63.6,80.4,69.5,80.4,69.5z M80.4,61.6c-2.9,0-4.4,1.2-5.8,2.2
			c-1.2,1-2.3,1.8-4.5,1.8s-3.3-0.8-4.5-1.8c-1.3-1-2.9-2.2-5.8-2.2c-2.9,0-4.4,1.2-5.8,2.2c-1.2,1-2.3,1.8-4.5,1.8
			s-3.3-0.8-4.5-1.8c-1.3-1-2.8-2.2-5.8-2.2c-2.9,0-4.4,1.2-5.8,2.2c-1.2,1-2.3,1.8-4.5,1.8s-3.3-0.8-4.5-1.8
			c-1.2-0.9-2.5-1.9-4.8-2.2v-8.9h60.9L80.4,61.6L80.4,61.6z"/>
		<path d="M48.9,28.2c0.3,0.2,0.7,0.2,1.1,0.2c1.7,0,3.6-1.5,4.5-3.3c0.5-1,0.5-2.5,0.5-2.6c0-5.1-3.9-7.4-4-7.5
			c-0.3-0.2-0.7-0.2-1,0s-0.5,0.5-0.5,0.9c0.1,3.3-0.9,5.1-1.3,5.6l0,0c-0.7,0.9-1,1.4-1.1,1.7c-0.6,1.3-0.4,2.4-0.1,3
			C47.2,27.1,47.9,27.8,48.9,28.2z M48.8,24L48.8,24c0.1-0.1,0.3-0.4,0.9-1.2c0.6-0.7,1.4-2.2,1.7-4.7c0.8,0.9,1.6,2.4,1.6,4.5
			c0,0.3-0.1,1.2-0.3,1.7c-0.7,1.4-2.3,2.4-2.9,2.1c-0.5-0.2-0.8-0.6-1-0.9C48.5,25.1,48.5,24.6,48.8,24z"/>
	</g>
</g>
<g id="Ebene_2" class="st0">
	<path id="XMLID_8_" class="st1" d="M42.6,49.9l-2.7-2l0,0V43l0,0l-8.5-8.3l0,0H15.1V48l-2.7,2v10.5v0.6H13h2.1v8.4h24.8v-8.4H42
		h0.6v-0.6v-2.9V49.9z M22.3,56.5c0.1,0.2,0.2,0.4,0.3,0.5c0.1,0.1,0.3,0.2,0.4,0.3c0.2,0.1,0.4,0.1,0.5,0.1s0.2,0,0.3,0
		c0.1,0,0.2,0,0.3-0.1c0.1,0,0.2-0.1,0.2-0.1c0.1,0,0.1-0.1,0.2-0.2c0,0,0.1,0,0.1-0.1h0.1c0.1,0,0.1,0,0.1,0.1l0.4,0.4
		c-0.2,0.3-0.4,0.4-0.7,0.6c-0.3,0.1-0.6,0.2-1,0.2s-0.7-0.1-1-0.2c-0.3-0.1-0.5-0.3-0.7-0.5s-0.4-0.5-0.5-0.8s-0.2-0.6-0.2-1
		c0-0.2,0-0.5,0.1-0.7s0.1-0.4,0.2-0.6c0.1-0.2,0.2-0.4,0.4-0.5c0.1-0.1,0.3-0.3,0.5-0.4c0.2-0.1,0.4-0.2,0.6-0.2
		c0.2-0.1,0.4-0.1,0.7-0.1c0.2,0,0.4,0,0.5,0s0.3,0.1,0.5,0.1c0.1,0.1,0.3,0.1,0.4,0.2c0.1,0.1,0.2,0.2,0.3,0.3L25,54.3
		c0,0,0,0.1-0.1,0.1h-0.1c-0.1,0-0.1,0-0.2-0.1c-0.1,0-0.1-0.1-0.2-0.1s-0.2-0.1-0.3-0.1S23.8,54,23.6,54s-0.4,0-0.6,0.1
		s-0.3,0.2-0.4,0.3s-0.2,0.3-0.3,0.5c-0.1,0.2-0.1,0.4-0.1,0.7C22.2,56.1,22.2,56.3,22.3,56.5z M28,56.6c-0.1-0.1-0.1-0.1-0.3-0.2
		c-0.1-0.1-0.2-0.1-0.4-0.1c-0.1,0-0.3-0.1-0.4-0.1s-0.3-0.1-0.4-0.2c-0.1-0.1-0.3-0.1-0.4-0.2c-0.1-0.1-0.2-0.2-0.3-0.4
		c-0.1-0.2-0.1-0.3-0.1-0.6c0-0.2,0-0.4,0.1-0.5c0.1-0.2,0.2-0.3,0.3-0.5c0.1-0.1,0.3-0.2,0.5-0.3s0.4-0.1,0.7-0.1
		c0.3,0,0.6,0,0.8,0.1c0.3,0.1,0.5,0.2,0.6,0.4l-0.2,0.5c0,0.1-0.1,0.1-0.1,0.1h-0.1c0,0-0.1,0-0.2-0.1c-0.1,0-0.1-0.1-0.2-0.1
		s-0.2-0.1-0.3-0.1c-0.1,0-0.2-0.1-0.3-0.1c-0.2,0-0.4,0.1-0.5,0.2c-0.1,0.1-0.2,0.2-0.2,0.4c0,0.1,0,0.2,0.1,0.3s0.1,0.1,0.3,0.2
		s0.2,0.1,0.4,0.1s0.3,0.1,0.4,0.1s0.3,0.1,0.4,0.2c0.1,0.1,0.3,0.1,0.4,0.2s0.2,0.2,0.3,0.4c0.1,0.1,0.1,0.3,0.1,0.5s0,0.4-0.1,0.6
		c-0.1,0.2-0.2,0.4-0.3,0.5c-0.1,0.1-0.3,0.3-0.5,0.3c-0.2,0.1-0.5,0.1-0.7,0.1s-0.3,0-0.5,0s-0.3-0.1-0.4-0.1
		c-0.1-0.1-0.3-0.1-0.4-0.2c-0.1-0.1-0.2-0.2-0.3-0.3l0.3-0.5l0.1-0.1h0.1c0.1,0,0.1,0,0.2,0.1c0.1,0,0.1,0.1,0.2,0.1
		c0.1,0.1,0.2,0.1,0.3,0.1c0.1,0,0.3,0.1,0.4,0.1c0.2,0,0.4-0.1,0.5-0.2c0.1-0.1,0.2-0.3,0.2-0.5C28.1,56.7,28.1,56.6,28,56.6z
		 M32.2,58.3h-0.9l-2-4.9h0.8c0.1,0,0.2,0,0.2,0.1c0.1,0,0.1,0.1,0.1,0.2l1.1,2.8c0,0.1,0.1,0.2,0.1,0.3s0.1,0.3,0.1,0.4
		c0-0.1,0.1-0.3,0.1-0.4c0-0.1,0.1-0.2,0.1-0.3l1.1-2.8c0-0.1,0.1-0.1,0.1-0.2c0.1,0,0.1-0.1,0.2-0.1h0.8L32.2,58.3z M30.2,35.9v8.3
		h8.5v5.7H16.3v-14H30.2z M38.7,68.3H16.3v-7.2h22.4L38.7,68.3L38.7,68.3z"/>
	<path id="XMLID_16_" class="st1" d="M65.9,30.1v-4.7l0,0v-0.1l0,0v-0.1l0,0c0,0,0,0,0-0.1l0,0c0,0,0,0-0.1-0.1l-7-7.1l0,0l0,0
		c0,0,0,0-0.1-0.1l0,0c0,0,0,0-0.1,0l0,0h-0.1l0,0h-0.1l0,0H42.8c-0.3,0-0.5,0.2-0.5,0.5v11.8h-1.7v12h1.7v5.5
		c0,0.3,0.2,0.5,0.5,0.5h22.6c0.3,0,0.5-0.2,0.5-0.5v-5.5h1.6v-12C67.5,30.1,65.9,30.1,65.9,30.1z M58.9,19.6l5.2,5.3h-5.2
		C58.9,24.9,58.9,19.6,58.9,19.6z M64.8,47H43.3v-4.9h21.5V47z M43.4,33.4h1.5l0.5,1c0.2,0.3,0.3,0.6,0.4,0.9l0,0
		c0.1-0.4,0.2-0.6,0.4-0.9l0.5-1h1.5l-1.6,2.8l1.7,2.9h-1.5l-0.5-1c-0.2-0.4-0.3-0.7-0.5-1l0,0c-0.1,0.3-0.3,0.6-0.4,1l-0.5,1h-1.5
		l1.7-2.9L43.4,33.4z M49.3,39.1l0.4-5.7h1.7l0.6,1.9c0.2,0.7,0.4,1.4,0.5,2l0,0c0.2-0.7,0.4-1.4,0.5-2.1l0.6-1.9h1.7l0.3,5.7h-1.3
		l-0.1-2.2c0-0.7-0.1-1.5-0.1-2.3l0,0c-0.2,0.7-0.4,1.5-0.6,2.2L52.8,39h-1l-0.6-2.2c-0.2-0.7-0.4-1.5-0.5-2.2l0,0
		c0,0.8-0.1,1.7-0.1,2.4l-0.1,2.2L49.3,39.1L49.3,39.1z M60.5,38v1.1H57v-5.7h1.3V38H60.5z M64.8,30.1H43.3V18.8h14.4v6.6
		c0,0.3,0.2,0.5,0.5,0.5h6.5L64.8,30.1L64.8,30.1z"/>
	<g id="XMLID_47_" class="st1">
		<path id="XMLID_59_" d="M64.1,52.1c-9.3,0-17,2.2-17.1,5.6c0,0.1,0,21.2,0,26.9c0,0.8,0,1.3,0,1.3c0,3.1,8.2,5.3,17.1,5.3
			s17.1-2.1,17.1-5.3s0-28.1,0-28.2C81.3,54.3,73.4,52.1,64.1,52.1z M64.1,62.1c-9.5,0-16-2.4-16-4.6c0-2.2,6.4-4.6,16-4.6
			s16,2.4,16,4.6C80,59.9,73.6,62.1,64.1,62.1z M80,85.8c-0.5,2.2-6.9,4.3-16,4.3s-15.5-2.2-16-4.3l0,0v-8.4
			c0.7,0.9,2.3,1.8,4.4,2.4c3,0.9,7.1,1.5,11.6,1.5c7.7,0,14-1.6,16-3.7V85.8z M80,76.2c-0.6,2.2-6.9,4.3-16,4.3
			c-4.6,0-8.4-0.5-11.2-1.3s-4.6-1.9-4.8-2.9v-7.7c1.6,1.9,6,3.2,11.8,3.7c1.3,0.1,2.7,0.1,4.2,0.1c7.7,0,14-1.6,16-3.7V76.2z
			 M80,67.3c-0.6,2.2-6.9,4.3-16,4.3c-1.1,0-2.2,0-3.2-0.1c-7.4-0.4-12.2-2.4-12.8-4.2v-8.1c1.9,2,8.3,3.8,16,3.8
			c4,0,7.8-0.4,10.6-1.1c2.5-0.6,4.5-1.6,5.4-2.6V67.3z"/>
		<path id="XMLID_56_" d="M74.1,65.6c0,1,0.8,1.9,1.9,1.9s1.9-0.8,1.9-1.9S77,63.7,76,63.7S74.1,64.5,74.1,65.6z M77,65.6
			c0,0.6-0.5,1-1,1c-0.6,0-1-0.5-1-1s0.5-1,1-1C76.6,64.5,77,64.9,77,65.6z"/>
		<path id="XMLID_53_" d="M76,76.9c1,0,1.9-0.8,1.9-1.9S77,73.1,76,73.1S74.1,74,74.1,75S75,76.9,76,76.9z M76,74c0.6,0,1,0.5,1,1
			c0,0.6-0.5,1-1,1c-0.6,0-1-0.5-1-1C75,74.4,75.4,74,76,74z"/>
		<path id="XMLID_50_" d="M76,86.2c1,0,1.9-0.8,1.9-1.9S77,82.5,76,82.5s-1.9,0.8-1.9,1.9S75,86.2,76,86.2z M76,83.3
			c0.6,0,1,0.5,1,1c0,0.6-0.5,1-1,1c-0.6,0-1-0.5-1-1C75,83.7,75.4,83.3,76,83.3z"/>
	</g>
</g>
<g id="Ebene_3">
	<g id="XMLID_57_">
		<path id="XMLID_58_" d="M60.5,62.6c2,0.2,3.7,0.6,3.7,0.6c-3.9-2.2-3.8-10-3.8-10c0.7-15.1-9.3-14.3-9.3-14.3l0,0l0,0
			c0,0-10-0.8-9.3,14.3c0,0,0.1,7.8-3.8,10c0,0,1.1-0.1,2.5-0.1c-4,1.8-6.8,5.8-6.8,10.5c0,6.4,5.2,5.2,11.5,5.2H57
			c6.4,0,11.5,1.1,11.5-5.2C68.6,68.4,65.2,64.1,60.5,62.6z M53.8,65.6L51.1,70l-2.7-4.3c-1.9-0.4-3.4-1.3-4-2.5
			c1.6,0.1,2.9,0.4,3.2,1l-1.5-3.3c1.4,1.4,3.1,2.2,4.9,2.2c1.8,0,3.5-0.8,4.8-2.1l-1,2.1c0.3-0.6,1.6-0.7,3.1-0.7
			C57.8,63.9,56.1,65.1,53.8,65.6z M58.8,51.7c-0.2,2-0.7,3.8-1.4,5.4c-1.4,2.8-3.7,4.6-6.2,4.6c-3.9,0-7.1-4.2-7.6-9.7
			c0,0,3.1-0.5,4.9-1.2c0,0,3.3-1.1,7.4-4c0,0,0,0,0.1,0c0,0,0.1,0.1,0.2,0.3c0.4,0.6,1.1,2.4-0.3,3.2l2.6,0.3l0,0l0.5,0.1
			C58.8,51,58.8,51.4,58.8,51.7z"/>
	</g>
	<g id="XMLID_18_">
		<path id="XMLID_19_" d="M85.1,61.8c1.5,0.2,2.9,0.4,2.9,0.4c-3.1-1.7-3-7.8-3-7.8c0.5-11.7-7.2-11.1-7.2-11.1l0,0l0,0
			c0,0-7.7-0.6-7.2,11.1c0,0,0.1,6.1-3,7.8c0,0,0.8-0.1,1.9-0.1c-3.1,1.4-5.3,4.5-5.3,8.2c0,5,4,4.1,9,4.1h9.2c5,0,9,0.9,9-4.1
			C91.3,66.3,88.7,62.9,85.1,61.8z M79.8,64.1l-2.1,3.4l-2.1-3.4c-1.5-0.3-2.7-1-3.1-1.9c1.2,0.1,2.2,0.3,2.5,0.8l-1.1-2.6
			c1.1,1.1,2.4,1.7,3.8,1.7s2.7-0.6,3.8-1.7l-0.8,1.7c0.3-0.4,1.3-0.6,2.5-0.5C83,62.8,81.7,63.7,79.8,64.1z M83.7,53.3
			c-0.1,1.6-0.5,3-1.1,4.2c-1.1,2.2-2.9,3.6-4.8,3.6c-3,0-5.5-3.3-5.9-7.6c0,0,2.4-0.4,3.8-1c0,0,2.6-0.9,5.8-3.1l0,0
			c0,0,0.1,0.1,0.1,0.2c0.3,0.5,0.9,1.9-0.2,2.5l2,0.3l0,0l0.4,0.1C83.8,52.7,83.8,53,83.7,53.3z"/>
	</g>
	<g id="XMLID_23_">
		<path id="XMLID_28_" class="st2" d="M22.8,59.9c-3.1,0-5.7-3.4-6.1-7.8c0.3,0.1,0.6,0.2,1,0.5c0,0-0.7-4.1,0.8-4.7c0,0,2,1,4.4,1
			c2.3-0.1,4.4-1,4.4-1c1.5,0.6,0.8,4.7,0.8,4.7c0.4-0.3,0.7-0.4,1-0.5C28.5,56.5,25.9,59.9,22.8,59.9z"/>
		<path id="XMLID_25_" d="M29.8,51.2c0-0.2,0-0.3,0-0.5c0-0.4,0-0.8-0.1-1.1c-0.5-3.6-3.4-6.3-7-6.3s-6.5,2.7-7,6.3
			c-0.1,0.4-0.1,0.7-0.1,1.1c0,0.2,0,0.3,0,0.5s0,0.4,0.1,0.7c0,0.1,0,0.1,0,0.2c0.4,5,3.4,8.9,7,8.9s6.5-3.9,7-8.9
			c0-0.1,0-0.1,0-0.2C29.8,51.7,29.8,51.4,29.8,51.2z M27.9,52.6c0.4-0.3,0.7-0.4,1-0.5c-0.4,4.4-3,7.8-6.1,7.8s-5.7-3.4-6.1-7.8
			c0.3,0.1,0.6,0.2,1,0.5c0,0-0.7-4.1,0.8-4.7c0,0,2,1,4.4,1c2.3-0.1,4.4-1,4.4-1C28.6,48.5,27.9,52.6,27.9,52.6z"/>
		<path id="XMLID_24_" d="M16.7,60.1L16.7,60.1c0.2,0,0.3,0,0.4-0.1l0,0v0.1c0,0.2,0.1,0.4,0.2,0.6c0.7,1.7,2.9,5,4.2,6.9l0.3-3.9
			c-0.4-0.2-0.7-0.5-0.9-0.9c-0.2-0.3-0.2-0.6-0.2-0.9c0,0,1,0.4,2,0.4c0.1,0,0.1,0,0.2,0s0.1,0,0.2,0c1,0,2-0.4,2-0.4
			c0,0.3-0.1,0.6-0.2,0.9c-0.2,0.4-0.5,0.7-0.9,0.9l0.3,3.9c1.3-1.9,3.5-5.1,4.2-6.9c0.1-0.2,0.2-0.4,0.2-0.6V60l0,0
			c0.1,0,0.3,0,0.4,0l0,0c4.5,0.6,8,4.5,8,9.2c0,5.2-4.2,5.1-9.3,5.1H23h-5c-5.2,0-9.3,0-9.3-5.1C8.7,64.6,12.1,60.7,16.7,60.1z"/>
	</g>
</g>
<g id="Ebene_4" class="st0">
	<g id="XMLID_52_" class="st1">
		<path id="XMLID_49_" d="M69.8,28.4l-3.2,3.8l0.9,5.6c0.1,0.9-0.3,1.8-1.1,2.2l-5,2.5c2.3,1.9,4.3,3.7,4.3,3.7s4.4-10,5-17.2
			c-0.2-0.1-0.4-0.3-0.6-0.4C70,28.5,69.9,28.5,69.8,28.4z"/>
		<path id="XMLID_48_" d="M58.3,39.4l4.9-2.5l-0.5-3.1L62,33.4l-4.8,6c0.2,0.1,0.4,0.2,0.6,0.4C57.9,39.6,58.1,39.5,58.3,39.4z"/>
		<path id="XMLID_36_" d="M60.1,29l1.8-7.1c0-0.1,0-0.2,0-0.5C55.4,24.4,47,35,47,35s3.2,1.1,6.2,2.5L60.1,29
			C60.1,29.1,60.1,29,60.1,29z"/>
		<ellipse id="XMLID_35_" cx="69.5" cy="19.5" rx="3" ry="3"/>
		<path id="XMLID_34_" d="M76.5,23.5c-0.6-0.4-1.3-0.3-1.7,0.3c-0.9,1.2-1.6,2-2.1,2.4c-0.3,0.2-0.5,0.3-0.6,0.4
			c-0.1,0-0.1,0.1-0.2,0.1c0,0-0.1-0.1-0.1-0.2c-0.1-0.2-0.2-0.5-0.3-0.7c0-0.1,0-0.2-0.1-0.3v-0.1l0,0c-0.1-0.5-0.3-0.8-0.7-1
			c-0.1,0-0.1-0.1-0.2-0.1l-5.9-3c0.1-0.8,0.3-2.1,0.9-3.7c0.8-2.4,2.4-5.1,5.3-7.2c0.5-0.4,0.7-1.2,0.3-1.7
			c-0.4-0.5-1.2-0.7-1.7-0.3c-3.5,2.5-5.3,5.9-6.2,8.6c-0.9,2.6-1,4.6-1,4.9l-1.8,7.2l-0.1,0.1L50.1,41.8c-0.6,0.8-0.5,1.9,0.3,2.6
			c0.3,0.3,0.7,0.4,1.2,0.4s1.1-0.2,1.4-0.7l9-11l1,0.5l0.5,3.4l-5,2.6c-0.9,0.5-1.3,1.6-0.8,2.5c0.3,0.6,1,1,1.6,1
			c0.3,0,0.6-0.1,0.8-0.2l6.2-3.2c0.7-0.4,1.1-1.1,1-1.9l-0.9-5.7l3.5-4.1c0.1,0.2,0.2,0.3,0.4,0.5c0.4,0.4,1,0.7,1.7,0.7l0,0
			c0.4,0,0.8-0.1,1.2-0.3c0.6-0.3,1.1-0.7,1.7-1.3c0.6-0.6,1.2-1.4,1.9-2.4C77.2,24.7,77,23.9,76.5,23.5z"/>
		<path id="XMLID_33_" d="M53.1,47.7c-0.6-0.4-2.7,1.5-4.5,4.4C42.9,61,37.7,70.2,32.9,79.6c-1.5,3.1-1.4,3.1,0.3,0.2
			c5.4-9,11.1-17.8,17.2-26.3C52.5,50.7,53.7,48.1,53.1,47.7z"/>
		<path id="XMLID_32_" d="M36.1,80.4c-0.7,0.2-0.9,1.1,0,0.9c1.2-0.3,2.3-0.1,3.2,0.8c0.8,0.8,1.1,1.9,1.2,3c0,1-0.2,2-0.9,2.7
			c-0.8,0.8-2.1,0.6-3.1,0.2c-0.4-0.2-1.2,0.1-1.1,0.7c0.3,1.5,0.3,3.3-0.9,4.3c-0.9,0.7-2.3,0.8-3.4,0.5c-1.2-0.2-2.4-0.9-3-1.9
			c-0.7-1.2-0.2-2.6,0.7-3.6c0.5-0.5-0.1-0.9-0.6-0.6c-1.1,0.5-2.3,0.8-3.3,0.3c-0.8-0.4-1.2-1.3-1.4-2.1c-0.1-0.8,0-1.7,0.5-2.4
			c0.5-0.7,1.4-0.7,2.2-0.5c0.4,0.1,1.4-0.7,0.8-0.9c-0.9-0.3-1.6-0.8-1.9-1.8c-0.2-0.8,0.1-1.6,0.6-2.2c1.4-1.8,3.8-1,5.2,0.3
			c0.4,0.4,1.6-0.3,1.1-0.7c-2-1.9-5.1-2.2-7.2-0.1c-0.7,0.8-1.2,1.8-1.1,2.9c0.1,0.6,0.4,1.2,0.8,1.6c-1.6,0.5-2.7,2.1-2.4,4
			c0.1,1.2,0.7,2.2,1.8,2.8c0.9,0.5,2,0.5,3.1,0.3c-0.5,0.9-0.8,2-0.3,3c0.5,1.3,1.9,2.1,3.1,2.5c3,1,6.7-0.3,7.1-3.7
			c0.1-0.5,0-0.9,0-1.4c1.1,0.2,2.3,0.1,3.3-0.7c1.1-0.8,1.7-2.2,1.7-3.5c0.1-1.3-0.4-2.7-1.4-3.7C39.3,80.3,37.6,80.1,36.1,80.4z"
			/>
		<path id="XMLID_31_" d="M29.5,83.3c0-0.6-1-0.3-1,0.2c0,2.3,3.2,2.6,4.7,1.5c0.5-0.4-0.1-1-0.6-0.6C31.7,85.1,29.5,84.8,29.5,83.3
			z"/>
	</g>
</g>
</svg>
